<?xml version="1.0" encoding="UTF-8" standalone="no"?>
<svg
        xmlns="http://www.w3.org/2000/svg"
        viewBox="0 0 334.23505 18.818649"
        height="18.818649"
        width="334.23505"
        id="svg2"
        version="1.1">
  <metadata
          id="metadata8">
  </metadata>
  <defs
     id="defs6" />
  <g
     transform="translate(-23.220947,-6.0943906)"
     id="g10"
  >
    <g
       transform="translate(-5.6211895,-2.6232216)"
       id="g837">
      <path
         id="path865"
         d="m 312.58637,27.253041 c -0.13582,-0.135827 -3.13582,-0.461861 -6.66666,-0.724519 -3.53084,-0.262658 -7.89669,-0.69448 -9.70188,-0.959604 -1.8052,-0.265125 -3.08567,-0.164091 -2.84549,0.224519 C 293.61251,26.182047 292.76996,26.5 291.5,26.5 c -1.26996,0 -2.12996,-0.289727 -1.9111,-0.643838 C 290.14677,24.953497 242.50373,23.053619 205.5,22.502919 192.85,22.314659 176.425,21.887164 169,21.552931 161.575,21.218699 140.65,20.739826 122.5,20.48877 104.35,20.237713 88.15,19.772732 86.5,19.455477 84.85,19.138222 84.019605,19.243454 84.654679,19.689325 85.289752,20.135196 82.522124,20.5 78.504395,20.5 74.486666,20.5 71.357516,20.24114 71.550729,19.924755 71.743942,19.60837 66.18657,19.296922 59.201013,19.232649 52.215456,19.168376 42.225,19.076052 37,19.027486 c -5.797609,-0.05389 -8.915412,-0.421103 -8,-0.942237 0.825,-0.469663 17.475,-1.133771 37,-1.475795 19.525,-0.342024 48.55,-0.911556 64.5,-1.265628 15.95,-0.354072 36.08662,-0.68878 44.74804,-0.743796 8.66142,-0.05502 15.74888,-0.32503 15.7499,-0.60003 0.001,-0.275 7.08942,-0.531211 15.75197,-0.569358 14.85525,-0.06542 26.27947,-0.42253 66.75009,-2.086557 9.35,-0.384443 18.4625,-0.731635 20.25,-0.771536 1.7875,-0.0399 3.25,-0.310069 3.25,-0.600371 0,-0.2903021 3.0375,-0.5006951 6.75,-0.4675401 3.7125,0.033155 7.68885,-0.2526852 8.83633,-0.6352003 1.26827,-0.4227796 3.76175,0.054625 6.3592,1.2175404 4.94052,2.211935 5.41141,2.299578 4.50884,0.839197 -0.45832,-0.741578 -0.0898,-0.777676 1.19099,-0.116671 5.40359,2.788711 7.44514,3.40635 9.78249,2.959536 C 335.84253,13.498607 337,13.69715 337,14.210237 c 0,0.513092 1.0125,0.850879 2.25,0.750638 1.2375,-0.100242 2.475,-0.09802 2.75,0.0049 1.23617,0.462828 4.07907,0.800761 11.94145,1.419472 4.6428,0.365353 8.67977,0.902593 8.97104,1.193866 0.90839,0.908388 -2.143,2.261614 -4.2045,1.864606 -1.07936,-0.207866 -2.85952,0.102147 -3.95591,0.688918 -1.52669,0.817058 -1.81552,0.778976 -1.23356,-0.162646 0.49526,-0.801344 0.2761,-1.053734 -0.62932,-0.724768 -0.76406,0.277603 -1.25131,1.087155 -1.08278,1.799005 0.21409,0.904258 -0.0872,1.00303 -1,0.327777 -1.0934,-0.808904 -7.10683,-1.051636 -8.80642,-0.355472 -0.275,0.112642 -1.5125,0.122789 -2.75,0.02255 -1.2375,-0.100241 -2.25,0.260323 -2.25,0.801253 0,0.54093 -1.19136,0.852731 -2.64747,0.692891 -1.45611,-0.15984 -4.26861,0.188249 -6.25,0.773532 -1.98139,0.585283 -3.82753,1.115307 -4.10253,1.177832 -2.3287,0.529457 -5,1.775756 -5,2.332755 0,0.62035 -5.83273,1.016546 -6.41363,0.435653 z M 218.8125,12.316886 c 0.72187,-0.288871 1.58437,-0.253344 1.91667,0.07895 0.33229,0.332292 -0.25834,0.568641 -1.3125,0.52522 -1.16495,-0.04798 -1.4019,-0.284941 -0.60417,-0.604167 z M 329,11.5 c -1.375,-0.786021 -2.05,-1.429129 -1.5,-1.429129 0.55,0 2.125,0.643108 3.5,1.429129 1.375,0.786021 2.05,1.429129 1.5,1.429129 -0.55,0 -2.125,-0.643108 -3.5,-1.429129 z"
         style="fill:#fcedfd" />
      <path
         id="path863"
         d="M 304,25.944045 C 270.73292,23.226329 119.04398,19.011706 54.190983,19.003191 38.240408,19.001097 30.094472,18.656159 30.5,18 c 0.385368,-0.623539 10.10145,-1.002634 25.809017,-1.006996 65.256143,-0.01812 213.092753,-4.145756 248.951903,-6.950799 9.27826,-0.7257817 11.41387,-0.5947721 15.5,0.950853 5.7348,2.169254 20.57695,4.747492 32.48908,5.643695 C 358.0625,16.998819 362,17.61228 362,18 c 0,0.38772 -3.9375,1.00484 -8.75,1.371378 -11.51605,0.877106 -25.36223,3.308939 -32.46845,5.702498 -3.14515,1.059368 -6.07015,1.863155 -6.5,1.786192 C 313.8517,26.783106 309.225,26.370896 304,25.944045 Z"
         style="fill:#e7d4fc" />
      <path
         id="path861"
         d="M 313.91667,26.62578 C 311.52693,24.47949 128.9305,19.085031 55,18.976587 40.770912,18.955715 30.162995,18.569436 31,18.102644 c 0.825,-0.460096 25.575,-1.128883 55,-1.486192 93.2093,-1.131847 187.50677,-3.937426 220.5,-6.560411 7.41091,-0.5891728 9.95088,-0.3937218 14.38544,1.106962 6.78181,2.295011 20.01656,4.601312 31.36456,5.465619 4.8125,0.366538 8.75,0.98548 8.75,1.375426 0,0.389946 -4.16047,1.023067 -9.2455,1.406936 -10.48884,0.791803 -26.12765,3.674325 -32.63023,6.014357 -4.91641,1.769232 -4.64417,1.706476 -5.2076,1.200439 z"
         style="fill:#d9c7f5" />
      <path
         id="path859"
         d="M 292.48063,24.995839 C 263.93066,22.984381 175.17285,20.405017 98.790492,19.367067 70.900262,18.988071 48.268983,18.373794 48.498759,18.002008 48.728535,17.630222 71.772814,17.02071 99.708267,16.647536 177.76083,15.604877 253.76553,13.381682 297.12304,10.873005 c 17.47028,-1.0108348 20.10322,-0.9571591 24,0.489271 5.30047,1.967459 19.56506,4.487232 30.12696,5.321787 4.2625,0.336805 7.75,0.89987 7.75,1.251257 0,0.351387 -5.31058,1.197411 -11.80129,1.880053 -6.49072,0.682641 -15.37822,2.189856 -19.75,3.349366 -9.0982,2.413073 -19.19976,2.94204 -34.96808,1.8311 z"
         style="fill:#c9b4f2" />
      <path
         id="path857"
         d="M 292.61622,24.931523 C 265.30846,22.976939 175.29047,20.385922 99.165729,19.363374 70.931881,18.984122 48.431881,18.357057 49.165729,17.969896 49.899578,17.582735 73.225,16.97247 101,16.613751 180.85449,15.582416 254.98166,13.41269 296.8554,10.881 c 17.44187,-1.0545372 18.71097,-1.0063852 25.5,0.967517 C 330.17034,14.120704 348.34825,17 354.87834,17 c 7.44099,0 4.30766,1.690649 -4.36946,2.357624 -9.13804,0.702406 -26.24172,3.784708 -30.82398,5.554878 -3.09883,1.197106 -10.53647,1.202332 -27.06868,0.01902 z"
         style="fill:#b8a2e8" />
      <path
         id="path855"
         d="M 304.91667,25.606353 C 304.6875,25.389848 297.075,24.914163 288,24.549276 278.925,24.18439 269.7,23.71732 267.5,23.511344 265.3,23.305369 253.375,22.861617 241,22.525229 228.625,22.188841 214.9,21.725706 210.5,21.49604 206.1,21.266374 185.625,20.760802 165,20.372547 144.375,19.984291 124.575,19.593325 121,19.503733 117.425,19.41414 99.425,19.250465 81,19.14001 62.327523,19.028071 48.163919,18.568116 49,18.100827 c 0.825,-0.461096 26.025,-1.13963 56,-1.507854 29.975,-0.368225 59.9,-0.855424 66.5,-1.082666 6.6,-0.227243 23.025,-0.668948 36.5,-0.981567 31.1291,-0.722195 41.91154,-1.147109 82.5,-3.25116 22.10813,-1.146056 27.16321,-0.928801 36,1.547192 4.4,1.232843 13.5125,2.773819 20.25,3.424392 C 358.80029,17.41274 363.28959,19 354.53027,19 c -6.67618,0 -25.14957,2.935016 -32.0058,5.08502 -5.28507,1.657314 -16.4434,2.621405 -17.6078,1.521333 z"
         style="fill:#b39ce7" />
      <path
         id="path853"
         d="M 306.91667,25.622407 C 306.6875,25.414731 299.975,24.957398 292,24.606112 c -7.975,-0.351286 -18.1,-0.851406 -22.5,-1.111377 -11.332,-0.669546 -32.02385,-1.35122 -61,-2.009589 -13.75,-0.312415 -29.05,-0.757967 -34,-0.990116 -4.95,-0.23215 -35.47411,-0.737623 -67.83136,-1.123274 C 74.311384,18.986105 48.436384,18.354802 49.168635,17.968861 49.900886,17.58292 76.15,16.970053 107.5,16.606933 c 31.35,-0.363119 62.4,-0.850537 69,-1.08315 6.6,-0.232614 22.575,-0.690967 35.5,-1.018562 25.58867,-0.648567 60.36858,-2.035843 81.25805,-3.241163 C 311.57105,10.207401 317.6247,10.424912 324,12.36863 330.84399,14.455245 347.32419,17 353.99342,17 356.74704,17 359,17.45 359,18 c 0,0.55 -2.3625,1.002397 -5.25,1.005327 -6.49616,0.0066 -27.04791,3.4124 -32.9087,5.453585 -3.91374,1.36307 -12.87788,2.112084 -13.92463,1.163495 z"
         style="fill:#b4a5cf" />
      <path
         id="path851"
         d="M 296.84541,24.944869 C 268.41769,22.901964 186.41543,20.415464 112.57878,19.357474 86.22211,18.979815 65.52211,18.360808 66.578781,17.981902 67.635451,17.602997 89.425,16.995919 115,16.632839 c 75.11299,-1.066355 148.25736,-3.330451 184.5803,-5.713461 14.98636,-0.9831984 16.48302,-0.9202944 22,0.924654 C 327.67868,13.883405 346.38681,17 352.53027,17 354.43862,17 356,17.45 356,18 c 0,0.55 -1.75528,1 -3.90063,1 -5.34114,0 -25.86196,3.579859 -31.22313,5.446877 -4.68725,1.632323 -7.44964,1.689569 -24.03083,0.497992 z"
         style="fill:#9685b8" />
      <path
         id="path849"
         d="M 306.5,25.531405 C 302.24166,23.868006 144.64286,19.134041 86,18.908008 74.725,18.86455 66.4,18.477417 67.5,18.047712 68.6,17.618007 78.275,17.202706 89,17.12482 c 62.0649,-0.45072 175.15066,-3.78443 211.05462,-6.221781 14.61452,-0.9921111 15.92252,-0.9319938 21.64178,0.994685 3.34794,1.127839 11.64836,2.779445 18.44538,3.670236 16.6732,2.185125 18.25858,2.962237 7.7781,3.812618 -4.70036,0.381385 -13.24271,1.844891 -18.983,3.252236 -9.87366,2.420724 -20.23385,3.759143 -22.43688,2.898591 z"
         style="fill:#9077c9" />
      <path
         id="path847"
         d="M 309.91667,25.623601 C 309.6875,25.416581 302.75,24.951055 294.5,24.589099 286.25,24.227142 277.7,23.737756 275.5,23.501574 273.3,23.265392 262.95,22.827149 252.5,22.5277 242.05,22.228251 227.425,21.747993 220,21.46046 194.52538,20.473955 121.48823,19.000653 93.5,18.908708 78.1,18.858117 66.4,18.466446 67.5,18.038329 68.6,17.610211 81.425,17.197402 96,17.120974 c 65.13695,-0.341562 191.9959,-4.299832 213.56594,-6.663712 3.68836,-0.404211 7.35941,0.101624 13.5,1.860167 4.63873,1.328442 12.93406,2.964204 18.43406,3.635027 14.9073,1.81821 16.10283,2.313594 7.5,3.107721 -9.45592,0.872876 -23.57366,3.525297 -29.05249,5.458343 -3.93292,1.387616 -9.08925,1.955679 -10.03084,1.105081 z"
         style="fill:#8b78b5" />
      <path
         id="path845"
         d="M 300.5,24.947797 C 273.67306,22.905485 196.31613,20.414072 127.07656,19.362395 102.09367,18.982931 82.518674,18.361679 83.576564,17.981835 84.634454,17.60199 105.525,16.987263 130,16.615774 c 71.08485,-1.078946 145.14223,-3.506371 173.22676,-5.67796 10.8797,-0.841254 13.27438,-0.754778 16.5,0.595842 C 323.88992,13.276841 344.23634,17 349.59937,17 351.46972,17 353,17.45 353,18 c 0,0.55 -1.4088,1 -3.13067,1 -5.4343,0 -22.80657,3.08613 -28.60804,5.082127 -3.06591,1.05483 -6.74144,1.852418 -8.16784,1.772417 C 311.66705,25.774543 306,25.366507 300.5,24.947797 Z"
         style="fill:#6d4bca" />
      <path
         id="path843"
         d="m 310,25.006275 c 0,-0.546549 1.0059,-0.840215 2.23533,-0.652591 1.22943,0.187625 4.49193,-0.296424 7.25,-1.075662 2.75807,-0.779239 6.58967,-1.860334 8.51467,-2.402435 3.31151,-0.932556 11.28631,-2.286151 20.75,-3.521982 2.76201,-0.360681 4.25,-0.169623 4.25,0.545701 C 353,18.504688 351.5912,19 349.86933,19 c -5.4343,0 -22.80657,3.08613 -28.60804,5.082127 C 315.21562,26.162144 310,26.590159 310,25.006275 Z M 285.5,24 c -9.98386,-0.611678 -9.9774,-0.612789 4,-0.688019 7.7,-0.04144 15.35,0.268165 17,0.688019 3.62826,0.923235 -5.93089,0.923235 -21,0 z M 237,22 c -8.525,-0.318681 -14.375,-0.72734 -13,-0.908131 1.375,-0.180791 2.84334,-0.273476 3.26297,-0.205967 0.41963,0.06751 10.32101,0.138062 22.00305,0.156783 11.68205,0.01872 21.91371,0.459885 22.73703,0.980364 C 273.60514,23.03584 264.55015,23.029877 237,22 Z m -52,-2.028338 c 0,-0.949118 34.80231,-0.304042 35.91667,0.665731 C 221.14583,20.836827 213.15833,21 203.16667,21 191.38847,21 185,20.638376 185,19.971662 Z m -45.75903,-0.545967 c 0.6769,-0.676895 43.94812,-0.569938 44.62837,0.110311 C 184.12454,19.791203 174.05833,20 161.5,20 148.94167,20 138.9251,19.741563 139.24097,19.425695 Z M 83.5,18 c 1.1,-0.472686 14.15,-0.859429 29,-0.859429 15.94062,0 26.18079,0.352027 25,0.859429 -1.1,0.472686 -14.15,0.859429 -29,0.859429 -15.940623,0 -26.180787,-0.352027 -25,-0.859429 z M 141,16.715128 c 0.275,-0.249479 18.275,-0.688898 40,-0.976487 21.725,-0.287589 36.8,-0.21705 33.5,0.156754 -6.77968,0.767961 -74.27267,1.520699 -73.5,0.819733 z M 332,15.86072 c -8.26263,-1.698606 -9.23826,-1.955798 -8.85874,-2.335317 0.2075,-0.207493 5.0981,0.452589 10.868,1.46685 5.81535,1.022248 8.70806,1.832847 6.49074,1.818837 -2.2,-0.0139 -6.025,-0.441568 -8.5,-0.95037 z M 223.87696,14.719792 c 0.4309,-0.429114 6.82236,-0.652418 14.20325,-0.496231 L 251.5,14.507536 237.29675,15.003768 c -7.81179,0.272928 -13.8507,0.145139 -13.41979,-0.283976 z m 29.67555,-0.634829 C 253.08639,13.330771 256.15189,13 263.60765,13 c 5.89913,0 10.53818,0.171232 10.30902,0.380515 -0.22917,0.209283 -4.75398,0.697517 -10.05514,1.084963 -6.56688,0.479954 -9.85217,0.358691 -10.30902,-0.380515 z M 282.5,12.918108 l -6,-0.581893 6.5,-0.173281 c 3.575,-0.0953 11,-0.45859 16.5,-0.807302 5.5,-0.348711 9.69733,-0.30621 9.32739,0.09445 -1.01517,1.099484 -19.4997,2.130191 -26.32739,1.468028 z m 33.18926,-1.032198 c -0.9959,-0.5793 -2.44399,-0.810269 -3.21797,-0.513265 -0.77398,0.297004 -1.67321,0.10966 -1.99828,-0.416319 C 310.13998,10.417469 311.40984,10 313.38197,10 c 1.925,0 3.78265,0.45734 4.12811,1.016312 0.34546,0.558971 0.95601,0.813664 1.35676,0.565983 0.40076,-0.247681 1.38217,-0.03691 2.18091,0.468375 2.13353,1.349685 -3.02775,1.190989 -5.35849,-0.16476 z"
         style="fill:#6c51b5" />
      <path
         id="path841"
         d="m 315,25.064558 c 0,-0.792259 5.17122,-2.2113 5.80105,-1.591873 0.16557,0.162841 -1.07193,0.774695 -2.75,1.359675 C 316.37297,25.417341 315,25.521829 315,25.064558 Z m -23.5,-1.068064 c -4.35877,-0.594785 -3.85646,-0.702435 3.91667,-0.83939 4.90416,-0.08641 8.72916,0.0082 8.5,0.210236 -1.0266,0.905068 -7.85801,1.251216 -12.41667,0.629154 z m 14.25,0.341225 c 0.6875,-0.277412 1.8125,-0.277412 2.5,0 0.6875,0.277413 0.125,0.504386 -1.25,0.504386 -1.375,0 -1.9375,-0.226973 -1.25,-0.504386 z M 249,21.936383 c -2.49064,-0.322392 1.52807,-0.622679 9,-0.672499 7.425,-0.04951 13.05,0.06206 12.5,0.247929 -2.03901,0.689069 -17.15111,0.987494 -21.5,0.42457 z m -8.1875,-0.619497 c 0.72187,-0.288871 1.58437,-0.253344 1.91667,0.07895 0.33229,0.332292 -0.25834,0.568641 -1.3125,0.52522 -1.16495,-0.04798 -1.4019,-0.284941 -0.60417,-0.604167 z m 85,0 c 0.72187,-0.288871 1.58438,-0.253344 1.91667,0.07895 0.33229,0.332292 -0.25834,0.568641 -1.3125,0.52522 -1.16495,-0.04798 -1.4019,-0.284941 -0.60417,-0.604167 z M 185,20 c 0,-0.579259 2.84,-0.951615 6.75,-0.885001 6.25122,0.106502 6.45443,0.176136 2.75,0.94237 C 188.937,21.208036 185,21.184261 185,20 Z m 25.7277,0.278268 c 1.77523,-0.220912 4.92523,-0.224542 7,-0.0081 2.07476,0.216475 0.6223,0.397221 -3.2277,0.401658 -3.85,0.0044 -5.54754,-0.17268 -3.7723,-0.393592 z M 332.3375,19.78017 c 1.5893,-0.563001 3.21319,-0.62576 3.69155,-0.14267 0.47691,0.481621 -0.77613,0.925503 -2.8375,1.00517 -3.64417,0.140838 -3.65513,0.129768 -0.85405,-0.8625 z M 171.26903,19.307009 c 0.97297,-0.253543 2.32297,-0.236869 3,0.03705 0.67703,0.273923 -0.11903,0.481368 -1.76903,0.460988 -1.65,-0.02038 -2.20394,-0.244498 -1.23097,-0.498042 z m 6.48097,-0.01274 c 1.2375,-0.238353 3.2625,-0.238353 4.5,0 1.2375,0.238353 0.225,0.433369 -2.25,0.433369 -2.475,0 -3.4875,-0.195016 -2.25,-0.433369 z M 83.5,18 c 2.877995,-1.236717 28.5,-1.236717 28.5,0 0,0.626023 -5.70314,0.973715 -15.25,0.929715 C 87.29927,18.886158 82.26056,18.532606 83.5,18 Z m 44,0 c 0.33992,-0.55 3.17898,-0.968372 6.30902,-0.929715 4.1038,0.05068 5.13319,0.309975 3.69098,0.929715 -2.86048,1.229191 -10.75968,1.229191 -10,0 z M 343,18.606989 c 0,-0.216156 0.675,-0.652033 1.5,-0.968615 0.825,-0.316583 1.5,-0.139728 1.5,0.393011 C 346,18.564123 345.325,19 344.5,19 343.675,19 343,18.823145 343,18.606989 Z M 349,18 c 1.95653,-1.264409 4,-1.264409 4,0 0,0.55 -1.2375,0.993109 -2.75,0.984687 C 348.10706,18.972755 347.83113,18.755385 349,18 Z M 165.1375,16.529163 c 0.73489,-0.734882 34.72779,-0.99721 35.45141,-0.273583 0.35297,0.352971 -7.58565,0.665382 -17.64139,0.694245 -10.05574,0.02886 -18.07024,-0.160434 -17.81002,-0.420662 z m 43.45522,-0.679194 c 0.28892,-0.467483 3.08626,-0.814443 6.2163,-0.771022 6.57868,0.09126 5.95832,0.575964 -1.52531,1.191762 -2.86896,0.236076 -4.97991,0.04674 -4.69099,-0.42074 z M 337.25,16.310674 c 0.9625,-0.251527 2.5375,-0.251527 3.5,0 0.9625,0.251528 0.175,0.457323 -1.75,0.457323 -1.925,0 -2.7125,-0.205795 -1.75,-0.457323 z m -91.48834,-2.017935 c 1.24391,-0.239193 3.04391,-0.230112 4,0.02018 0.95609,0.250292 -0.0617,0.445996 -2.26166,0.434897 -2.2,-0.0111 -2.98225,-0.215885 -1.73834,-0.455078 z M 254,14.095157 c 0,-0.814991 7.90921,-0.333848 8.91667,0.54243 C 263.14583,14.836914 261.23333,15 258.66667,15 256.1,15 254,14.59282 254,14.095157 Z m 71.8125,0.221729 c 0.72187,-0.288871 1.58438,-0.253344 1.91667,0.07895 0.33229,0.332292 -0.25834,0.568641 -1.3125,0.52522 -1.16495,-0.04798 -1.4019,-0.284941 -0.60417,-0.604167 z m -30.43961,-2.023108 c 0.38842,-0.388422 3.72592,-0.776331 7.41667,-0.862019 4.696,-0.109027 5.80986,0.06746 3.71044,0.587908 -3.94407,0.97774 -12.02993,1.176931 -11.12711,0.274111 z m 20.65607,-0.254718 c -2.43943,-1.542741 -0.73873,-1.847159 2.47104,-0.442307 2.27445,0.995479 2.5163,1.320244 1,1.34283 -1.1,0.01638 -2.66197,-0.38885 -3.47104,-0.900523 z"
         style="fill:#6a4db9" />
      <path
         id="path839"
         d="m 296.8125,24.316886 c 0.72187,-0.288871 1.58438,-0.253344 1.91667,0.07895 0.33229,0.332292 -0.25834,0.568641 -1.3125,0.52522 -1.16495,-0.04798 -1.4019,-0.284941 -0.60417,-0.604167 z m -43,-2 c 0.72187,-0.288871 1.58437,-0.253344 1.91667,0.07895 0.33229,0.332292 -0.25834,0.568641 -1.3125,0.52522 -1.16495,-0.04798 -1.4019,-0.284941 -0.60417,-0.604167 z m -67.05084,-2.024147 c 1.24391,-0.239193 3.04391,-0.230112 4,0.02018 0.95609,0.250292 -0.0617,0.445996 -2.26166,0.434897 -2.2,-0.0111 -2.98225,-0.215885 -1.73834,-0.455078 z M 83.5,18 c 2.877995,-1.236717 28.5,-1.236717 28.5,0 0,0.626023 -5.70314,0.973715 -15.25,0.929715 C 87.29927,18.886158 82.26056,18.532606 83.5,18 Z M 349,18 c 1.95653,-1.264409 4,-1.264409 4,0 0,0.55 -1.2375,0.993109 -2.75,0.984687 C 348.10706,18.972755 347.83113,18.755385 349,18 Z M 188.75,15.337719 c 0.6875,-0.277412 1.8125,-0.277412 2.5,0 0.6875,0.277413 0.125,0.504386 -1.25,0.504386 -1.375,0 -1.9375,-0.226973 -1.25,-0.504386 z"
         style="fill:#6a549b" />
    </g>
  </g>
</svg>
