<?xml version="1.0" encoding="UTF-8" standalone="no"?>
<svg
   xmlns="http://www.w3.org/2000/svg"
   viewBox="0 0 332.94092 20.36187"
   height="20.36187"
   width="332.94092"
   id="svg2"
   version="1.1">
  <metadata
     id="metadata8">
    image/svg+xml
  </metadata>
  <defs
     id="defs6" />
  <g
     transform="translate(-9.2113738,-9.654197)"
     id="g10"
  >
    <g
       transform="translate(0,-0.78806872)"
       id="g837">
      <path
         id="path867"
         d="M 49.5,30.106099 C 45.038399,28.218139 40.180609,27 37.113261,27 35.328652,27 33.039333,26.556234 32.025886,26.013854 31.01244,25.471474 26.317023,24.97335 21.591628,24.906912 16.866233,24.840474 13,24.364514 13,23.849221 13,23.333929 12.259185,23.044553 11.353744,23.206163 10.448303,23.367773 9.5108026,22.9375 9.2704103,22.25 9.030018,21.5625 9.5458333,21 10.416667,21 11.2875,21 12,20.642871 12,20.206379 c 0,-0.436492 4.363731,-0.905032 9.69718,-1.0412 5.333449,-0.136168 10.263737,-0.717779 10.956195,-1.292469 0.692458,-0.574689 1.663671,-0.794799 2.158251,-0.489131 1.045648,0.646245 12.82155,-2.005955 15.525773,-3.496757 2.056939,-1.133962 34.522093,-0.923186 35.23403,0.228753 0.241717,0.391107 7.52453,0.786534 16.184031,0.878727 8.6595,0.09219 20.24454,0.515443 25.74454,0.940553 5.5,0.425111 20.35,0.891442 33,1.036291 24.9323,0.285488 27.16073,0.34069 54,1.337669 9.9,0.367748 37.8,0.939854 62,1.271348 66.02031,0.904352 67.28759,0.965578 65.1076,3.145575 -0.69606,0.696052 -33.15618,1.527142 -106.1076,2.716717 -71.11026,1.159552 -89.2274,1.548913 -96.5,2.073907 -4.125,0.297776 -16.725,0.773585 -28,1.057355 -11.275,0.283769 -22.75,0.874951 -25.5,1.313737 -6.871191,1.096359 -33.542985,1.258349 -36,0.218645 z M 48.507079,11.011454 c -0.350339,-0.56686 0.05106,-0.734507 0.940983,-0.393011 C 51.180479,11.283234 51.497449,12 50.059017,12 49.541476,12 48.843104,11.555154 48.507079,11.011454 Z"
         style="fill:#fdf2e8" />
      <path
         id="path865"
         d="M 49.5,28.969436 C 44.383482,27.144697 19.339951,23.156779 12.25,23.037768 11.0125,23.016996 10,22.585817 10,22.079594 c 0,-0.506223 3.0375,-1.206462 6.75,-1.556086 15.706465,-1.479154 32.428347,-4.498846 36.29722,-6.554671 0.850971,-0.452186 8.275971,-0.400859 16.5,0.114059 41.22042,2.58087 127.02558,5.013966 228.45278,6.47802 22.825,0.329468 41.8616,0.947144 42.30355,1.372613 0.9682,0.932077 -36.66736,1.856159 -81.68829,2.005729 -18.0866,0.06009 -33.1616,0.278857 -33.5,0.486153 -0.33839,0.207296 -15.91526,0.667478 -34.61526,1.022626 -18.7,0.355149 -37.375,0.823837 -41.5,1.041529 -4.125,0.217693 -15.825,0.661204 -26,0.98558 -18.14533,0.578468 -27.492198,0.999193 -45.5,2.048066 -21.923908,1.276968 -22.921997,1.257228 -28,-0.553776 z"
         style="fill:#feefd6" />
      <path
         id="path863"
         d="m 50,28.785498 c -5.889732,-2.07946 -28.732983,-5.773288 -35.75,-5.780892 -7.647983,-0.0083 -4.4555182,-1.693898 4.5,-2.375984 11.262337,-0.857783 25.328113,-3.295452 31.994148,-5.544747 4.401406,-1.485149 6.89228,-1.643844 15.5,-0.987513 36.643292,2.794018 184.585102,6.885503 249.446832,6.898712 13.30504,0.0027 24.42432,0.382464 24.7095,0.8439 0.28518,0.461436 -23.42576,1.14582 -52.69098,1.520853 C 191.33869,24.594815 78.587118,28.047729 58.5,30.379159 56.85,30.570668 53.025,29.85352 50,28.785498 Z"
         style="fill:#ead6cd" />
      <path
         id="path861"
         d="M 52.465039,29.500941 C 48.137648,27.602872 35.49103,25.124432 23.392382,23.803384 17.676572,23.179276 13,22.351343 13,21.963532 c 0,-0.387811 3.2625,-1.010424 7.25,-1.383584 10.273377,-0.961407 23.631188,-3.320305 30.301444,-5.351027 5.156866,-1.569978 7.426858,-1.62627 23.824259,-0.590798 35.173597,2.22116 116.917777,4.622983 203.124297,5.968236 23.65,0.369058 43.87324,0.987754 44.94053,1.374881 1.06729,0.387127 -17.60771,1.009279 -41.5,1.382561 C 177.60505,24.978267 74.901076,28.241545 58.5,30.431545 c -1.65,0.22032 -4.365733,-0.198451 -6.034961,-0.930604 z"
         style="fill:#f8d0ac" />
      <path
         id="path859"
         d="M 49.614948,28.437789 C 44.76536,26.597025 31.536415,24.258326 21.006108,23.380132 16.602749,23.012906 13,22.422951 13,22.069121 c 0,-0.35383 5.310583,-1.201852 11.801295,-1.884494 6.490712,-0.682641 15.378212,-2.214768 19.75,-3.404725 9.35314,-2.545832 15.996813,-2.677889 48.948705,-0.972956 41.3203,2.137913 156.65666,5.104746 204.5,5.260415 12.375,0.04027 23.4,0.459953 24.5,0.932639 1.19511,0.513558 -7.65864,0.891059 -22,0.938024 -45.45902,0.148869 -166.37531,3.15495 -204,5.071614 -38.222284,1.947106 -42.773786,1.98867 -46.885052,0.428151 z"
         style="fill:#d1b6a6" />
      <path
         id="path857"
         d="M 51.942854,29.106612 C 49.744265,27.7086 31.983359,24.273829 22.674557,23.446435 c -4.303993,-0.382552 -7.453993,-1.041729 -7,-1.464838 0.453994,-0.423108 5.369346,-1.284739 10.923005,-1.914735 5.553658,-0.629996 13.653658,-2.103192 18,-3.273769 9.540512,-2.569497 15.891098,-2.701698 48.902438,-1.01801 36.3075,1.851802 74.73744,2.986478 146.5,4.325535 34.925,0.651684 64.175,1.55696 65,2.011723 0.84875,0.467853 -4.79545,0.841314 -13,0.860174 -36.27705,0.08339 -162.35683,3.326926 -195.5,5.02944 -38.45351,1.975298 -43.010266,2.088268 -44.557146,1.104657 z"
         style="fill:#e7b687" />
      <path
         id="path855"
         d="M 53.926371,29.599448 C 52.833772,28.494639 37.459842,25.155935 28.5,24.077691 14.021802,22.335357 14.372211,22.399359 16,21.794596 16.825,21.488088 23.212063,20.502131 30.193474,19.603579 37.174884,18.705028 45.805823,17.0683 49.373337,15.966407 55.444813,14.091119 56.999628,14.029141 73.679864,14.997496 114.74745,17.381634 183.57797,19.448315 261,20.621902 c 23.375,0.354326 43.10019,0.960831 43.83376,1.347788 0.73356,0.386958 -18.39144,1.00713 -42.5,1.378161 C 214.47643,24.084375 197.03041,24.48348 145,26.032049 113.8705,26.95855 101.33943,27.5136 65.5,29.553418 c -6.05,0.344339 -11.258133,0.365053 -11.573629,0.04603 z"
         style="fill:#d9b38e" />
      <path
         id="path853"
         d="M 48.753516,28.006295 C 42.928074,26.056689 24.835779,23 19.121662,23 17.404748,23 16,22.64021 16,22.200467 c 0,-0.439743 4.893235,-1.343635 10.873856,-2.008649 5.980621,-0.665014 14.418121,-2.210909 18.75,-3.435321 C 54.507152,14.245619 57.213076,14.189652 89,15.859341 c 42.31938,2.222932 151.8409,5.127116 193.69098,5.136107 13.04358,0.0028 21.4286,0.389027 21.80902,1.004552 0.40475,0.654896 -6.90834,1.002867 -21.19098,1.008309 -24.67109,0.0094 -91.58315,1.437962 -140.80902,3.006253 -29.08432,0.9266 -49.825603,1.826679 -79.5,3.449943 -6.654154,0.363999 -9.747897,0.04734 -14.246484,-1.45821 z"
         style="fill:#c79766" />
      <path
         id="path851"
         d="M 50.5,28.378641 C 45.168836,26.379883 33.334152,24.158061 23.770386,23.360473 19.496674,23.004059 16,22.424771 16,22.073165 16,21.72156 21.0625,20.895308 27.25,20.237049 33.4375,19.578791 41.875,18.058724 46,16.859123 c 9.251051,-2.69032 9.568736,-2.693999 52.5,-0.608027 47.34497,2.300427 93.14696,3.603958 153.5,4.368631 27.775,0.351909 51.175,1.01775 52,1.479645 0.83829,0.469339 -11.95467,0.8895 -29,0.95245 -16.775,0.06195 -31.625,0.264827 -33,0.450835 -1.375,0.186008 -18.7,0.602084 -38.5,0.924614 -52.45379,0.85444 -102.92668,2.635329 -141.5,4.992695 -5.206286,0.318177 -8.723314,-2.9e-4 -11.5,-1.041325 z"
         style="fill:#b99069" />
      <path
         id="path849"
         d="M 50.5,28.382755 C 45.715992,26.584216 35.046626,24.473304 25.736098,23.483268 22.015952,23.087686 18.775388,22.445587 18.534845,22.05638 18.294302,21.667173 22.777864,20.804679 28.498316,20.139726 34.218769,19.474773 42.184333,17.973865 46.19957,16.804375 55.230857,14.173896 55.66445,14.169326 98.5,16.2531 c 42.13183,2.049542 90.57931,3.487115 146.5,4.347066 22.825,0.351004 42.175,1.020875 43,1.488603 0.8736,0.495283 -5.18155,0.864934 -14.5,0.885184 -46.72861,0.10155 -171.2032,3.901301 -212,6.471581 -4.75317,0.299459 -8.283903,-0.04167 -11,-1.062779 z"
         style="fill:#cb9155" />
      <path
         id="path847"
         d="M 49.301858,27.938104 C 46.44288,26.899771 38.56788,25.279371 31.801858,24.337215 25.035836,23.395058 19.162689,22.348946 18.75042,22.012522 18.338152,21.676097 22.840531,20.862692 28.755709,20.204955 34.670887,19.547218 42.658197,18.027976 46.505289,16.828863 54.352124,14.383054 56.562928,14.326651 84,15.872279 c 38.3716,2.161609 142.71296,5.099567 182.5,5.138683 11.17674,0.01099 20.66174,0.447315 21.5,0.989038 0.9956,0.643404 -5.39352,0.975806 -19,0.988501 -48.91071,0.04563 -170.23084,3.783304 -208.5,6.423535 -4.239468,0.292485 -7.52525,-0.139999 -11.198142,-1.473932 z"
         style="fill:#a87849" />
      <path
         id="path845"
         d="M 51.5,28.364929 C 46.763557,26.603373 36.772565,24.48224 28.75,23.535001 25.5875,23.161598 23,22.466041 23,21.989317 c 0,-0.476724 2.1375,-1.138774 4.75,-1.471223 9.752971,-1.241095 17.912999,-2.867019 23.25,-4.632674 4.810688,-1.591533 6.941288,-1.703702 17,-0.894993 26.907378,2.16332 176.44044,6.922587 192.75,6.134754 2.3375,-0.112913 4.25,0.191811 4.25,0.677165 0,1.011929 2.2733,0.92604 -59,2.229093 -67.77661,1.441353 -124.365238,3.535258 -145.5,5.383823 -3.020334,0.264175 -6.583733,-0.151687 -9,-1.050333 z"
         style="fill:#b5742b" />
      <path
         id="path843"
         d="M 49.5,27.048374 C 46.75,26.016104 40.560123,24.636111 35.744718,23.981722 26.622996,22.742127 23.100843,21.004072 29.690983,20.994423 31.785942,20.991356 35.075,20.596131 37,20.116145 c 1.925,-0.479985 6.2,-1.453002 9.5,-2.16226 3.3,-0.709258 6.560446,-1.717429 7.245436,-2.24038 0.716677,-0.547142 4.749972,-0.682249 9.5,-0.318229 C 67.785446,15.7432 80.5,16.468523 91.5,17.007104 c 11,0.538581 24.275,1.19887 29.5,1.467309 5.225,0.268439 21.425,0.788538 36,1.155775 14.575,0.367236 29.425,0.783359 33,0.924718 3.575,0.141358 16.2875,0.330293 28.25,0.419855 12.64544,0.09467 21.75,0.552641 21.75,1.09404 0,0.547421 -9.78816,0.951345 -23.75,0.980081 -13.0625,0.02689 -27.125,0.250366 -31.25,0.496624 -4.125,0.246259 -23.025,0.903904 -42,1.461435 -30.49916,0.896138 -44.022628,1.47869 -79.5,3.424634 -7.232466,0.396702 -9.981964,0.125052 -14,-1.383201 z"
         style="fill:#c47213" />
      <path
         id="path841"
         d="m 53,28.014614 c -1.176214,-0.748668 -0.790969,-1.097629 1.784722,-1.616631 3.777564,-0.761179 3.622657,-1.413588 -0.446418,-1.88015 -1.561067,-0.178992 -3.523582,0.283505 -4.361143,1.027773 -1.513185,1.344635 -4.133439,0.616069 -4.162571,-1.157409 -0.008,-0.488509 -0.495763,-0.750306 -1.083863,-0.581773 -0.657281,0.188359 -0.60691,-0.250688 0.130731,-1.139491 1.379585,-1.662299 12.0051,-1.3439 15.377184,0.460784 1.401199,0.749899 2.293946,0.739695 3.068717,-0.03508 C 63.908312,22.491688 65.188826,22 66.152947,22 68.279224,22 73,19.938933 73,19.010611 73,17.88729 62.221617,17.832399 61.529545,18.952195 60.688415,20.313172 51,20.324785 51,18.964816 c 0,-0.684271 -0.714365,-0.652867 -2.107359,0.09264 -1.39283,0.74542 -2.443534,0.79165 -3.098837,0.136347 -1.108601,-1.108601 4.503031,-2.746418 6.077012,-1.773644 0.505788,0.312594 1.177644,-0.104063 1.493014,-0.925904 0.669056,-1.74353 6.180801,-2.040076 7.202153,-0.387493 0.389808,0.630723 0.952841,0.71516 1.309017,0.19631 0.367204,-0.534915 5.73207,-0.593429 13.006569,-0.14186 C 87.379015,16.936999 92.386887,18 83.544222,18 c -4.163674,0 -4.624987,0.197758 -3.532373,1.514277 1.290091,1.554465 8.983784,1.739962 8.986686,0.216671 8.06e-4,-0.422979 1.238965,-0.460835 2.751465,-0.08413 2.441734,0.608148 2.601522,0.504655 1.425448,-0.92324 -1.199936,-1.456869 -0.63545,-1.57302 6,-1.234589 4.028502,0.205468 10.573232,0.469828 14.543842,0.587467 3.97062,0.117639 7.02094,0.534846 6.77849,0.927126 -0.52073,0.842564 -14.21173,0.48397 -20.11813,-0.526932 -2.345517,-0.401443 -4.37263,-0.29703 -4.706015,0.242399 -0.322112,0.521188 -0.04295,1.005515 0.620354,1.076283 2.152488,0.22965 9.141091,1.200963 11.706011,1.626963 1.375,0.22837 3.4,0.458667 4.5,0.511772 1.66459,0.08036 1.74844,0.259123 0.5,1.065929 -0.90129,0.58246 -1.02463,0.975486 -0.30902,0.984687 0.65504,0.0084 1.44861,-0.401534 1.76349,-0.911014 0.3392,-0.548844 1.79738,-0.575035 3.57831,-0.06427 1.65319,0.47413 2.77471,0.488131 2.49226,0.03111 -0.7075,-1.144755 1.92823,-2.026903 6.30675,-2.110798 2.86989,-0.05499 3.23295,-0.244076 1.66821,-0.868835 -1.13245,-0.452158 2.79879,-0.697272 9.06283,-0.56507 6.08455,0.128414 12.03782,0.75528 13.22948,1.393037 1.19717,0.640706 3.36121,0.859741 4.83632,0.489512 1.86907,-0.469105 2.45915,-0.329411 1.96767,0.46582 C 156.82389,23.093969 147,23.020702 147,21.765152 147,21.344318 146.52344,21 145.94098,21 c -0.58246,0 -0.78905,0.436807 -0.4591,0.970683 1.01471,1.641831 -10.00541,3.300242 -12.67119,1.906882 -1.03277,-0.539808 -1.93068,-0.492433 -2.31036,0.121897 -0.3532,0.5715 -2.26593,0.741843 -4.43509,0.394979 -2.34879,-0.375586 -4.07706,-0.184331 -4.49866,0.497834 C 120.69062,26.309597 103,26.41224 103,25 c 0,-0.55 -0.6375,-1 -1.41667,-1 -0.77916,0 -1.56666,-0.394823 -1.749997,-0.877384 C 99.65,22.640055 97.25,21.985649 94.5,21.66838 c -4.541451,-0.52395 -4.821391,-0.443055 -3.052457,0.882073 1.071149,0.80241 2.769953,1.197904 3.775121,0.878876 1.172625,-0.372177 1.728981,-0.125002 1.552456,0.689716 -0.152302,0.702923 1.064126,1.573073 2.72488,1.949194 1.90188,0.43073 0.381652,0.6341 -4.153185,0.555594 -3.934252,-0.06811 -6.946035,-0.459973 -6.692851,-0.87081 0.253183,-0.410837 -0.741748,-0.289946 -2.21096,0.268647 -2.132222,0.810669 -2.565781,0.740665 -2.148443,-0.346899 0.377591,-0.983988 -0.146336,-1.2346 -1.885856,-0.90207 C 81.083917,25.02595 80,25.855695 80,26.616577 c 0,1.039914 -1.676048,1.386814 -6.75,1.397078 -3.7125,0.0075 -7.875,0.263471 -9.25,0.568802 -1.963275,0.435964 -2.159624,0.334792 -0.914572,-0.471245 0.871986,-0.564517 3.241178,-1.137903 5.264871,-1.274192 2.032631,-0.13689 3.516531,-0.715335 3.315453,-1.292408 C 71.282085,24.443529 64.856406,24.714078 64,25.867374 63.198142,26.947211 58.060217,29.001388 56.202947,28.984687 55.266326,28.976265 53.825,28.539732 53,28.014614 Z M 80,23.386501 C 80,22.468595 78.817106,22 76.5,22 73.339442,22 71.874237,23.540903 73.494309,25.160976 74.535915,26.202582 80,24.712213 80,23.386501 Z m 29.75,0.924173 c -0.9625,-0.251527 -2.5375,-0.251527 -3.5,0 -0.9625,0.251528 -0.175,0.457323 1.75,0.457323 1.925,0 2.7125,-0.205795 1.75,-0.457323 z m 26.44335,-2.517322 c -0.5395,-0.539502 -1.81621,-0.765912 -2.83713,-0.503134 -1.49271,0.384214 -1.40404,0.500496 0.4528,0.593781 1.47356,0.07403 2.05085,0.533727 1.59549,1.270509 -0.45995,0.744214 -0.27227,0.881795 0.52811,0.387133 0.81166,-0.501629 0.90195,-1.107072 0.26073,-1.748289 z M 126.25,22.337719 c -0.6875,-0.277412 -1.8125,-0.277412 -2.5,0 -0.6875,0.277413 -0.125,0.504386 1.25,0.504386 1.375,0 1.9375,-0.226973 1.25,-0.504386 z m 17,-1 c -0.6875,-0.277412 -1.8125,-0.277412 -2.5,0 -0.6875,0.277413 -0.125,0.504386 1.25,0.504386 1.375,0 1.9375,-0.226973 1.25,-0.504386 z M 56.5,17 c 0.339919,-0.55 -0.110081,-1 -1,-1 -0.889919,0 -1.339919,0.45 -1,1 0.339919,0.55 0.789919,1 1,1 0.210081,0 0.660081,-0.45 1,-1 z m 94.5,7.120647 c 0,-0.370425 1.71259,-0.510177 3.80576,-0.310561 2.6493,0.252651 4.22008,-0.136301 5.16927,-1.279999 0.74993,-0.903614 0.94984,-1.546103 0.44424,-1.427753 -0.5056,0.118351 -1.59427,-0.06191 -2.41927,-0.40058 -0.825,-0.33867 -2.625,-0.807607 -4,-1.042083 -1.375,-0.234475 0.15351,-0.253823 3.39669,-0.043 3.24318,0.210828 11.11818,0.42818 17.5,0.483004 6.39952,0.05498 10.48212,0.416658 9.10331,0.80647 l -2.5,0.706791 2.5,0.760831 c 1.375,0.418457 2.05,0.918567 1.5,1.111356 -1.98039,0.694176 -34.5,1.293214 -34.5,0.635519 z m 25,-2.051646 c 0,-1.130838 -9.91508,-1.015417 -10.61904,0.123616 C 165.10651,22.636678 167.38352,23 170.44098,23 173.49844,23 176,22.581051 176,22.069001 Z M 31.136836,22.664877 c -1.06243,-1.280149 -0.925421,-1.422351 0.908371,-0.942804 1.265936,0.33105 2.501307,0.01168 2.985538,-0.771819 0.672611,-1.088308 1.334907,-1.104682 3.56593,-0.08816 2.572713,1.172207 2.653358,1.138228 1.321614,-0.556855 -1.292692,-1.645375 -1.264445,-1.684638 0.318976,-0.443363 0.955496,0.749031 2.530496,1.085427 3.5,0.747546 1.489473,-0.519095 1.461818,-0.381417 -0.178395,0.888124 C 42.491249,22.323896 40.859999,23 39.93387,23 c -0.926128,0 -3.002826,0.263791 -4.614883,0.586203 -1.972415,0.394483 -3.340203,0.09316 -4.182151,-0.921326 z M 26.5,22 c -0.339919,-0.55 -0.168034,-1 0.381966,-1 0.55,0 1.278115,0.45 1.618034,1 0.339919,0.55 0.168034,1 -0.381966,1 -0.55,0 -1.278115,-0.45 -1.618034,-1 z m 166.09213,-0.620518 c -0.49467,-1.289075 -0.15863,-1.496397 1.64301,-1.013655 1.24567,0.333775 3.61486,0.657864 5.26486,0.720198 2.94686,0.111328 2.95572,0.127517 0.5,0.913975 -4.11484,1.317804 -6.74873,1.097177 -7.40787,-0.620518 z M 208.5,22 c -0.38934,-0.62997 1.71649,-0.963115 5.69098,-0.90032 4.67507,0.07386 5.66156,0.307034 3.80902,0.90032 -3.62318,1.160345 -8.78287,1.160345 -9.5,0 z M 230,21.98163 c 0,-0.57897 2.15736,-0.942011 5,-0.841399 2.75,0.09733 5,0.555598 5,1.018368 C 240,22.62137 237.75,23 235,23 c -2.75,0 -5,-0.458266 -5,-1.018368 z"
         style="fill:#bd7218" />
      <path
         id="path839"
         d="m 55.447214,28.08541 c 0.310886,-0.503024 -5.7e-5,-1.142498 -0.690983,-1.421052 -0.690927,-0.278555 -0.168731,-0.54199 1.160436,-0.585411 1.329166,-0.04342 2.156403,-0.33921 1.838303,-0.65731 -1.093603,-1.093604 -6.256346,-1.219133 -7.523728,-0.182935 -0.904993,0.739913 -1.788387,0.567064 -3.081151,-0.602872 -0.996817,-0.902106 -2.21104,-1.301712 -2.698275,-0.888012 -0.487234,0.4137 -0.324387,0.01441 0.361883,-0.88731 0.987311,-1.297272 2.52116,-1.550869 7.348314,-1.214923 3.355304,0.233512 6.989787,0.900472 8.076629,1.482132 1.401199,0.749899 2.293946,0.739695 3.068717,-0.03508 C 63.908312,22.491688 65.188826,22 66.152947,22 68.279224,22 73,19.938933 73,19.010611 73,17.88729 62.221617,17.832399 61.529545,18.952195 60.688415,20.313172 51,20.324785 51,18.964816 c 0,-0.713578 -0.600925,-0.713578 -1.934259,0 -2.856231,1.528609 -3.827577,1.257096 -1.452975,-0.40614 1.131777,-0.792728 3.594405,-1.360882 5.472506,-1.262564 2.253297,0.11796 3.329697,-0.242121 3.164728,-1.058676 C 55.95252,14.764985 59.610419,14.560628 60.5,16 c 0.355276,0.574849 6.438765,1.066793 14.309017,1.157104 8.475662,0.09726 11.818118,0.382956 8.774438,0.75 -4.138094,0.499021 -4.674119,0.792404 -3.385429,1.852945 1.60616,1.321806 8.79651,1.298028 8.799969,-0.0291 0.0011,-0.422979 1.239505,-0.460835 2.752005,-0.08413 2.479145,0.617465 2.614824,0.520849 1.377555,-0.980948 -1.744614,-2.117614 -0.264019,-2.150186 2.720359,-0.05985 1.261109,0.883315 3.948737,1.784909 5.972506,2.003541 2.02377,0.218631 4.80458,0.58436 6.17958,0.81273 1.375,0.22837 3.4,0.458667 4.5,0.511772 1.66459,0.08036 1.74844,0.259123 0.5,1.065929 -0.90129,0.58246 -1.02463,0.975486 -0.30902,0.984687 0.65504,0.0084 1.44861,-0.401534 1.76349,-0.911014 0.3392,-0.548844 1.79738,-0.575035 3.57831,-0.06427 1.65319,0.47413 2.77471,0.488131 2.49226,0.03111 -0.7075,-1.144755 1.92823,-2.026903 6.30675,-2.110798 2.86989,-0.05499 3.23295,-0.244076 1.66821,-0.868835 -1.13245,-0.452158 2.79879,-0.697272 9.06283,-0.56507 6.08455,0.128414 12.03782,0.75528 13.22948,1.393037 1.19166,0.637756 3.41338,0.865568 4.93717,0.506247 1.98303,-0.467613 2.48164,-0.341949 1.75421,0.442107 C 155.98784,23.449485 147,23.446169 147,21.833333 147,21.375 146.52344,21 145.94098,21 c -0.58246,0 -0.78905,0.436807 -0.4591,0.970683 1.01471,1.641831 -10.00541,3.300242 -12.67119,1.906882 -0.95387,-0.498571 -1.92321,-0.50452 -2.22658,-0.01366 -0.7796,1.261433 -29.59326,0.732328 -30.41446,-0.558501 C 99.801342,22.726462 97.25,21.991502 94.5,21.672156 c -4.540957,-0.527322 -4.821199,-0.446687 -3.052457,0.878297 1.071149,0.80241 2.683649,1.225296 3.583334,0.939747 1.022863,-0.324644 1.63579,0.0483 1.63579,0.99531 0,1.704666 0.162171,1.639588 -4.875307,1.956413 -2.039752,0.128288 -3.476535,-0.142303 -3.192851,-0.601313 0.283683,-0.45901 -0.686293,-0.377533 -2.155505,0.18106 -2.132222,0.810669 -2.565781,0.740665 -2.148443,-0.346899 0.377591,-0.983988 -0.146336,-1.2346 -1.885856,-0.90207 C 81.083917,25.02595 80,25.535073 80,25.904084 80,27.310269 72.174192,26.89632 71.623408,25.461001 71.228285,24.431326 70.161899,24.212684 67.788057,24.674637 65.979626,25.026559 64.275,25.590394 64,25.927602 62.354275,27.94561 54.273636,29.984299 55.447214,28.08541 Z M 80,23.386501 C 80,22.468595 78.817106,22 76.5,22 73.339442,22 71.874237,23.540903 73.494309,25.160976 74.535915,26.202582 80,24.712213 80,23.386501 Z m 56.19335,-1.593149 c -0.5395,-0.539502 -1.81621,-0.765912 -2.83713,-0.503134 -1.49271,0.384214 -1.40404,0.500496 0.4528,0.593781 1.47356,0.07403 2.05085,0.533727 1.59549,1.270509 -0.45995,0.744214 -0.27227,0.881795 0.52811,0.387133 0.81166,-0.501629 0.90195,-1.107072 0.26073,-1.748289 z M 126.25,22.337719 c -0.6875,-0.277412 -1.8125,-0.277412 -2.5,0 -0.6875,0.277413 -0.125,0.504386 1.25,0.504386 1.375,0 1.9375,-0.226973 1.25,-0.504386 z m 17,-1 c -0.6875,-0.277412 -1.8125,-0.277412 -2.5,0 -0.6875,0.277413 -0.125,0.504386 1.25,0.504386 1.375,0 1.9375,-0.226973 1.25,-0.504386 z M 30.654508,22.25 c -0.254939,-0.4125 0.731004,-0.789888 2.190984,-0.83864 1.459979,-0.04875 4.844377,-0.306008 7.520884,-0.57168 4.213776,-0.418263 4.623982,-0.305798 3.05887,0.83864 C 41.514818,23.075259 31.44319,23.526114 30.654508,22.25 Z M 159.62363,22.20004 c -0.27192,-0.439981 1.08832,-0.906556 3.02276,-1.036834 2.22308,-0.149716 3.2814,0.14462 2.87637,0.799965 -0.7534,1.219037 -5.18221,1.396868 -5.89913,0.236869 z M 176,22 c 0,-1.201226 4.7046,-1.201226 7.5,0 1.50483,0.646646 0.82396,0.876831 -2.75,0.929715 C 178.1375,22.968372 176,22.55 176,22 Z m 17,0 c 0,-0.55 2.1375,-0.955144 4.75,-0.90032 3.87148,0.08124 4.28762,0.247759 2.25,0.90032 -3.61366,1.157296 -7,1.157296 -7,0 z m 15.5,0 c -0.38934,-0.62997 1.71649,-0.963115 5.69098,-0.90032 4.67507,0.07386 5.66156,0.307034 3.80902,0.90032 -3.62318,1.160345 -8.78287,1.160345 -9.5,0 z M 105.8125,19.316886 c 0.72187,-0.288871 1.58437,-0.253344 1.91667,0.07895 0.33229,0.332292 -0.25834,0.568641 -1.3125,0.52522 -1.16495,-0.04798 -1.4019,-0.284941 -0.60417,-0.604167 z m 4.9375,0.02083 c 0.6875,-0.277412 1.8125,-0.277412 2.5,0 0.6875,0.277413 0.125,0.504386 -1.25,0.504386 -1.375,0 -1.9375,-0.226973 -1.25,-0.504386 z m 7.0625,-0.02083 c 0.72187,-0.288871 1.58437,-0.253344 1.91667,0.07895 0.33229,0.332292 -0.25834,0.568641 -1.3125,0.52522 -1.16495,-0.04798 -1.4019,-0.284941 -0.60417,-0.604167 z"
         style="fill:#c4720d" />
    </g>
  </g>
</svg>
