<?xml version="1.0" encoding="UTF-8" standalone="no"?>
<svg
   xmlns="http://www.w3.org/2000/svg"
   viewBox="0 0 390.97629 14.495059"
   height="14.495059"
   width="390.97629"
   id="svg2"
   version="1.1">
  <metadata
          id="metadata8">
    image/svg+xml
  </metadata>
  <defs
     id="defs6" />
  <g
     transform="translate(-24.408934,-16.485376)"
     id="g10"
  >
    <g
       transform="translate(-0.49619142,-6.9466802)"
       id="g837">
      <path
         id="path867"
         d="m 28.5,36.813057 c -2.925014,-1.670374 -3.467665,-2.842649 -3.484687,-7.527873 -0.01168,-3.215457 0.4638,-4.47123 2.005354,-5.296244 1.111366,-0.594786 2.573866,-0.735657 3.25,-0.313048 1.707939,1.067527 57.846108,1.736633 106.729333,1.272097 15.125,-0.143733 29.975,0.04586 33,0.421311 12.49903,1.55134 57.9083,1.860174 80,0.54409 22.21819,-1.32362 39.05434,-1.489935 113.5129,-1.12133 33.19259,0.164319 45.71746,0.838859 51.34972,2.765492 1.04984,0.359117 1.09608,0.787288 0.20145,1.865253 -0.79497,0.957877 -0.83049,1.603521 -0.11263,2.047184 3.14183,1.941757 -1.08307,2.396643 -21.86716,2.354389 -12.60365,-0.02562 -23.51615,0.329819 -24.25,0.789871 -0.73385,0.460053 -21.80928,0.905786 -46.83428,0.990519 -25.025,0.08473 -50,0.545823 -55.5,1.024646 -9.18123,0.799305 -51.72988,0.95335 -121.5,0.439883 -71.585911,-0.52683 -79.523476,-0.503699 -99.5,0.289952 -10.424385,0.414152 -15.610082,0.247541 -17,-0.546192 z"
         style="fill:#ebfdd7" />
      <path
         id="path865"
         d="M 183.58298,37.25 C 183.17029,36.8375 147.88279,36.5 105.16632,36.5 H 27.5 L 26.021749,32.22363 C 23.424588,24.710413 23.165182,24.789347 50.518497,24.769588 63.708324,24.76006 97.675,25.069486 126,25.457201 c 28.325,0.387715 68.825,0.677699 90,0.644408 170.62893,-0.268263 186.66151,-0.183807 192.70158,1.015097 6.45921,1.2821 7.49608,2.826002 1.9894,2.962241 -3.30992,0.08189 -3.18798,0.188634 1.80902,1.583582 3.55389,0.992093 -17.27178,1.691795 -95.5,3.208618 -29.975,0.581206 -59.9,1.494146 -66.5,2.028755 -14.25883,1.154986 -65.84175,1.424858 -66.91702,0.350098 z m 223.14619,-6.854167 c -0.33229,-0.332291 -1.1948,-0.367818 -1.91667,-0.07895 -0.79773,0.319226 -0.56078,0.556183 0.60417,0.604167 1.05416,0.04342 1.64479,-0.192928 1.3125,-0.52522 z m -4,-1 c -0.33229,-0.332291 -1.1948,-0.367818 -1.91667,-0.07895 -0.79773,0.319226 -0.56078,0.556183 0.60417,0.604167 1.05416,0.04342 1.64479,-0.192928 1.3125,-0.52522 z"
         style="fill:#d3f2c9" />
      <path
         id="path863"
         d="M 176,36.980496 C 166.925,36.511133 130.26541,36.30539 94.534248,36.523289 21.3354,36.969678 26,37.450966 26,29.452001 c 0,-2.568951 0.515323,-4.435771 1.308482,-4.740135 0.719666,-0.276162 5.332166,-0.08841 10.25,0.417224 5.827907,0.599206 12.075494,0.553057 17.941518,-0.132527 6.310174,-0.737493 13.333609,-0.73515 23.5,0.0078 8.837746,0.645889 25.62926,0.796894 43,0.386697 19.87039,-0.469223 34.25308,-0.272751 47.5,0.648867 24.92646,1.734189 64.00881,1.786272 94.5,0.125935 19.37209,-1.054868 36.84884,-1.12655 83.5,-0.34248 32.45,0.54539 60.8,1.38211 63,1.859377 5.9798,1.297257 2.5812,2.675575 -4.84594,1.96529 -4.00463,-0.382977 -5.45552,-0.274213 -4.15406,0.311403 1.1,0.494966 3.8,0.938458 6,0.985537 2.2,0.04708 4.62463,0.481162 5.38806,0.964629 0.82282,0.521073 -6.91434,0.857274 -19,0.825602 -11.21343,-0.02939 -24.15155,0.461926 -28.75137,1.091805 -5.1102,0.699769 -24.16988,1.15596 -49,1.172808 -22.35018,0.01516 -45.58669,0.460986 -51.63669,0.990712 -15.88206,1.390603 -69.21792,1.987188 -88.5,0.989912 z"
         style="fill:#caf1ab" />
      <path
         id="path861"
         d="M 178,36.93233 C 169.475,36.475419 132.58202,36.278016 96.015608,36.493657 21.167494,36.935054 26,37.421072 26,29.452001 c 0,-2.60085 0.513054,-4.434901 1.328103,-4.747664 0.730456,-0.280303 5.342956,-0.06762 10.25,0.472632 6.047415,0.665802 11.825822,0.64041 17.93518,-0.07881 6.219871,-0.732233 13.193111,-0.749366 22.5,-0.05528 7.770321,0.579491 26.838107,0.745858 44.986717,0.39251 24.25631,-0.472262 36.18468,-0.247901 51.87183,0.97566 25.70368,2.004827 51.37352,2.006684 85.12817,0.0062 20.20385,-1.197414 33.62772,-1.392879 56.5,-0.822694 16.5,0.411329 39.675,0.644946 51.5,0.519148 11.825,-0.125798 24.875,0.09782 29,0.496935 l 7.5,0.725658 -5,1.21308 c -4.32178,1.048535 -4.56717,1.229194 -1.80902,1.331875 1.75504,0.06534 3.4691,0.568794 3.80902,1.118794 0.398,0.643975 -3.40826,1.002921 -10.69098,1.008205 -6.21996,0.0045 -15.35902,0.48202 -20.30902,1.061128 -4.95,0.579108 -29.475,1.217077 -54.5,1.417709 -25.025,0.200632 -49.55,0.832805 -54.5,1.404829 -12.22336,1.412536 -64.4222,2.062964 -83.5,1.040459 z M 406.5,29 c -1.59711,-0.6863 -1.23269,-0.873588 1.80902,-0.929715 2.29986,-0.04244 3.56415,0.325919 3.19098,0.929715 -0.72994,1.181064 -2.25152,1.181064 -5,0 z"
         style="fill:#b7eb8c" />
      <path
         id="path859"
         d="M 181,36.950089 C 169.725,36.490541 131.03241,36.288413 95.016464,36.500914 21.285949,36.935939 26,37.417403 26,29.452001 c 0,-2.60085 0.513054,-4.434901 1.328103,-4.747664 0.730456,-0.280303 5.342956,-0.06762 10.25,0.472632 6.047415,0.665802 11.825822,0.64041 17.93518,-0.07881 6.219871,-0.732233 13.193111,-0.749366 22.5,-0.05528 7.770321,0.579491 26.838107,0.745858 44.986717,0.39251 24.25631,-0.472262 36.18468,-0.247901 51.87183,0.97566 25.85226,2.016415 50.93169,2.013007 85.38839,-0.0116 24.05653,-1.413517 54.7534,-1.393042 76.23978,0.05085 1.65,0.110881 15.15,0.355571 30,0.543757 14.85,0.188185 25.3125,0.518673 23.25,0.734417 C 387.6875,27.944213 386,28.516402 386,29 c 0,0.483598 1.6875,1.055787 3.75,1.271532 2.0625,0.215744 -0.75,0.478909 -6.25,0.584811 -5.5,0.105902 -11.8,0.604461 -14,1.107909 -7.27538,1.664896 -18.5681,2.135627 -60.5,2.521908 -22.825,0.210266 -44.65,0.824774 -48.5,1.365572 -10.21775,1.435259 -55.78733,2.064839 -79.5,1.098357 z"
         style="fill:#aad590" />
      <path
         id="path857"
         d="M 27.481242,34.669756 C 26.666559,33.506633 26,30.930756 26,28.945584 v -3.609403 l 73.25,0.287512 c 44.74596,0.175632 75.5848,0.691669 79.25,1.326118 7.99716,1.384316 58.86653,1.335799 79.097,-0.07544 11.40891,-0.795863 33.67968,-0.875059 76.01959,-0.270328 32.93588,0.470415 58.19591,1.004112 56.13341,1.185994 C 387.6875,27.971918 386,28.516402 386,29 c 0,0.483598 1.6875,1.055787 3.75,1.271532 2.0625,0.215744 -0.525,0.468438 -5.75,0.561543 -5.225,0.0931 -12.79506,0.797675 -16.82235,1.565713 -5.46744,1.042686 -18.00683,1.428181 -49.5,1.521763 -27.19683,0.08081 -45.19671,0.558488 -50.67765,1.34486 -8.85766,1.270843 -72.83852,1.695701 -111.5,0.740403 -11,-0.271802 -43.97094,-0.207784 -73.268758,0.142262 l -53.268759,0.636449 z"
         style="fill:#aaec75" />
      <path
         id="path855"
         d="M 27.481242,34.669756 C 26.666559,33.506633 26,30.93195 26,28.948238 v -3.60675 l 72.25,0.22976 c 50.91587,0.161917 74.72007,0.593362 80.61512,1.46113 6.25182,0.920286 17.87291,1.034807 46,0.453311 44.80488,-0.926291 87.09127,-1.155703 99.88488,-0.541896 6.71911,0.322367 9.25,0.801184 9.25,1.75 C 334,29.531243 332.68415,30 330.33333,30 c -4.38617,0 -4.0539,0.837128 0.46906,1.181766 1.75869,0.134007 3.19761,0.540678 3.19761,0.903712 0,1.105642 -8.38408,1.542873 -34,1.773108 -13.475,0.121113 -28.325,0.761589 -33,1.42328 -8.8542,1.253207 -73.17829,1.670851 -111.5,0.723948 -11,-0.271802 -43.97094,-0.207784 -73.268758,0.142262 l -53.268759,0.636449 z"
         style="fill:#9be26c" />
      <path
         id="path853"
         d="M 27.481242,34.669756 C 26.666559,33.506633 26,30.93195 26,28.948238 v -3.60675 l 72.25,0.22976 c 50.91587,0.161917 74.72007,0.593362 80.61512,1.46113 6.23979,0.918514 17.92707,1.03715 46,0.466939 61.56063,-1.250404 63.1046,-1.259333 62.54983,-0.361704 -0.29314,0.474313 1.40607,0.926244 3.77603,1.004292 4.30852,0.141889 4.30862,0.141976 0.80902,0.75 -3.59229,0.624129 -5.08279,2.820862 -2.85019,4.200682 0.69046,0.426727 -1.64829,0.748772 -5.19722,0.715654 C 280.40367,33.775124 273,34.367221 267.5,35.124014 c -10.40315,1.431459 -70.58045,1.905248 -112,0.8818 -11,-0.271802 -43.97094,-0.207784 -73.268758,0.142262 L 28.962483,36.784525 Z M 286.72917,31.395833 c -0.33229,-0.332291 -1.1948,-0.367818 -1.91667,-0.07895 -0.79773,0.319226 -0.56078,0.556183 0.60417,0.604167 1.05416,0.04342 1.64479,-0.192928 1.3125,-0.52522 z M 285.5,29 c -0.33992,-0.55 -1.06803,-1 -1.61803,-1 -0.55,0 -0.72189,0.45 -0.38197,1 0.33992,0.55 1.06803,1 1.61803,1 0.55,0 0.72189,-0.45 0.38197,-1 z m 6.3125,1.316886 c 0.72187,-0.288871 1.58438,-0.253344 1.91667,0.07895 0.33229,0.332292 -0.25834,0.568641 -1.3125,0.52522 -1.16495,-0.04798 -1.4019,-0.284941 -0.60417,-0.604167 z"
         style="fill:#90d26a" />
      <path
         id="path851"
         d="M 27.481242,34.669756 C 26.666559,33.506633 26,30.937117 26,28.959721 v -3.595267 l 68.75,0.310679 c 37.8125,0.170873 71.45,0.549718 74.75,0.841877 7.05156,0.624296 32.58859,1.449991 54.5,1.762162 L 239.5,28.5 l -0.20295,2.75 c -0.11162,1.5125 0.25244,2.75 0.80902,2.75 0.55658,0 0.73385,-0.45 0.39393,-1 -0.33992,-0.55 -0.029,-1.006891 0.69098,-1.015313 0.99167,-0.0116 0.96215,-0.234823 -0.12179,-0.920766 -1.05726,-0.669054 -0.45764,-1.088022 2.29662,-1.604725 2.0501,-0.3846 4.00646,-0.420256 4.34748,-0.07923 C 248.05432,29.720983 247.13333,30 245.66667,30 c -3.36245,0 -3.10681,2.308279 0.33333,3.009821 1.375,0.280401 2.3542,0.937831 2.176,1.460956 -0.1782,0.523125 0.4968,1.274577 1.5,1.669894 1.41303,0.556814 1.17681,0.734595 -1.04844,0.789044 -2.48948,0.06091 -2.70017,-0.137295 -1.58029,-1.486671 1.15187,-1.387917 0.70374,-1.487972 -4.12756,-0.921565 -2.98084,0.349466 -6.6954,1.12051 -8.25458,1.713433 -1.98831,0.756111 -14.38127,0.829772 -41.5,0.246667 -47.34788,-1.018071 -45.55474,-1.013415 -110.933888,-0.288054 l -53.268759,0.591 z m 210.280418,1.622983 c 1.24391,-0.239193 3.04391,-0.230112 4,0.02018 0.95609,0.250292 -0.0617,0.445996 -2.26166,0.434897 -2.2,-0.0111 -2.98225,-0.215885 -1.73834,-0.455077 z"
         style="fill:#83b970" />
      <path
         id="path849"
         d="m 27.718486,34.718486 c -1.26808,-1.26808 -1.737885,-2.969791 -1.525455,-5.525455 L 26.5,25.5 94,25.72788 c 37.125,0.125334 69.075,0.461747 71,0.747584 8.65541,1.285214 34.61725,2.480121 58,2.66948 14.025,0.113578 24.375,0.46493 23,0.780781 C 242.69846,30.684122 242.27735,33 245.44098,33 c 2.77124,0 4.17623,1.50051 2.42082,2.58541 -0.77784,0.480736 -0.90125,0.287445 -0.36768,-0.57589 0.61536,-0.995675 0.12543,-1.158814 -2.0955,-0.697773 -9.90045,2.05523 -35.24013,2.920281 -56.89862,1.942415 -12.65,-0.571138 -36.725,-0.7926 -53.5,-0.492137 -37.552992,0.672624 -36.435585,0.664097 -59,0.450269 -10.175,-0.09642 -24.788545,-0.05968 -32.474545,0.08165 -12.422894,0.228433 -14.178006,0.0535 -15.806969,-1.57546 z M 240.55279,33.08541 c -0.31089,-0.503024 -0.0227,-1.09544 0.64042,-1.316479 0.82097,-0.273657 0.72868,-0.584928 -0.28924,-0.975541 -0.98066,-0.376315 -1.54389,0.07656 -1.63729,1.31648 -0.0783,1.039571 0.30621,1.89013 0.85449,1.89013 0.54827,0 0.7425,-0.411565 0.43162,-0.91459 z"
         style="fill:#7ac55a" />
      <path
         id="path847"
         d="m 27.718486,34.718486 c -1.26808,-1.26808 -1.737885,-2.969791 -1.525455,-5.525455 L 26.5,25.5 93,25.713782 c 36.575,0.11758 69.2,0.536085 72.5,0.930011 3.3,0.393927 6.74763,0.613692 7.66141,0.488368 0.91378,-0.125323 2.0001,0.320144 2.41404,0.989928 0.52425,0.84825 0.23192,1.017971 -0.96334,0.559304 -1.01928,-0.391134 -1.46793,-0.257126 -1.10503,0.330061 0.33602,0.5437 0.0594,0.988546 -0.61473,0.988546 -0.67413,0 -0.93973,0.285956 -0.59022,0.635458 0.3495,0.349502 1.75866,-0.100498 3.13148,-1 2.84973,-1.867213 6.03486,-2.202481 4.99885,-0.526179 -0.48113,0.778485 0.61955,0.938087 3.69098,0.535205 C 186.53055,29.328743 187.6,29.407619 186.5,29.819763 180.05166,32.235807 176.88153,35 180.55902,35 c 0.85746,0 1.31004,-0.402847 1.00574,-0.895215 -0.3043,-0.492369 0.11914,-1.153245 0.94098,-1.468615 C 183.32758,32.3208 184,32.498646 184,33.031385 184,33.564123 184.975,34 186.16667,34 c 1.19166,0 1.87819,0.288474 1.52561,0.641053 -0.35258,0.352579 -19.21508,0.838707 -41.91667,1.080284 -22.70158,0.241577 -43.52561,0.490314 -46.27561,0.55275 -2.75,0.06244 -13.325,0.03463 -23.5,-0.06179 -10.175,-0.09642 -24.788545,-0.05968 -32.474545,0.08165 -12.422894,0.228433 -14.178006,0.0535 -15.806969,-1.57546 z M 179.72917,31.395833 c -0.3323,-0.332291 -1.1948,-0.367818 -1.91667,-0.07895 -0.79773,0.319226 -0.56078,0.556183 0.60417,0.604167 1.05416,0.04342 1.64479,-0.192928 1.3125,-0.52522 z"
         style="fill:#6ab453" />
      <path
         id="path845"
         d="m 28.39502,35.252162 c -1.660372,-1.660371 -2.707825,-5.389382 -2.22218,-7.911129 0.32936,-1.710232 2.085131,-1.81065 29.838556,-1.706565 42.112645,0.157937 61.686864,0.870219 63.418964,2.307739 0.79678,0.661269 2.71341,1.012217 4.25917,0.779883 2.51554,-0.378097 2.44318,-0.439756 -0.68953,-0.587571 -2.30373,-0.108699 -3.04948,-0.450812 -2.1819,-1.000939 0.72496,-0.459687 3.62348,-0.41678 6.44115,0.09535 2.81768,0.512129 6.16597,0.731778 7.44064,0.488108 1.8656,-0.356631 2.09698,-0.177209 1.18641,0.919963 -0.62215,0.74965 -2.23323,1.363 -3.58017,1.363 -2.48899,0 -5.6808,2.291995 -4.64051,3.332285 C 129.30692,34.973583 110.86775,36.11654 87,35.852956 67.542761,35.638078 68.21445,35.632297 46.643518,36.200309 33.126015,36.556256 29.511302,36.368445 28.39502,35.252162 Z m 96.33415,-1.856329 c -0.3323,-0.332291 -1.1948,-0.367818 -1.91667,-0.07895 -0.79773,0.319226 -0.56078,0.556183 0.60417,0.604167 1.05416,0.04342 1.64479,-0.192928 1.3125,-0.52522 z m 13.78091,-4.412145 c 0.34546,-0.558971 1.04702,-0.757414 1.55902,-0.440983 C 141.45614,29.399945 141.19751,30 139.44098,30 c -0.85746,0 -1.27636,-0.45734 -0.9309,-1.016312 z"
         style="fill:#56a747" />
      <path
         id="path843"
         d="m 28.39502,35.252162 c -1.638631,-1.63863 -2.711814,-5.388371 -2.233576,-7.804198 0.306683,-1.549222 2.713003,-1.740251 25.560403,-2.029156 23.737102,-0.300155 28.202216,0.115755 25.741384,2.397723 C 77.057859,28.192439 76.525298,27.9375 76.279762,27.25 75.568344,25.25803 74.109517,25.803778 74.274953,28 c 0.08286,1.1 0.842394,2.031628 1.687851,2.070285 C 77.036092,30.119359 76.896423,30.399936 75.5,31 c -1.1,0.472686 -1.433687,0.891058 -0.741526,0.929715 0.967135,0.05401 0.994572,0.492858 0.11852,1.895641 -0.859299,1.375956 -2.400127,1.830071 -6.258474,1.844507 -2.815186,0.01053 -12.703937,0.234063 -21.975002,0.496733 C 33.092892,36.550517 29.514037,36.37118 28.39502,35.252162 Z M 77.25,35.310674 c 0.9625,-0.251527 2.5375,-0.251527 3.5,0 0.9625,0.251528 0.175,0.457323 -1.75,0.457323 -1.925,0 -2.7125,-0.205795 -1.75,-0.457323 z m 0.506231,-1.975032 C 78.447157,33.057088 78.7581,32.417614 78.447214,31.91459 78.136327,31.411565 78.358524,31 78.940983,31 79.523442,31 80,31.675 80,32.5 c 0,0.825 -0.7875,1.464474 -1.75,1.421053 -1.055748,-0.04763 -1.251634,-0.279869 -0.493769,-0.585411 z"
         style="fill:#4e9747" />
      <path
         id="path841"
         d="M 31.25,34.879288 C 30.5625,34.17568 30,33.947143 30,34.371429 30,34.795714 29.300666,34.443523 28.445924,33.588781 26.589697,31.732554 25.701777,28 27.116435,28 c 0.550879,0 0.785862,-0.349069 0.522184,-0.775709 -0.263678,-0.42664 2.297265,-0.6146 5.690983,-0.417688 3.393719,0.196912 12.920398,0.371021 21.170398,0.38691 9.441025,0.01818 14.166154,0.346334 12.75,0.885464 -1.2375,0.471116 -2.250027,1.208575 -2.250059,1.638799 -3.3e-5,0.430223 -2.883856,0.779321 -6.408496,0.775772 -3.52464,-0.0035 -6.16826,0.382162 -5.874712,0.857134 C 53.010282,31.825654 52.237752,31.892847 51,31.5 c -1.580871,-0.501749 -2.03805,-0.370583 -1.536561,0.440842 0.480059,0.776753 2.239893,0.926273 5.372707,0.456479 4.06082,-0.608958 4.499901,-0.50716 3.420792,0.793088 -0.775758,0.93473 -3.201833,1.544652 -6.497478,1.633484 -2.892703,0.07797 -8.40946,0.410171 -12.25946,0.738224 -5.036015,0.429111 -7.350712,0.23753 -8.25,-0.682829 z M 60.5,33 C 60.160081,32.45 60.808524,32 61.940983,32 63.073442,32 64,32.45 64,33 64,33.55 63.351558,34 62.559017,34 61.766476,34 60.839919,33.55 60.5,33 Z"
         style="fill:#43983c" />
      <path
         id="path839"
         d="M 29.717009,33.006361 C 28.94899,31.90986 28.058736,31.274597 27.738668,31.594665 27.4186,31.914734 27.286199,30.997134 27.444444,29.555556 27.785371,26.449797 28.54714,25.458241 29.458881,26.933469 29.821415,27.520061 29.623947,28 29.020062,28 c -0.603885,0 -0.185194,0.979752 0.930423,2.177227 1.115617,1.197474 2.357615,1.848006 2.759995,1.445627 0.402379,-0.40238 0.06963,-1.150241 -0.73944,-1.661914 -0.809072,-0.511673 -0.96364,-0.937205 -0.343485,-0.945627 0.620156,-0.0084 1.656348,0.621843 2.30265,1.400589 0.938854,1.13125 0.759511,1.547803 -0.892076,2.071996 -1.136944,0.360852 -1.809079,1.073696 -1.493633,1.584098 1.120612,1.813189 -0.454336,0.894813 -1.827487,-1.065635 z M 37.8125,30.316886 c 0.721875,-0.288871 1.584375,-0.253344 1.916667,0.07895 0.332291,0.332292 -0.258334,0.568641 -1.3125,0.52522 -1.164943,-0.04798 -1.4019,-0.284941 -0.604167,-0.604167 z m -3.188961,-1.855545 c -0.964979,-2.514694 -0.680311,-3.163555 0.498534,-1.136338 0.58369,1.003751 0.850598,2.035659 0.593129,2.293128 -0.257468,0.257469 -0.748717,-0.263087 -1.091663,-1.15679 z"
         style="fill:#3c9436" />
    </g>
  </g>
</svg>
