<?xml version="1.0" encoding="UTF-8" standalone="no"?>
<svg
        xmlns="http://www.w3.org/2000/svg"
        width="74.984695mm"
        height="1.390751mm"
        viewBox="0 0 74.984695 1.390751"
        version="1.1"
        id="svg900"
>
  <defs
     id="defs894" />
  <metadata
     id="metadata897">
    image/svg+xml
  </metadata>
  <g
     transform="translate(-49.442177,-91.530813)"
     id="layer1">
    <path
       style="fill:#451b21;stroke-width:0.264583"
       d="m 49.566291,92.821163 c -0.310648,-0.31065 -0.04296,-0.622446 0.857367,-0.998622 0.869384,-0.363252 2.105969,-0.374862 11.046355,-0.103709 5.537058,0.167931 20.485348,0.288793 33.218421,0.268576 12.733076,-0.02021 23.448696,0.01733 23.812496,0.08344 0.36381,0.06611 1.90566,0.13539 3.42636,0.153964 2.21181,0.02701 2.69877,0.09992 2.43435,0.364495 -0.36507,0.365273 -6.7971,0.403664 -40.124248,0.239496 -10.186458,-0.05018 -22.127281,-0.04506 -26.535163,0.01138 -4.407882,0.05643 -8.069054,0.04787 -8.135938,-0.01902 z"
       id="path843" />
  </g>
</svg>
