<?xml version="1.0" encoding="UTF-8" standalone="no"?>
<svg
   xmlns="http://www.w3.org/2000/svg"
   viewBox="0 0 335.91415 22.163393"
   height="22.163393"
   width="335.91415"
   id="svg2"
   version="1.1">
  <metadata
          id="metadata8">
  </metadata>
  <defs
     id="defs6" />
  <g
     transform="translate(-6.0272686,-8.1898901)"
     id="g10"
  >
    <g
       transform="translate(-5.9727314,-0.3318185)"
       id="g837">
      <path
         id="path867"
         d="m 59,29.877338 c 0,-0.665869 -0.284113,-0.926559 -0.631361,-0.57931 -0.347249,0.347249 -1.572377,-0.02775 -2.722507,-0.833333 -2.726751,-1.909891 -4.737904,-1.848682 -2.205002,0.06711 C 54.508751,29.339312 54.878394,30 54.262558,30 53.646723,30 52.543758,29.400901 51.811526,28.668669 51.079293,27.936436 49.134651,27.022767 47.490097,26.638292 45.315623,26.129928 44.909162,26.21613 46,26.95431 c 0.928541,0.628353 1.042715,1.020898 0.29969,1.030377 -0.66017,0.0084 -1.619972,-0.734582 -2.132892,-1.651119 -0.649709,-1.160966 -2.105565,-1.616386 -4.79969,-1.501436 C 37.240198,24.92288 33.025,24.484941 30,23.858933 26.975,23.232925 22.475,22.599742 20,22.451858 c -2.475,-0.147884 -4.875,-0.31005 -5.333333,-0.360369 -0.458334,-0.05032 -0.662841,-0.602968 -0.45446,-1.228109 0.21018,-0.630541 2.850335,-1.229835 5.929602,-1.345972 3.052901,-0.115144 6.182408,-0.602874 6.95446,-1.083846 C 27.868321,17.952591 30.975,17.503705 34,17.436039 c 5.83279,-0.130474 7.568998,-0.438431 20.25,-3.591812 2.6125,-0.64965 4.75,-1.541243 4.75,-1.981319 0,-0.440076 0.675,-0.541117 1.5,-0.224534 0.832075,0.319297 1.5,0.02816 1.5,-0.65383 0,-0.915119 0.343095,-0.94469 1.342009,-0.115665 0.738105,0.612573 1.638105,0.817673 2,0.455778 C 65.703904,10.962762 66,11.246767 66,11.955778 66,12.988272 66.298598,12.997075 67.5,12 68.38801,11.263017 69,11.174864 69,11.783936 c 0,1.136658 3.814291,0.462281 5.697642,-1.007359 0.756757,-0.590523 1.861139,-0.519775 3,0.192181 1.595133,0.997194 1.543666,1.056016 -0.447642,0.511604 -1.312234,-0.358758 -2.25,-0.170266 -2.25,0.45225 0,1.23908 -0.0025,1.238849 14.690356,1.359496 6.154696,0.05054 11.021264,0.365488 10.814594,0.69989 C 100.29827,14.326399 101.64605,14.6 103.5,14.6 c 1.85395,0 3.14833,-0.36 2.87639,-0.8 -0.27193,-0.44 -0.0179,-0.8 0.56459,-0.8 0.58246,0 1.05902,0.42531 1.05902,0.945132 0,0.519823 1.9125,0.817679 4.25,0.661902 2.3375,-0.155776 4.8125,0.149014 5.5,0.677313 0.83667,0.642923 1.25,0.569873 1.25,-0.220919 0,-0.649804 0.34397,-0.968877 0.76438,-0.709052 0.70364,0.434876 7.28904,0.744885 46.73562,2.200088 10.83461,0.399694 57.79884,1.47255 66.5,1.519134 2.94977,0.01579 14.54618,0.170087 17,0.226191 1.375,0.03144 3.4,-0.290603 4.5,-0.715646 1.19279,-0.4609 1.51751,-0.421817 0.80454,0.09684 -0.70406,0.51217 4.22863,0.938929 12,1.0382 67.26499,0.859238 77.61069,1.137383 79.32378,2.132629 1.02943,0.598056 1.54844,1.101059 1.15337,1.117783 -0.39507,0.01672 -16.82007,0.240556 -36.5,0.497403 -19.67993,0.256847 -43.20669,0.693905 -52.28169,0.97124 -38.95549,1.190495 -57.6913,1.621698 -76.28672,1.755729 -10.88269,0.07844 -19.20769,0.509997 -18.5,0.959015 0.95843,0.608105 0.85529,0.820303 -0.40426,0.831709 -0.93004,0.0084 -1.92273,-0.359658 -2.20597,-0.817956 -0.63656,-1.029966 -6.42446,-0.264707 -7.17431,0.948565 -0.30072,0.486587 -1.08272,0.877813 -1.73776,0.869391 -0.88876,-0.01143 -0.89793,-0.201742 -0.0361,-0.75 0.63517,-0.404078 -4.76483,-0.647386 -12,-0.540685 -11.9247,0.175861 -17.30533,0.589013 -24.65486,1.893129 -2.15017,0.381531 -2.22014,0.319662 -0.5,-0.442138 1.3856,-0.613644 0.003,-0.837204 -4.50187,-0.727735 -3.57604,0.0869 -6.95104,0.411666 -7.5,0.721692 C 102.94916,28.448977 97.775,28.621319 92,28.521933 c -5.775,-0.09939 -10.95,0.06515 -11.5,0.365625 -0.55,0.300479 -3.25,0.605872 -6,0.678651 -2.75,0.07278 -7.3625,0.444957 -10.25,0.827063 C 60.42506,30.89943 59,30.759385 59,29.877338 Z m 62.72917,-3.481505 c -0.3323,-0.332291 -1.1948,-0.367818 -1.91667,-0.07895 -0.79773,0.319226 -0.56078,0.556183 0.60417,0.604167 1.05416,0.04342 1.64479,-0.192928 1.3125,-0.52522 z M 12,19 c 0,-0.55 0.476558,-1 1.059017,-1 0.582459,0 0.780902,0.45 0.440983,1 -0.339919,0.55 -0.816476,1 -1.059017,1 C 12.198442,20 12,19.55 12,19 Z M 56.333333,9.5439887 c 0,-0.8008063 0.382341,-1.219712 0.849646,-0.9309017 0.467304,0.2888103 0.590747,0.9440154 0.274316,1.456011 -0.808625,1.308382 -1.123962,1.161058 -1.123962,-0.5251093 z"
         style="fill:#fcedfd" />
      <path
         id="path865"
         d="M 55.341349,28.041553 C 49.116808,25.800061 34.517559,23.206011 23.25,22.33944 18.7125,21.990468 15,21.38772 15,21 c 0,-0.38772 3.7125,-0.990468 8.25,-1.33944 10.9483,-0.842017 25.790224,-3.438071 32.134131,-5.620695 4.31838,-1.485741 6.774615,-1.638818 15.620009,-0.973467 37.73686,2.838566 185.09438,6.92022 250.18684,6.929922 13.58004,0.002 24.92407,0.380816 25.20895,0.841759 0.28488,0.460944 -23.42607,1.143414 -52.69099,1.516602 C 195.90665,23.601858 82.734866,27.101922 64,29.458889 c -1.986865,0.24996 -5.73021,-0.362788 -8.658651,-1.417336 z"
         style="fill:#e8d5fd" />
      <path
         id="path863"
         d="M 57,28.263604 C 52.344635,26.281085 35.296059,23.245191 24.051308,22.396324 19.073088,22.020518 15,21.393994 15,21.004048 c 0,-0.389946 3.9375,-1.005229 8.75,-1.367295 11.837313,-0.890574 26.743367,-3.470349 32.388334,-5.605414 3.90796,-1.478087 6.191201,-1.628865 14.5,-0.957534 33.945026,2.742675 184.275096,6.912785 249.552646,6.922515 13.58004,0.002 24.92407,0.380816 25.20895,0.841759 0.28488,0.460944 -23.42607,1.143414 -52.69099,1.516602 C 196.36836,23.583219 77.833632,27.212306 63,29.387503 c -1.375,0.20163 -4.075,-0.304125 -6,-1.123899 z"
         style="fill:#d9c7f6" />
      <path
         id="path861"
         d="M 56,27.927738 C 52.252797,26.2894 35.394495,23.163094 26.149612,22.3921 18.044162,21.716131 14.757317,20 21.568107,20 27.927641,20 47.314364,16.829452 54.5,14.614244 c 5.77404,-1.780037 8.313528,-2.038796 14.5,-1.47747 27.730522,2.516118 170.39011,6.733506 234.5,6.932431 12.65,0.03925 23.9,0.458109 25,0.930795 1.1935,0.512862 -7.87968,0.891123 -22.5,0.938024 -45.83032,0.147022 -166.44712,3.146519 -204,5.07307 -37.180025,1.907423 -43.448208,2.032329 -46,0.916644 z"
         style="fill:#cbb6f4" />
      <path
         id="path859"
         d="M 54.614948,27.436117 C 49.7625,25.596356 36.529884,23.257781 26.006108,22.380132 21.602749,22.012906 18,21.391846 18,21 c 0,-0.391846 3.602749,-1.012906 8.006108,-1.380132 11.057066,-0.922124 24.634146,-3.313759 29.891406,-5.265442 3.921267,-1.455714 6.4663,-1.508692 23.5,-0.489186 42.253096,2.528945 115.763906,4.688189 196.102486,5.760147 27.5,0.366932 50.9,1.022805 52,1.457495 1.1,0.43469 -8.575,0.820185 -21.5,0.856656 -45.28417,0.127778 -164.86017,3.094602 -205,5.086296 -39.310075,1.950521 -42.253929,1.97656 -46.385052,0.410283 z"
         style="fill:#b9a3e6" />
      <path
         id="path857"
         d="M 53,26.876748 C 47.301283,25.21399 43.087052,24.412419 30.5,22.59712 28.85,22.359157 25.3625,22.127457 22.75,22.082231 20.1375,22.037004 18,21.55 18,21 c 0,-0.55 2.205282,-1 4.900627,-1 6.150068,0 27.014669,-3.506886 33.41209,-5.615846 3.621804,-1.193956 6.962397,-1.439812 13.5,-0.993551 16.022708,1.09372 26.533136,1.607376 53.187283,2.599324 45.12308,1.679278 54.42459,1.944284 90,2.56416 18.975,0.330626 38.55,0.763979 43.5,0.963007 4.95,0.199028 22.5,0.438866 39,0.532972 16.5,0.09411 30.9,0.539712 32,0.990233 1.11206,0.455459 -12.4291,0.912231 -30.5,1.028829 -17.875,0.115334 -36.1,0.30369 -40.5,0.418569 -4.4,0.114878 -23.525,0.516336 -42.5,0.892127 -18.975,0.375791 -40.575,0.891621 -48,1.146289 C 99.959976,26.7912 93.492374,27.055502 79.5,28.060979 62.868696,29.256086 60.844626,29.165634 53,26.876748 Z"
         style="fill:#b39be9" />
      <path
         id="path855"
         d="m 53.5,26.931883 c -3.3,-1.037124 -9.6,-2.390204 -14,-3.006844 -4.4,-0.616639 -8.9,-1.268595 -10,-1.448791 -1.1,-0.180195 -4.1375,-0.361067 -6.75,-0.401938 -7.967255,-0.124641 -5.294157,-1.735311 4,-2.410193 9.954146,-0.722805 22.513276,-2.962745 29.497165,-5.260864 4.097208,-1.348228 7.040873,-1.417183 21.5,-0.503635 C 122.33299,16.716614 236.46785,19.864479 304,20.139722 c 11.825,0.0482 22.4,0.454846 23.5,0.903668 1.10449,0.450653 -11.88044,0.875021 -29,0.947766 -17.05,0.07245 -38.2,0.303637 -47,0.51375 -8.8,0.210112 -28.6,0.646765 -44,0.970339 -37.52074,0.78836 -58.39687,1.424446 -101,3.07742 C 98.8,26.85142 86.672548,27.524289 79.550106,28.047928 62.79987,29.2794 60.680604,29.188606 53.5,26.931883 Z"
         style="fill:#b4a2d8" />
      <path
         id="path853"
         d="M 53.903513,26.987371 C 47.960548,25.062207 29.274437,22 23.469726,22 21.561377,22 20,21.55 20,21 c 0,-0.55 1.6875,-1.002653 3.75,-1.005895 6.144235,-0.0097 23.251125,-2.836619 30.651222,-5.065197 6.482373,-1.952201 7.878293,-2.01497 23,-1.034222 15.440134,1.001399 23.136238,1.372529 54.098778,2.608809 28.8323,1.151222 84.5317,2.47551 130.5,3.102718 26.125,0.356458 48.175,1.027201 49,1.490538 0.84981,0.47727 -8.03615,0.857586 -20.5,0.877393 -52.8641,0.08401 -178.64578,3.706979 -210.949894,6.076126 -16.620477,1.218926 -18.893408,1.124727 -25.646593,-1.062899 z"
         style="fill:#ae9ad8" />
      <path
         id="path851"
         d="M 53.753516,26.998357 C 47.918396,25.053573 29.815845,22 24.121662,22 22.404748,22 21,21.64021 21,21.200467 c 0,-0.439743 4.893235,-1.343635 10.873856,-2.008649 5.980621,-0.665014 14.418121,-2.210909 18.75,-3.435321 8.891469,-2.513188 11.854182,-2.575686 42.876144,-0.904463 38.01539,2.047975 146.84489,5.010024 192.5,5.239337 11.825,0.05939 22.625,0.468277 24,0.908629 1.4265,0.456844 -7.16152,0.844575 -20,0.902957 -26.37488,0.119938 -96.77805,1.652483 -143,3.112841 -28.52271,0.90116 -46.594,1.687734 -79,3.438565 -6.629977,0.358204 -9.764242,0.03788 -14.246484,-1.456006 z"
         style="fill:#9078c7" />
      <path
         id="path849"
         d="M 55.5,27.279246 C 50.683795,25.48807 31.987187,22.075327 26.75,22.031431 c -6.702596,-0.05618 -3.956996,-1.737051 4,-2.448824 8.875549,-0.793939 24.180921,-3.940086 27.307209,-5.613224 1.554959,-0.832189 5.865638,-0.855345 16.278905,-0.08745 34.333736,2.531852 139.265346,5.797122 195.059636,6.069879 12.59266,0.06156 23.61766,0.533902 24.5,1.049647 1.03545,0.605244 -6.01873,0.954315 -19.89575,0.984528 -26.87462,0.05851 -128.43611,2.465961 -148.5,3.520098 -4.95,0.260068 -15.525,0.731447 -23.5,1.047509 -7.975,0.316062 -20.077848,0.9958 -26.895217,1.51053 C 60.432329,29.171937 60.608081,29.178974 55.5,27.279246 Z"
         style="fill:#8a74bc" />
      <path
         id="path847"
         d="M 57.857713,28.023182 C 55.3416,26.488033 43.607164,23.960346 32.5,22.560936 27,21.867982 23.175,21.055864 24,20.756228 24.825,20.456593 30.679,19.530196 37.008889,18.69757 43.338777,17.864943 51.28866,16.25026 54.675295,15.109385 60.332719,13.203537 61.875119,13.110952 73.666407,13.969409 104.62435,16.223283 177.31446,18.58556 247.5,19.618637 c 24.2,0.356206 44.675,1.024049 45.5,1.484096 0.84457,0.470959 -7.45758,0.850755 -19,0.869189 -52.38748,0.08366 -175.324194,3.947914 -208,6.538028 -3.585595,0.28422 -7.236352,0.06597 -8.142287,-0.486768 z"
         style="fill:#704dc9" />
      <path
         id="path845"
         d="m 56.5,27.547217 c -1.65,-0.773578 -6.054913,-1.963346 -9.788695,-2.643929 -4.461594,-0.813247 -6.346943,-1.535663 -5.5,-2.107456 0.787111,-0.5314 -0.07357,-0.655135 -2.211305,-0.317907 -4.055631,0.639776 -17.235547,-0.867328 -15,-1.715228 2.12362,-0.805449 23.405022,-3.529666 23.95633,-3.066633 0.250981,0.210794 -0.531457,0.641574 -1.738753,0.957289 -1.207295,0.315715 -1.948586,0.972867 -1.647313,1.460337 C 44.871538,20.601161 44.641476,21 44.059017,21 43.476558,21 43,20.523442 43,19.940983 c 0,-0.582459 -0.479939,-0.762398 -1.066531,-0.399864 -1.397656,0.863799 -0.83768,1.339168 2.809775,2.385244 2.58415,0.741125 2.95078,0.619588 2.566288,-0.850712 -0.246718,-0.94345 0.286299,-2.325258 1.184482,-3.070683 C 52.176637,14.948663 66,11.588785 66,13.75 c 0,0.4125 3.4875,0.753471 7.75,0.757713 4.2625,0.0042 17.0875,0.405207 28.5,0.891031 16.65522,0.709004 20.75,1.158438 20.75,2.27747 0,1.100097 0.43671,1.160433 2.07049,0.286062 1.46363,-0.783311 11.06263,-0.917632 32.75,-0.458279 16.87373,0.357397 31.22612,0.819984 31.89419,1.02797 0.66808,0.207987 23.84308,0.673794 51.5,1.035126 27.65693,0.361333 50.96032,1.042871 51.78532,1.514529 0.86986,0.497307 -7.742,0.879335 -20.5,0.909393 -20.40766,0.04808 -62.15759,0.945835 -121.3977,2.610429 -18.20249,0.511474 -24.21825,0.395189 -23.69099,-0.457945 0.3887,-0.628924 1.91767,-1.204781 3.39771,-1.279681 2.54803,-0.128948 2.56422,-0.160151 0.30482,-0.587393 -1.40026,-0.264784 -3.46612,0.346543 -5,1.479592 -2.28266,1.686163 -5.11072,2.021415 -22.32019,2.645938 -14.78164,0.536419 -20.279543,0.409685 -22,-0.50713 -2.083852,-1.110465 -2.168114,-1.070085 -0.921205,0.441455 1.254735,1.521029 0.825906,1.664465 -5,1.672412 C 72.3676,28.013473 67.25,28.22806 64.5,28.485553 c -3.135276,0.293568 -6.118835,-0.05638 -8,-0.938336 z M 58.916667,26.69734 C 56.055889,24.619318 53,23.13534 53,23.824133 c 0,0.868441 3.679735,2.979944 5.416667,3.108187 0.504166,0.03722 0.729166,-0.06852 0.5,-0.23498 z m 9.899864,-1.192978 C 67.987664,24.730915 61,24.321653 61,25.046554 c 0,0.454701 1.4625,0.97854 3.25,1.164086 3.038538,0.315407 5.2885,-0.03258 4.566531,-0.706278 z m 53.724589,-1.570893 c 1.13883,-1.842673 -0.37083,-2.246616 -2.06493,-0.552517 C 119.07814,24.779006 119.06358,25 120.36955,25 c 0.83183,0 1.80903,-0.479939 2.17157,-1.066531 z M 75,23.16898 C 75,21.367967 70.160466,19.742599 67.327047,20.592002 64.636432,21.398595 64.705104,21.455794 68.75,21.777245 71.0875,21.963008 73,22.539122 73,23.057498 73,23.575874 73.45,24 74,24 c 0.55,0 1,-0.373959 1,-0.83102 z m 43.72917,-0.773147 c -0.3323,-0.332291 -1.1948,-0.367818 -1.91667,-0.07895 -0.79773,0.319226 -0.56078,0.556183 0.60417,0.604167 1.05416,0.04342 1.64479,-0.192928 1.3125,-0.52522 z m 69.95065,-0.840029 c 3.05019,-0.07875 5.65039,-1.16212 3.07018,-1.279182 -0.6875,-0.03119 -3.05,-0.274007 -5.25,-0.53959 -2.2,-0.265584 -3.11438,-0.270908 -2.03196,-0.01183 1.83441,0.439062 1.80046,0.57093 -0.5,1.941994 -1.49705,0.892241 -1.68119,1.175832 -0.46804,0.720829 1.1,-0.412565 3.43092,-0.787063 5.17982,-0.832219 z M 51.729167,21.395833 c -0.332292,-0.332291 -1.194792,-0.367818 -1.916667,-0.07895 -0.797733,0.319226 -0.560776,0.556183 0.604167,0.604167 1.054166,0.04342 1.644791,-0.192928 1.3125,-0.52522 z m 101.407683,-0.09583 c -1.15087,-0.457682 -1.15087,-0.676597 0,-1.40574 1.06679,-0.675876 0.98269,-0.866966 -0.38685,-0.878949 -1.77514,-0.01553 -2.29804,1.103314 -1.08333,2.31802 0.36666,0.366667 1.15416,0.631141 1.75,0.58772 0.59583,-0.04342 0.46991,-0.322894 -0.27982,-0.621051 z M 165,21.069834 c 2.46369,-0.720191 2.45315,-0.741606 -0.7256,-1.474416 -3.41512,-0.787302 -5.69099,-0.07849 -4.73169,1.47368 0.65076,1.052954 1.85722,1.053117 5.45729,7.36e-4 z M 176.12782,20.525 c 0.0122,-0.53625 -0.57407,-1.133009 -1.30282,-1.326131 -0.8775,-0.232543 -0.8184,0.0071 0.175,0.709687 1.29439,0.915406 1.26012,1.062917 -0.25,1.076131 -0.9625,0.0084 -1.75,-0.420564 -1.75,-0.953302 0,-0.532739 -0.7546,-0.679049 -1.67689,-0.325134 -1.50098,0.57598 -1.47475,0.723896 0.25,1.410065 2.41406,0.960396 4.52565,0.686258 4.55471,-0.591316 z m 32.3651,0.486454 c 0.35034,-0.56686 -0.0511,-0.734507 -0.94098,-0.393011 C 205.81952,21.283234 205.50255,22 206.94098,22 c 0.51754,0 1.21592,-0.444846 1.55194,-0.988546 z M 88,20.609406 c 0,-0.214827 -1.543434,-0.570781 -3.429854,-0.79101 -1.88642,-0.220229 -3.209862,-0.04446 -2.940983,0.390594 C 82.11308,20.991984 88,21.361985 88,20.609406 Z M 98.75,20.310674 C 97.7875,20.059147 97,19.361348 97,18.760009 c 0,-0.601338 -0.270061,-0.823281 -0.600136,-0.493207 -0.998732,0.998732 0.605005,2.740961 2.409153,2.617197 1.524503,-0.104582 1.518693,-0.161025 -0.05902,-0.573325 z m 49.97917,0.08516 c -0.3323,-0.332291 -1.1948,-0.367818 -1.91667,-0.07895 -0.79773,0.319226 -0.56078,0.556183 0.60417,0.604167 1.05416,0.04342 1.64479,-0.192928 1.3125,-0.52522 z m 50,0 c -0.3323,-0.332291 -1.1948,-0.367818 -1.91667,-0.07895 -0.79773,0.319226 -0.56078,0.556183 0.60417,0.604167 1.05416,0.04342 1.64479,-0.192928 1.3125,-0.52522 z M 107,19 c 1.13826,-0.735598 0.71622,-0.973067 -1.75,-0.984687 C 103.4625,18.006891 102,18.45 102,19 c 0,1.2702 3.03451,1.2702 5,0 z M 80.079327,16.25 c 1.100632,-1.454525 1.099868,-1.551276 -0.0045,-0.573026 -0.919927,0.814851 -2.101531,0.883161 -3.84046,0.222021 -2.735843,-1.040165 -3.810176,-0.639737 -2.775457,1.034474 1.034531,1.673906 5.158814,1.248131 6.620446,-0.683469 z"
         style="fill:#6d4acb" />
      <path
         id="path843"
         d="m 57.741249,27.976654 c -0.967314,-0.597206 -5.467314,-1.923327 -10,-2.946936 -7.798664,-1.761158 -8.652219,-2.466431 -2.493816,-2.060583 2.127331,0.140194 2.611013,-0.174443 2.143011,-1.394038 C 47.058012,20.708794 47.284167,20 47.893011,20 48.501855,20 49,20.45 49,21 c 0,0.55 0.9,1 2,1 1.111111,0 2,0.666667 2,1.5 0,1.556799 1.518789,2.062439 2.252772,0.75 0.230691,-0.4125 0.263087,-0.137397 0.07199,0.611341 -0.224685,0.880348 0.204896,1.149387 1.215833,0.761454 0.859803,-0.329937 1.319498,-0.205441 1.021545,0.276658 -0.671547,1.086585 5.562489,2.13072 6.937858,1.162018 1.152644,-0.811832 16.409209,-0.485595 17.263966,0.369162 0.313152,0.313152 -2.318133,0.573278 -5.847299,0.578059 C 72.3875,28.013473 67.25,28.252531 64.5,28.539933 c -2.821979,0.294925 -5.76612,0.04956 -6.758751,-0.563279 z m 24.866056,-1.803032 c -0.326739,-0.528673 0.415452,-0.946786 1.649312,-0.929139 1.233861,0.01765 4.380883,-0.19454 6.993383,-0.471525 2.631514,-0.279001 4.75,-0.08762 4.75,0.429104 0,0.512992 0.931805,0.63697 2.070677,0.275506 1.138872,-0.361464 6.981783,-0.648292 12.984253,-0.637396 6.00246,0.0109 11.17222,-0.398685 11.48834,-0.91018 C 122.85939,23.418496 123.8629,23 124.7733,23 c 1.44846,0 1.47233,0.173101 0.19099,1.385486 -1.79322,1.696718 -41.380617,3.367934 -42.356985,1.788136 z m 44.725655,-2.289461 c -3e-4,-1.153686 5.13371,-1.347766 30.83334,-1.165585 C 176.8333,22.850903 189,22.567344 189,21.99996 c 0,-0.515455 0.58172,-0.713964 1.29271,-0.441133 0.71098,0.272832 3.07348,0.06543 5.25,-0.460889 L 199.5,20.140991 195,20.094068 c -2.475,-0.02581 -7.2,-0.236117 -10.5,-0.467354 -3.3,-0.231237 -6.7968,0.004 -7.77067,0.522672 -0.97386,0.518706 -2.30114,0.61525 -2.9495,0.214542 -1.76041,-1.087995 -5.71454,-1.067303 -5.03861,0.02637 0.34783,0.562802 -0.19275,0.64818 -1.32718,0.209613 C 166.36132,20.192928 164.15,19.628569 162.5,19.34578 c -2.43408,-0.41717 -2.71704,-0.291844 -1.5,0.664363 1.25006,0.982154 1.16675,1.059648 -0.5,0.465083 -2.60161,-0.928047 -3.48939,-0.937184 -6.5,-0.06689 -1.60571,0.464168 -2.032,0.396966 -1.19171,-0.187866 0.85505,-0.5951 -0.70393,-0.929038 -4.5,-0.963911 C 124.95097,19.041971 123.53901,18.963847 125,17.966905 c 1.39161,-0.949596 61.54905,-0.425664 64.71468,0.563622 0.66808,0.208779 23.84308,0.675234 51.5,1.036566 27.65693,0.361333 50.96032,1.042871 51.78532,1.514529 0.86986,0.497307 -7.742,0.879335 -20.5,0.909393 -20.36236,0.04797 -62.04351,0.943361 -121.08333,2.601091 -20.17057,0.566352 -24.0834,0.451334 -24.08371,-0.707945 z m 81.15996,-2.872707 c 0.35034,-0.56686 -0.0511,-0.734507 -0.94098,-0.393011 C 205.81952,21.283234 205.50255,22 206.94098,22 c 0.51754,0 1.21592,-0.444846 1.55194,-0.988546 z M 75,23 c 0,-0.55 1.125,-1 2.5,-1 1.375,0 2.5,0.45 2.5,1 0,0.55 -1.125,1 -2.5,1 C 76.125,24 75,23.55 75,23 Z m 38,0.109913 c 0,-0.489548 1.6875,-0.667524 3.75,-0.395503 C 121.94611,23.39972 122.14066,24 117.16667,24 114.875,24 113,23.599461 113,23.109913 Z M 27.5,22.040954 C 24.75,21.686293 23.175,21.125589 24,20.794946 25.881672,20.040809 47.359455,17.198379 47.893128,17.632862 48.502029,18.128592 45.953424,18.789997 40.75,19.486623 38.1375,19.836381 36,20.571531 36,21.12029 c 0,0.548759 0.418906,0.738846 0.930902,0.422415 0.511996,-0.316431 1.213553,-0.117988 1.559017,0.440983 0.681755,1.103103 -2.742283,1.120945 -10.989919,0.05727 z M 61,21 c 0,-0.55 1.4625,-0.993109 3.25,-0.984687 2.466223,0.01162 2.888257,0.249089 1.75,0.984687 -1.965494,1.2702 -5,1.2702 -5,0 z m 36,-1.781892 c 0,-0.430041 1.125,-0.875 2.5,-0.988799 1.375,-0.113798 2.5,0.238053 2.5,0.781893 C 102,19.555041 100.875,20 99.5,20 98.125,20 97,19.648149 97,19.218108 Z M 120.5,18 c 0.40197,-0.6504 -5.0836,-1.015225 -15.69098,-1.043551 -8.969962,-0.02395 -18.196516,-0.408957 -20.503455,-0.855565 -2.758045,-0.533939 -4.606154,-0.433412 -5.396704,0.293551 -0.887692,0.81629 -1.025454,0.791181 -0.526506,-0.09596 0.48191,-0.85685 -0.982057,-1.321199 -5.103295,-1.618692 C 67.504581,14.26295 73.29888,14.438464 105.75,15.663352 119.19568,16.170864 123,16.610596 123,17.65723 123,18.395754 122.29844,19 121.44098,19 120.58352,19 120.16008,18.55 120.5,18 Z M 49.31368,17.352987 c 1.198673,-1.198673 11.162146,-4.287408 13.93632,-4.320341 1.63464,-0.0194 2.75,0.505488 2.75,1.294161 0,0.905479 -0.952876,1.186955 -3.000712,0.886396 -1.650391,-0.242226 -4.530899,0.285711 -6.401129,1.173193 -3.3034,1.567566 -8.586475,2.268587 -7.284479,0.966591 z"
         style="fill:#6d4bc4" />
      <path
         id="path841"
         d="m 54.5,26.910094 c -3.215,-1.171902 -4.179021,-1.838179 -2.70034,-1.866324 1.264813,-0.02407 3.696967,0.678806 5.404787,1.561954 1.945493,1.006053 4.362793,1.401633 6.472749,1.059234 1.985103,-0.322138 3.128927,-0.160275 2.786195,0.394276 C 65.585624,29.479491 60.104536,28.953007 54.5,26.910094 Z m 16.75,0.361438 c 2.0625,-0.215745 5.4375,-0.215745 7.5,0 2.0625,0.215744 0.375,0.392262 -3.75,0.392262 -4.125,0 -5.8125,-0.176518 -3.75,-0.392262 z m 12.933642,-0.788507 c 0.929174,-0.929174 9.80192,-1.235904 13.097243,-0.45277 2.369141,0.563026 0.996782,0.79205 -5.197552,0.867384 -4.629166,0.0563 -8.184027,-0.130278 -7.899691,-0.414614 z M 107.25,25.261012 c 3.1625,-0.198451 8.3375,-0.198451 11.5,0 3.1625,0.19845 0.575,0.360819 -5.75,0.360819 -6.325,0 -8.9125,-0.162369 -5.75,-0.360819 z M 42.5,24 C 39.805285,23.314311 39.754404,23.234733 42,23.217995 43.375,23.207746 45.625,23.559648 47,24 c 1.958994,0.62738 2.067195,0.796607 0.5,0.782005 C 46.4,24.771756 44.15,24.419854 42.5,24 Z m 85.72281,0.443855 c 0.74336,-0.743356 24.78719,-0.767187 25.52908,-0.0253 C 154.07168,24.738348 148.33333,25 141,25 133.66667,25 127.91693,24.749735 128.22281,24.443855 Z M 155.75,23.337719 c 0.6875,-0.277412 1.8125,-0.277412 2.5,0 0.6875,0.277413 0.125,0.504386 -1.25,0.504386 -1.375,0 -1.9375,-0.226973 -1.25,-0.504386 z m 12,-0.08171 c 4.5375,-0.185293 11.9625,-0.185293 16.5,0 4.5375,0.185294 0.825,0.336897 -8.25,0.336897 -9.075,0 -12.7875,-0.151603 -8.25,-0.336897 z M 27.5,22.092896 c -6.255991,-0.74183 -4.938838,-1.653657 3.5,-2.422948 3.575,-0.325899 5.9375,-0.34746 5.25,-0.04791 -1.79499,0.782087 -1.539552,2.155649 0.5,2.688639 2.419057,0.632166 -3.197406,0.499934 -9.25,-0.217778 z m 172.71814,0.355626 c 0.30332,-0.303313 7.38734,-0.569287 15.74229,-0.591053 8.35494,-0.02177 14.90197,-0.328402 14.54896,-0.681413 -0.35301,-0.353012 -6.0752,-0.750197 -12.71597,-0.882633 -6.64077,-0.132436 -12.31097,-0.477635 -12.60044,-0.767108 C 204.90351,19.236842 211.46511,19 219.77432,19 c 8.3092,0 15.35965,0.407754 15.66766,0.90612 0.30801,0.498366 1.40878,0.684163 2.44616,0.412882 1.03738,-0.271281 2.21828,0.04417 2.62423,0.701014 0.52422,0.848199 0.12227,0.998799 -1.38714,0.51973 C 237.86434,21.139554 237,21.299334 237,21.932612 237,22.651008 230.89677,23 218.33333,23 208.06667,23 199.91483,22.751835 200.21814,22.448522 Z M 234,21 c 0,-0.55 -0.47656,-1 -1.05902,-1 -0.58246,0 -0.7809,0.45 -0.44098,1 0.33992,0.55 0.81648,1 1.05902,1 C 233.80156,22 234,21.55 234,21 Z m 8.46984,0.04881 c 0.75793,-1.226361 48.66399,-1.279973 50.53016,-0.05655 1.00253,0.657241 -7.21693,0.973934 -24.7839,0.954916 -14.63941,-0.01585 -26.04571,-0.41385 -25.74626,-0.898366 z M 40.083333,18.641541 c 1.042663,-0.897003 7.909405,-1.438809 7.380058,-0.582307 C 47.143607,18.576655 45.258524,19 43.274316,19 41.290109,19 39.854167,18.838694 40.083333,18.641541 Z M 136,17.896337 c -3.025,-0.337848 7.775,-0.391216 24,-0.118596 16.225,0.27262 29.71987,0.691523 29.9886,0.930896 0.71437,0.636336 -47.51518,-0.08931 -53.9886,-0.8123 z M 50.008548,17.1961 C 50.02096,16.185426 61.057266,12.941817 64,13.083963 c 2.312867,0.111721 2.27544,0.177029 -0.5,0.872491 -1.65,0.413452 -5.3625,1.468134 -8.25,2.343738 -2.8875,0.875604 -5.246153,1.278763 -5.241452,0.895908 z M 93,15.98518 c -4.125,-0.356434 0.825,-0.438791 11,-0.183017 10.175,0.255775 18.6875,0.629923 18.91667,0.831441 C 123.55515,17.195054 101.45943,16.716144 93,15.98518 Z M 70.25,14.271532 c 2.0625,-0.215745 5.4375,-0.215745 7.5,0 2.0625,0.215744 0.375,0.392262 -3.75,0.392262 -4.125,0 -5.8125,-0.176518 -3.75,-0.392262 z"
         style="fill:#6c51b6" />
      <path
         id="path839"
         d="m 72.75,27.294267 c 1.2375,-0.238353 3.2625,-0.238353 4.5,0 1.2375,0.238353 0.225,0.433369 -2.25,0.433369 -2.475,0 -3.4875,-0.195016 -2.25,-0.433369 z M 84,26.616631 c 0,-0.210852 0.900621,-0.618886 2.00138,-0.906741 1.100759,-0.287855 1.749201,-0.115339 1.440983,0.383369 C 86.904112,26.964167 84,27.405705 84,26.616631 Z m 8.8125,-1.299745 c 0.721875,-0.288871 1.584375,-0.253344 1.916667,0.07895 0.332291,0.332292 -0.258334,0.568641 -1.3125,0.52522 -1.164943,-0.04798 -1.4019,-0.284941 -0.604167,-0.604167 z m 10.45653,-0.0099 c 0.97297,-0.253543 2.32297,-0.236869 3,0.03705 0.67703,0.273923 -0.11903,0.481368 -1.76903,0.460988 -1.65,-0.02038 -2.20394,-0.244498 -1.23097,-0.498042 z M 128.26667,24.4 c 0.33,-0.33 2.235,-0.6 4.23333,-0.6 1.99833,0 3.90333,0.27 4.23333,0.6 0.33,0.33 -1.575,0.6 -4.23333,0.6 -2.65833,0 -4.56333,-0.27 -4.23333,-0.6 z M 155.75,23.337719 c 0.6875,-0.277412 1.8125,-0.277412 2.5,0 0.6875,0.277413 0.125,0.504386 -1.25,0.504386 -1.375,0 -1.9375,-0.226973 -1.25,-0.504386 z m 8,-0.06992 c 2.3375,-0.210535 6.1625,-0.210535 8.5,0 2.3375,0.210535 0.425,0.382791 -4.25,0.382791 -4.675,0 -6.5875,-0.172256 -4.25,-0.382791 z m 38,-0.973528 c 1.2375,-0.238353 3.2625,-0.238353 4.5,0 1.2375,0.238353 0.225,0.433369 -2.25,0.433369 -2.475,0 -3.4875,-0.195016 -2.25,-0.433369 z M 32.5,21 C 32.160081,20.45 32.58352,20 33.440983,20 34.298442,20 35,20.45 35,21 35,21.55 34.576558,22 34.059017,22 33.541476,22 32.839919,21.55 32.5,21 Z M 220,21 c 0.825,-0.533156 2.175,-0.944637 3,-0.914402 0.98906,0.03625 0.81874,0.34772 -0.5,0.914402 -2.74909,1.181322 -4.32797,1.181322 -2.5,0 z m 10.5,0 c -0.33992,-0.55 -0.16803,-1 0.38197,-1 0.55,0 1.27811,0.45 1.61803,1 0.33992,0.55 0.16803,1 -0.38197,1 -0.55,0 -1.27811,-0.45 -1.61803,-1 z m 3.5,0.0532 c 0,-0.976842 5.82693,-1.142245 6.42025,-0.182246 0.25025,0.404912 -1.09193,0.780052 -2.98263,0.833646 C 235.54693,21.758196 234,21.465066 234,21.053203 Z m 8.43753,0.04788 c 0.68074,-1.101458 21.89699,-1.130407 23.67376,-0.0323 0.75102,0.464154 -4.26837,0.841581 -11.43316,0.859702 -7.02456,0.01777 -12.53283,-0.354564 -12.2406,-0.8274 z M 205.75,19.337719 c 0.6875,-0.277412 1.8125,-0.277412 2.5,0 0.6875,0.277413 0.125,0.504386 -1.25,0.504386 -1.375,0 -1.9375,-0.226973 -1.25,-0.504386 z M 43.269032,18.307009 c 0.972967,-0.253543 2.322967,-0.236869 3,0.03705 C 46.946064,18.617986 46.15,18.825431 44.5,18.805051 42.85,18.784672 42.296064,18.560553 43.269032,18.307009 Z M 148.75,18.294267 c 1.2375,-0.238353 3.2625,-0.238353 4.5,0 1.2375,0.238353 0.225,0.433369 -2.25,0.433369 -2.475,0 -3.4875,-0.195016 -2.25,-0.433369 z m 12.0625,0.02262 c 0.72187,-0.288871 1.58437,-0.253344 1.91667,0.07895 0.33229,0.332292 -0.25834,0.568641 -1.3125,0.52522 -1.16495,-0.04798 -1.4019,-0.284941 -0.60417,-0.604167 z M 131.75,17.337719 c 0.6875,-0.277412 1.8125,-0.277412 2.5,0 0.6875,0.277413 0.125,0.504386 -1.25,0.504386 -1.375,0 -1.9375,-0.226973 -1.25,-0.504386 z m -29.98834,-1.04498 c 1.24391,-0.239193 3.04391,-0.230112 4,0.02018 0.95609,0.250292 -0.0617,0.445996 -2.26166,0.434897 -2.2,-0.0111 -2.98225,-0.215885 -1.73834,-0.455078 z M 85.8125,15.316886 c 0.721875,-0.288871 1.584375,-0.253344 1.916667,0.07895 0.332291,0.332292 -0.258334,0.568641 -1.3125,0.52522 -1.164943,-0.04798 -1.4019,-0.284941 -0.604167,-0.604167 z M 68.269032,14.307009 c 0.972967,-0.253543 2.322967,-0.236869 3,0.03705 C 71.946064,14.617986 71.15,14.825431 69.5,14.805051 67.85,14.784672 67.296064,14.560553 68.269032,14.307009 Z"
         style="fill:#6b4db9" />
    </g>
  </g>
</svg>
