<?xml version="1.0" encoding="UTF-8" standalone="no"?>
<svg
   xmlns="http://www.w3.org/2000/svg"
   viewBox="0 0 333.53812 19.543377"
   height="19.543377"
   width="333.53812"
   id="svg2"
   version="1.1">
  <metadata
     id="metadata8">
    image/svg+xml
  </metadata>
  <defs
     id="defs6" />
  <g
     transform="translate(-5.1713398,-3.0282766)"
     id="g10"
  >
    <g
       transform="translate(2.6794338)"
       id="g837">
      <path
         id="path865"
         d="M 281.52698,22.193648 C 281.00361,21.670279 268.46616,21.042202 228,19.512157 199.34963,18.428872 184.72169,18.041178 136.5,17.087071 110.1,16.564724 81.525,15.874371 73,15.552952 58.313319,14.999219 22.039091,14.160125 8.05,14.050531 3.3723062,14.013885 1.9012354,13.698765 2.6962938,12.903706 3.4302511,12.169749 14.981591,11.663594 37.646294,11.372272 56.265832,11.132944 75.775,10.723774 81,10.463004 86.225,10.202234 106.25,9.7688982 125.5,9.5000361 144.75,9.2311739 165.225,8.768365 171,8.4715718 c 5.775,-0.2967932 21.525,-0.7837219 35,-1.0820638 13.475,-0.2983419 28.775,-0.8924152 34,-1.320163 5.225,-0.4277477 15.75393,-0.863057 23.39762,-0.9673539 7.64369,-0.104297 14.70161,-0.6199119 15.68426,-1.145811 2.7135,-1.4522212 11.23688,-1.1427374 14.58945,0.5297424 3.0731,1.533065 14.41762,4.0782 22.32867,5.0094212 12.52425,1.4742483 20,2.8280343 20,3.6218083 0,0.485566 -0.5625,0.934157 -1.25,0.996868 -4.19069,0.38226 -7.65995,0.915402 -11.96602,1.838888 C 320.09865,16.528809 315.89871,17 313.45078,17 311.00285,17 309,17.45 309,18 c 0,0.55 -1.9125,1.004871 -4.25,1.010824 -2.3375,0.006 -6.5,0.709642 -9.25,1.563753 -5.34848,1.66116 -13.03973,2.552355 -13.97302,1.619071 z"
         style="fill:#fdf2e8" />
      <path
         id="path863"
         d="m 280.78626,21.45293 c -0.4983,-0.498306 -20.39759,-1.465038 -60.28626,-2.928781 -8.25,-0.30274 -20.85,-0.78942 -28,-1.081513 C 178.33918,16.864137 107.97142,15.394381 44.288139,14.346969 22.171616,13.983214 4.3106735,13.306337 4.5971562,12.842798 4.883639,12.379259 15.021619,12 27.126001,12 39.230383,12 65.641325,11.571045 85.816984,11.046766 105.99264,10.522488 135.325,9.8503756 151,9.553184 178.94836,9.0232945 198.56527,8.4573598 222.5,7.4904571 229.1,7.2238338 241.475,6.7669226 250,6.4750989 c 8.525,-0.2918237 20.94148,-1.0226227 27.59218,-1.6239978 11.2887,-1.0207564 12.48473,-0.9548802 18,0.9914227 3.2493,1.1466576 9.28282,2.5831201 13.40782,3.1921389 4.125,0.6090187 8.625,1.3034443 10,1.5431673 1.375,0.239723 5.7625,0.723811 9.75,1.075751 C 336.24167,12.314802 338.8142,14 332.33191,14 c -2.01744,0 -6.40494,0.423247 -9.75,0.940548 -3.34505,0.517302 -9.68191,1.46519 -14.08191,2.10642 -4.4,0.641229 -10.25,2.017755 -13,3.058947 -4.67488,1.769979 -13.48429,2.576464 -14.71374,1.347015 z"
         style="fill:#fdefd7" />
      <path
         id="path861"
         d="M 278,20.946803 C 244.2768,18.201613 93.539633,14.011771 28.190983,14.003191 12.240408,14.001097 4.0944716,13.656159 4.5,13 4.8849204,12.377186 14.431121,11.998612 29.809017,11.99632 94.788175,11.986635 242.23768,7.905741 279.88441,5.0750955 c 8.76007,-0.6586665 11.1064,-0.5077372 15,0.9648873 5.43561,2.0558308 20.2275,4.6462512 31.89705,5.5859482 4.55481,0.366778 8.47849,0.985664 8.7193,1.375302 0.24081,0.389637 -3.48585,1.003606 -8.28146,1.364374 -12.07394,0.908307 -26.75763,3.484764 -32.7193,5.741053 -2.75,1.040783 -5.45,1.829589 -6,1.752904 -0.55,-0.07668 -5.275,-0.487427 -10.5,-0.912761 z"
         style="fill:#eed7c7" />
      <path
         id="path859"
         d="M 286.90531,21.571973 C 285.27038,19.937044 183.43579,16.438359 91.537728,14.859817 51.958478,14.17996 20.683478,13.32878 22.037728,12.968305 23.391977,12.60783 44.075,12.003161 68,11.624596 118.33537,10.82814 187.02112,9.3010156 208,8.5119053 c 42.23709,-1.5887269 77.92818,-3.3805771 79.71912,-4.0022504 0.67051,-0.2327508 3.66139,0.4170822 6.64639,1.4440732 6.07139,2.0888639 20.40735,4.6818079 31.38449,5.6765079 3.9875,0.36133 7.25,0.984198 7.25,1.384153 0,0.399955 -3.2625,1.02883 -7.25,1.3975 -11.35489,1.049834 -25.43124,3.586164 -31.51016,5.677619 -5.84947,2.012513 -6.64391,2.173087 -7.33453,1.482465 z"
         style="fill:#f6d0ad" />
      <path
         id="path857"
         d="M 266,19.934973 C 235.01144,17.857695 149.65516,15.399261 72.167296,14.352198 c -27.682988,-0.37407 -49.732988,-0.99638 -49,-1.382913 C 23.900283,12.582752 47,11.974217 74.5,11.616983 153.09621,10.595995 230.35545,8.3404007 270.8554,5.8843589 288.30183,4.8263538 289.5646,4.8740995 296.3554,6.8485168 303.8742,9.0346008 322.27391,12 328.31932,12 c 6.84488,0 4.55331,1.713511 -3.10042,2.318335 -9.84627,0.778085 -24.43957,3.29659 -30.14704,5.202762 C 290.36894,21.091771 284.5028,21.175283 266,19.934973 Z"
         style="fill:#e5b68b" />
      <path
         id="path855"
         d="m 269,19.919055 c -4.675,-0.367133 -15.7,-0.949712 -24.5,-1.29462 -8.8,-0.344907 -21.4,-0.849482 -28,-1.121276 -14.94474,-0.615439 -39.97603,-1.285726 -75,-2.008346 C 126.65,15.188425 106.175,14.74288 96,14.504713 85.825,14.266545 64.9,14.048662 49.5,14.020528 31.432142,13.987519 22.032079,13.63279 23,13.020498 c 0.825,-0.521882 10.95,-0.95476 22.5,-0.961951 23.08626,-0.01437 71.35853,-0.77455 101,-1.590517 C 246.18598,7.723888 239.56338,7.9659479 272,5.8809327 288.80499,4.8007136 289.75627,4.8408031 295.95277,6.8903683 302.19969,8.9566092 321.58077,12 328.4922,12 c 1.86437,0 3.62857,0.386397 3.92045,0.85866 0.29187,0.472262 -3.55794,1.167309 -8.55515,1.544548 -9.73473,0.734875 -28.0537,4.096246 -31.04314,5.696145 C 290.92198,21.11212 283.47423,21.055734 269,19.919055 Z"
         style="fill:#dbb490" />
      <path
         id="path853"
         d="M 270,19.934004 C 238.18885,17.798908 159.83069,15.40941 87.165565,14.358547 c -26.03394,-0.376496 -46.73394,-1.001321 -46,-1.388501 C 41.899504,12.582867 63.425,11.975071 89,11.619388 163.63414,10.58142 237.09993,8.3127191 273.58092,5.9193353 c 15.10429,-0.9909367 16.47077,-0.9304667 22.5,0.9956783 C 302.75969,9.0486654 320.41115,12 326.49342,12 328.42204,12 330,12.45 330,13 c 0,0.55 -1.75528,1 -3.90063,1 -5.34114,0 -25.86196,3.579859 -31.22313,5.446877 C 290.18415,21.080889 287.787,21.12783 270,19.934004 Z"
         style="fill:#c69767" />
      <path
         id="path851"
         d="M 264,19.502606 C 230.66701,17.410199 112.42471,13.999001 73.25,13.999618 57.749745,13.999862 49,13.639186 49,13 49,12.3598 58.063042,12 74.189127,12 115.37798,12 227.35392,8.7761277 266.03733,6.4765449 288.65869,5.1317901 289.81662,5.1526476 295.79238,7.0125133 302.65227,9.1475492 319.03086,12 324.43022,12 c 1.89846,0 3.72986,0.45 4.06978,1 0.36788,0.59525 -0.82514,1 -2.94757,1 -5.9423,0 -22.81902,2.82631 -29.63638,4.963147 -3.52883,1.106078 -7.76605,1.955359 -9.41605,1.88729 -1.65,-0.06807 -11.775,-0.674592 -22.5,-1.347831 z"
         style="fill:#ca9257" />
      <path
         id="path849"
         d="M 274.09328,19.946191 C 250.39703,18.009515 170.05695,15.421685 100.66565,14.359922 76.006765,13.982615 56.431765,13.357193 57.165655,12.970096 57.899545,12.582999 78.3,11.974843 102.5,11.618637 173.03729,10.580382 244.06505,8.2725373 276.0992,5.9780255 c 12.50531,-0.8957191 14.06838,-0.8126464 19.43217,1.0327659 3.20813,1.10376 11.26349,2.737028 17.9008,3.6294846 6.63731,0.892456 12.74283,1.856033 13.56783,2.141281 0.825,0.285249 -3.45,1.125838 -9.5,1.867977 -6.05,0.742139 -14.95759,2.474596 -19.79464,3.849904 -4.83706,1.375309 -10.01206,2.436436 -11.5,2.35806 -1.48795,-0.07838 -6.93839,-0.488464 -12.11208,-0.911307 z"
         style="fill:#bb8852" />
      <path
         id="path847"
         d="M 274.5,19.947797 C 247.6396,17.902938 169.84742,15.394798 101.07907,14.356438 76.097553,13.979232 56.522553,13.360686 57.579067,12.981891 58.63558,12.603095 79.25775,11.992435 103.40611,11.624867 c 70.05705,-1.066353 143.6874,-3.4504102 173.52801,-5.6186151 11.09142,-0.8058978 13.04626,-0.6972404 18.10293,1.0062303 3.11785,1.0503282 11.2475,2.6613573 18.06589,3.5800648 14.013,1.888108 16.97476,2.66668 11.89706,3.12744 -9.39499,0.85252 -25.08008,3.663661 -29.96534,5.370501 -3.00594,1.050232 -6.60594,1.844057 -8,1.764056 C 285.6406,20.774543 280,20.366507 274.5,19.947797 Z"
         style="fill:#ae7943" />
      <path
         id="path845"
         d="m 276.5,19.899257 c -15.15137,-1.10018 -53.75797,-2.780309 -79,-3.438016 -11.55,-0.300948 -34.95,-0.977857 -52,-1.504242 C 128.45,14.430614 101.98594,13.999949 86.690983,13.999967 68.406274,13.999989 59.093636,13.65751 59.5,13 59.886846,12.374071 69.915315,12.003977 86.309017,12.010631 126.28927,12.02686 231.50188,8.9098329 270,6.5686047 c 17.86838,-1.086649 19.97742,-1.0380123 25.20579,0.581271 6.93836,2.1488863 21.93533,4.8425583 26.98519,4.8469293 2.03004,0.0018 3.9691,0.453195 4.30902,1.003195 0.36794,0.595333 -0.82654,1 -2.95175,1 -5.54668,0 -21.86456,2.841146 -28.7932,5.013255 -3.44028,1.078519 -6.48005,1.898797 -6.75505,1.822842 -0.275,-0.07596 -5.45,-0.497534 -11.5,-0.93684 z"
         style="fill:#b6742b" />
      <path
         id="path843"
         d="M 262.35951,18.400411 C 243.73778,17.249456 200.36232,15.739396 147.5,14.401728 133.2,14.03987 120.9225,13.726449 120.21667,13.705236 c -0.70584,-0.02121 -0.93084,-0.373997 -0.5,-0.783965 C 120.1475,12.511304 134.225,11.882742 151,11.524468 c 30.88641,-0.659661 98.02792,-3.0428953 125.5,-4.4547085 8.87739,-0.4562166 15.74334,-0.3937908 16.82113,0.1529391 2.92338,1.48294 12.49738,3.7733694 15.97766,3.8224054 1.76067,0.02481 4.55121,0.638124 6.20121,1.362927 2.99563,1.315905 2.99127,1.31882 -3,2.003031 -5.72916,0.654278 -14.13582,2.674713 -19.5,4.686579 -2.72981,1.023831 -2.83269,1.02149 -30.64049,-0.69723 z M 105.75,13.337719 c 0.6875,-0.277412 1.8125,-0.277412 2.5,0 0.6875,0.277413 0.125,0.504386 -1.25,0.504386 -1.375,0 -1.9375,-0.226973 -1.25,-0.504386 z"
         style="fill:#c47313" />
      <path
         id="path841"
         d="m 281.68925,18.693782 c 0.40514,-0.655525 -0.99808,-0.786234 -4.00946,-0.373479 -4.5861,0.628595 -8.03584,0.07129 -7.27383,-1.175088 0.21696,-0.354868 -2.14813,-0.72796 -5.25574,-0.829093 L 259.5,16.132245 264,17.55427 c 3.62681,1.146091 3.84511,1.327303 1.125,0.933877 C 263.26875,18.219666 258.65625,18 254.875,18 250.70291,18 248,17.583646 248,16.940983 c 0,-0.582459 0.40351,-0.809635 0.89669,-0.504834 0.49317,0.304801 2.2618,-0.0198 3.93027,-0.721344 2.63266,-1.10695 0.95023,-1.271514 -12.73003,-1.245166 -11.96043,0.02304 -15.76362,-0.271219 -15.76361,-1.219639 1e-5,-1.077524 3.33418,-1.815751 6.02194,-1.333334 0.47039,0.08443 1.37039,-0.250232 2,-0.743692 2.39156,-1.8744078 6.66483,-2.2842081 7.27369,-0.697537 C 240.01156,11.472507 241.53265,12 244.0252,12 248.80785,12 251,11.180633 251,9.3930112 251,7.8200744 255.25455,7.613262 266.25,8.6517138 270.94971,9.0955723 273,9.7009066 273,10.644605 273,12.244674 266.46076,12.554542 265.5,11 264.6953,9.6979727 260,9.6979727 260,11 c 0,1.442591 -2.75013,1.232962 -3.27976,-0.25 -0.24554,-0.6875 -0.81875,-0.9017857 -1.27381,-0.47619 -1.91161,1.787834 2.29901,3.627155 8.96071,3.914301 5.59412,0.241129 6.9945,0.631741 7.36664,2.054807 0.49767,1.903127 3.23213,2.351173 4.79726,0.786043 0.62805,-0.628052 2.64138,-0.468339 5.7,0.452169 C 284.93551,18.283017 287,18.488656 287,17.952169 287,17.428476 286.475,17 285.83333,17 c -0.64166,0 -0.8966,-0.270061 -0.56653,-0.600136 0.33008,-0.330074 1.17354,-0.245752 1.87437,0.187382 0.70082,0.433134 2.41826,0.901676 3.81653,1.041204 l 2.5423,0.253687 -2.5,-1.391025 -2.5,-1.391026 3.25,-0.675043 c 1.7875,-0.371274 3.25,-1.117577 3.25,-1.658451 0,-0.55035 -1.10396,-0.706331 -2.50693,-0.354209 -2.77051,0.695354 -2.97249,-0.556904 -0.57001,-3.5340527 1.043,-1.292477 1.89344,-1.5117197 3.18426,-0.8208939 C 296.07598,8.5758464 297.82466,9 298.99328,9 c 1.16861,0 1.85727,0.4328053 1.53034,0.9617895 -0.38054,0.6157195 -1.50466,0.6157195 -3.12412,0 -3.78174,-1.4378126 -4.60019,-1.1711045 -2.6495,0.8633815 1.55393,1.620675 2.16725,1.682692 5.47406,0.553513 2.05285,-0.700991 3.9683,-0.876462 4.26832,-0.391015 0.29935,0.484353 2.01005,0.64278 3.80155,0.352058 1.86603,-0.302814 4.74128,0.117591 6.73168,0.98427 2.56669,1.117614 2.93882,1.534167 1.42439,1.594429 -1.1275,0.04487 -2.55705,-0.425479 -3.17678,-1.04521 -0.66983,-0.669825 -2.25057,-0.844732 -3.89785,-0.431292 -2.16551,0.543508 -2.45467,0.895659 -1.32322,1.611471 1.88278,1.191138 0.73084,1.194796 -2.39173,0.0076 -3.49613,-1.329227 -8.24862,0.136799 -7.8354,2.417031 0.23773,1.311878 -0.11791,1.623563 -1.32431,1.160626 -0.90712,-0.348096 -2.27827,-0.0039 -3.04699,0.764775 -1.64041,1.640408 -12.76859,1.915063 -11.76447,0.290359 z M 207.5,16 c -8.8,-0.317545 -15.325,-0.725692 -14.5,-0.906992 0.825,-0.181301 0.15,-0.696117 -1.5,-1.144037 -2.14237,-0.581582 -1.28475,-0.698517 3,-0.40904 5.42913,0.366792 5.69078,0.299054 2.75,-0.711946 C 195.4625,12.213467 194,11.325776 194,10.85534 194,10.384903 199.78719,10 206.86043,10 c 7.07323,0 14.83573,-0.1665894 17.25,-0.3701987 2.41426,-0.2036093 3.14353,-0.1744609 1.62059,0.064774 -1.52295,0.2392353 -2.50889,0.8558247 -2.19099,1.3701987 0.3179,0.514374 -0.23605,0.966854 -1.23101,1.005511 -1.61477,0.06274 -1.59427,0.162568 0.19098,0.929715 1.84704,0.793699 1.8088,0.872314 -0.5,1.02789 -1.89281,0.127546 -1.40706,0.485084 2,1.47211 2.5194,0.729871 3.39967,1.25385 2,1.190503 C 224.625,16.628272 216.3,16.317545 207.5,16 Z M 206,13.866866 c 1.92641,0.235143 2.23316,0.03005 1.33696,-0.89389 -0.63966,-0.659475 -3.33966,-1.347189 -6,-1.528252 -2.66033,-0.181063 -3.82446,-0.0989 -2.58696,0.182586 1.2375,0.281486 2.25,1.182052 2.25,2.001258 0,0.939926 0.46119,1.202362 1.25,0.711303 0.6875,-0.42799 2.375,-0.640842 3.75,-0.473005 z m 11.5,0.107001 c 1.40182,-0.620698 0.65409,-0.753967 -2.5,-0.445579 -3.16678,0.309628 -3.75932,0.20306 -2,-0.359697 l 2.5,-0.79968 -2.77387,-0.550346 c -3.05646,-0.606414 -4.77911,0.900386 -2.60425,2.277926 1.71745,1.087809 4.75856,1.037266 7.37812,-0.122624 z m 19.3125,2.343019 c 0.72187,-0.288871 1.58437,-0.253344 1.91667,0.07895 0.33229,0.332292 -0.25834,0.568641 -1.3125,0.52522 -1.16495,-0.04798 -1.4019,-0.284941 -0.60417,-0.604167 z M 300,16 c 0.825,-0.533156 2.175,-0.969374 3,-0.969374 1.33333,0 1.33333,0.107708 0,0.969374 -0.825,0.533156 -2.175,0.969374 -3,0.969374 -1.33333,0 -1.33333,-0.107708 0,-0.969374 z M 140.88501,14.551675 c -0.24658,-0.246579 -5.30722,-0.525941 -11.24586,-0.620805 -5.93865,-0.09486 -10.4244,-0.511576 -9.96835,-0.926027 1.25451,-1.140058 40.49029,-2.074502 39.79391,-0.947736 -0.32051,0.518591 0.23131,0.949784 1.22627,0.958206 1.36729,0.01157 1.48452,0.221031 0.48009,0.857797 -1.64889,1.045325 -14.81052,0.791667 -18.07744,-0.348399 -1.73344,-0.604922 -2.20632,-0.51606 -1.69098,0.317765 0.70144,1.134957 0.36671,1.593553 -0.51764,0.709199 z M 155.5,13 c 1.66649,-0.716114 1.4482,-0.87115 -1.30902,-0.929715 -1.96611,-0.04176 -3.0582,0.335546 -2.69098,0.929715 0.72049,1.165778 1.28709,1.165778 4,0 z m 19.75,1.310674 c 0.9625,-0.251527 2.5375,-0.251527 3.5,0 0.9625,0.251528 0.175,0.457323 -1.75,0.457323 -1.925,0 -2.7125,-0.205795 -1.75,-0.457323 z m 9.5625,0.0062 c 0.72187,-0.288871 1.58437,-0.253344 1.91667,0.07895 0.33229,0.332292 -0.25834,0.568641 -1.3125,0.52522 -1.16495,-0.04798 -1.4019,-0.284941 -0.60417,-0.604167 z m 125.69458,-0.305432 c -0.35034,-0.56686 0.0511,-0.734507 0.94098,-0.393011 C 313.18048,14.283234 313.49745,15 312.05902,15 c -0.51754,0 -1.21592,-0.444846 -1.55194,-0.988546 z M 105.75,13.337719 c 0.6875,-0.277412 1.8125,-0.277412 2.5,0 0.6875,0.277413 0.125,0.504386 -1.25,0.504386 -1.375,0 -1.9375,-0.226973 -1.25,-0.504386 z m 64.61228,-0.03333 c 1.06512,-1.06512 3.72328,-1.251848 3.08347,-0.216604 C 173.13567,13.589503 172.15852,14 171.27432,14 c -0.88421,0 -1.29463,-0.313025 -0.91204,-0.695611 z M 274.75,13.294267 C 277.66283,12.733232 277.88017,9 275,9 c -1.1,0 -2,-0.5024597 -2,-1.1165772 0,-0.716432 0.98551,-0.8726416 2.75,-0.435892 1.5125,0.3743769 4.775,0.7961689 7.25,0.9373157 4.05795,0.231421 4.53108,0.5198221 4.81642,2.9358925 L 288.13284,14 280.31642,13.863818 c -4.29903,-0.0749 -6.80392,-0.331198 -5.56642,-0.569551 z m -108,-1.956548 c 0.6875,-0.277412 1.8125,-0.277412 2.5,0 0.6875,0.277413 0.125,0.504386 -1.25,0.504386 -1.375,0 -1.9375,-0.226973 -1.25,-0.504386 z M 266.76166,7.2927391 c 1.24391,-0.2391932 3.04391,-0.2301119 4,0.020181 C 271.71775,7.5632124 270.7,7.758916 268.5,7.7478166 266.3,7.7367172 265.51775,7.5319324 266.76166,7.2927391 Z m 21.86664,-0.085153 c -0.26936,-0.4358278 0.38881,-0.8585934 1.46259,-0.9394791 1.07379,-0.080886 1.69105,0.2757007 1.37171,0.7924142 -0.70856,1.1464754 -2.16978,1.2222941 -2.8343,0.1470649 z"
         style="fill:#bd7218" />
      <path
         id="path839"
         d="m 271.12612,18.208707 c -0.62622,-0.20874 -0.91583,-0.739938 -0.64359,-1.180441 0.27225,-0.440502 -4.11245,-0.663242 -9.74377,-0.494977 -8.88778,0.265568 -9.86494,0.140521 -7.40569,-0.947702 2.34798,-1.038982 -1.79704,-1.224458 -24.2079,-1.083225 -14.87253,0.09373 -26.84565,-0.145612 -26.60694,-0.531865 0.23872,-0.386253 1.56978,-0.485168 2.9579,-0.21981 3.13129,0.598582 3.30635,-0.500615 0.27387,-1.719525 -2.04877,-0.823504 -1.96214,-0.910058 0.96862,-0.967776 2.61108,-0.05142 3.09739,0.252514 2.57639,1.610223 -0.49516,1.290351 -0.24024,1.519351 1.11317,1 0.96547,-0.370485 2.50609,-0.718465 3.42361,-0.773289 1.00592,-0.06011 0.6757,-0.415574 -0.83179,-0.895371 -1.47189,-0.468468 1.81807,-0.67282 8,-0.496912 5.775,0.164329 10.95,-0.0457 11.5,-0.466741 2.30526,-1.7647233 6.53992,-2.1008488 7.12895,-0.565859 0.78464,2.044756 8.6899,2.062856 10.72819,0.02456 C 251.50129,9.3558559 254.36508,9 262.42857,9 269.54534,9 273,8.6351109 273,7.8834228 c 0,-0.716432 0.98551,-0.8726416 2.75,-0.435892 1.5125,0.3743769 4.775,0.7961689 7.25,0.9373157 4.05795,0.231421 4.53108,0.5198221 4.81642,2.9358925 L 288.13284,14 280.31642,13.863818 C 276.01739,13.788918 273.5125,13.53262 274.75,13.294267 277.66283,12.733232 277.88017,9 275,9 c -1.11111,0 -2,0.6666667 -2,1.5 0,1.731022 -6.4725,2.162522 -7.5,0.5 C 264.74021,9.7706284 255,9.6570439 255,10.877555 c 0,1.987467 2.92909,3.012789 9.43345,3.302161 5.5646,0.247562 6.96873,0.642235 7.34033,2.063202 0.49672,1.899473 3.2312,2.352107 4.79036,0.792942 0.61885,-0.618854 2.49029,-0.513522 5.2256,0.294118 l 4.26145,1.258257 h -6.89324 c -3.79129,0 -7.40561,-0.170787 -8.03183,-0.379528 z m -52.39695,-4.812874 c -0.3323,-0.332291 -1.1948,-0.367818 -1.91667,-0.07895 -0.79773,0.319226 -0.56078,0.556183 0.60417,0.604167 1.05416,0.04342 1.64479,-0.192928 1.3125,-0.52522 z M 224.5,13 c -0.33992,-0.55 -1.37898,-0.968372 -2.30902,-0.929715 -1.37849,0.0573 -1.32139,0.229105 0.30902,0.929715 2.67591,1.149879 2.71066,1.149879 2,0 z m 61.71057,4.461963 c -1.24721,-1.414106 -0.22361,-2.141665 1.12116,-0.796896 0.36579,0.365786 1.90329,0.789267 3.41667,0.941068 l 2.7516,0.276002 -2.5,-1.391025 -2.5,-1.391026 3.25,-0.675043 C 295.28301,13.691217 296.19591,12 293.05902,12 c -1.06754,0 -2.2191,-0.45 -2.55902,-1 -0.35127,-0.568364 0.50008,-1 1.97237,-1 1.42472,0 2.83956,0.649306 3.14409,1.442902 0.39509,1.02959 1.17716,1.205864 2.73023,0.615385 1.1971,-0.455135 4.61742,-0.827518 7.60071,-0.827518 5.08893,0 5.27363,0.08339 2.98839,1.34918 -1.33968,0.742049 -1.79829,1.365126 -1.01912,1.384616 0.77916,0.01949 1.17907,0.273025 0.88868,0.563413 -0.29038,0.290388 -1.67249,0.09283 -3.07134,-0.439009 -2.93984,-1.117725 -8.35541,0.08586 -7.98401,1.774406 C 297.8875,16.488519 297.12656,17 296.05902,17 c -1.06754,0 -2.2191,0.45 -2.55902,1 -0.924,1.495057 -5.81465,1.134074 -7.28943,-0.538037 z M 236.8125,16.316886 c 0.72187,-0.288871 1.58437,-0.253344 1.91667,0.07895 0.33229,0.332292 -0.25834,0.568641 -1.3125,0.52522 -1.16495,-0.04798 -1.4019,-0.284941 -0.60417,-0.604167 z M 156.5,14.024838 c -2.8644,-0.574396 -2.89391,-0.630669 -0.65277,-1.24502 2.65985,-0.729128 7.42952,0.556568 5.06324,1.364828 C 160.13471,14.409624 158.15,14.35571 156.5,14.024838 Z m 18.75,0.285836 c 0.9625,-0.251527 2.5375,-0.251527 3.5,0 0.9625,0.251528 0.175,0.457323 -1.75,0.457323 -1.925,0 -2.7125,-0.205795 -1.75,-0.457323 z m 9.5625,0.0062 c 0.72187,-0.288871 1.58437,-0.253344 1.91667,0.07895 0.33229,0.332292 -0.25834,0.568641 -1.3125,0.52522 -1.16495,-0.04798 -1.4019,-0.284941 -0.60417,-0.604167 z M 191.5,13.948971 c -2.11525,-0.574218 -1.23049,-0.686816 3,-0.381792 l 6,0.432607 -3.5,-1.51404 c -2.35609,-1.019203 -2.68292,-1.350463 -1,-1.013548 1.375,0.275271 3.0625,0.506637 3.75,0.514147 0.6875,0.0075 1.25,0.688655 1.25,1.513655 0,1.662337 -4.28444,1.86482 -9.5,0.448971 z m -21.13772,-0.644582 c 1.06512,-1.06512 3.72328,-1.251848 3.08347,-0.216604 C 173.13567,13.589503 172.15852,14 171.27432,14 c -0.88421,0 -1.29463,-0.313025 -0.91204,-0.695611 z M 166.75,11.337719 c 0.6875,-0.277412 1.8125,-0.277412 2.5,0 0.6875,0.277413 0.125,0.504386 -1.25,0.504386 -1.375,0 -1.9375,-0.226973 -1.25,-0.504386 z"
         style="fill:#c4720d" />
    </g>
  </g>
</svg>
