<?xml version="1.0" encoding="UTF-8" standalone="no"?>
<svg
   xmlns="http://www.w3.org/2000/svg"
   viewBox="0 0 333.66916 19.020151"
   height="19.020151"
   width="333.66916"
   id="svg2"
   version="1.1">
  <metadata
     id="metadata8">
    image/svg+xml
  </metadata>
  <defs
     id="defs6" />
  <g
     transform="translate(-6.1220881,-5.3844137)"
     id="g10"
  >
    <g
       transform="translate(-11.044994,-1.2272218)"
       id="g837">
      <path
         id="path865"
         d="M 62.731112,25.397778 C 62.068437,24.735103 59.322028,24.180261 56.190983,24.076511 54.920264,24.034405 54.159878,23.550329 54.5,23 54.839919,22.45 54.753976,21.968995 54.309017,21.9311 53.864058,21.893205 52.15,21.620937 50.5,21.326059 48.85,21.031181 46.0375,20.724686 44.25,20.644959 42.4625,20.565231 41,20.25409 41,19.953534 41,19.652978 39.7625,19.449575 38.25,19.501527 36.7375,19.55348 34.2625,19.268302 32.75,18.867799 31.199025,18.457108 30,18.545185 30,19.069806 30,19.581413 29.1,20 28,20 c -1.1,0 -2,-0.586856 -2,-1.304125 0,-0.863399 -1.415008,-1.306511 -4.187062,-1.311186 -5.413526,-0.0091 -6.480159,-2.338333 -1.146271,-2.50311 2.108333,-0.06513 4.120178,-0.08202 4.470767,-0.03752 0.350588,0.04449 2.150588,-0.369538 4,-0.920071 C 30.986845,13.373453 35.425,12.715872 39,12.462697 47.056517,11.892146 47.925253,11.719393 50.870677,10.102139 52.294743,9.3202224 52.969953,9.2396008 52.56166,9.9002318 51.542408,11.549416 53.568566,11.224773 54.990862,9.5110105 55.670525,8.6920662 56.625626,8.2686239 57.113307,8.5700275 57.600988,8.8714311 58,8.6925511 58,8.1725164 58,6.7063216 63.925325,6.1478722 70,7.0415416 c 6.139687,0.9032337 20.803501,1.718234 44,2.4454766 8.525,0.2672706 20.225,0.7404648 26,1.0515438 16.11135,0.86786 17.52348,0.873979 18.80577,0.08148 0.65683,-0.405942 1.19453,-0.374018 1.1949,0.07094 3.6e-4,0.444959 8.66286,0.938291 19.25,1.096292 10.58713,0.158002 20.82433,0.43173 22.74933,0.608285 1.925,0.176555 4.3418,-0.110115 5.37068,-0.637044 1.05535,-0.540491 1.62434,-0.559474 1.30548,-0.04355 -0.64366,1.041467 6.13076,1.272033 49.07384,1.67022 21.20851,0.196655 30.25458,-0.04316 30.26531,-0.802345 0.008,-0.595561 0.41478,-0.451899 0.90301,0.319248 0.71804,1.134115 6.30544,1.472966 29.23469,1.772956 26.97557,0.352929 33.74652,0.758765 32.55406,1.951223 -0.29091,0.290911 -10.53988,0.520641 -22.77548,0.510512 -16.00213,-0.01325 -23.3351,0.356615 -26.12461,1.317679 -2.98023,1.026774 -3.63815,1.047043 -2.84184,0.08755 0.81254,-0.979056 -0.0971,-1.156204 -4.21447,-0.820721 -2.88787,0.235305 -6.50358,0.82624 -8.03492,1.31319 -1.53133,0.48695 -2.58722,0.565901 -2.34641,0.175445 C 284.61015,18.819463 280.61849,18.5 275.49899,18.5 c -5.90632,0 -9.1067,0.36547 -8.75688,1 0.30321,0.55 0.027,0.519236 -0.61377,-0.06836 -0.70826,-0.649468 -3.09627,-0.820614 -6.09046,-0.436495 -2.70897,0.347528 -4.73903,0.33032 -4.51124,-0.03824 0.42091,-0.681047 -18.68747,-0.4659 -48.52664,0.546377 -21.8419,0.740973 -62.67196,1.773954 -71.7011,1.814003 -3.96061,0.01757 -7.0414,0.290865 -6.8462,0.607329 0.1952,0.316464 -6.46431,0.641147 -14.7989,0.721517 C 105.31921,22.726499 94,23.078504 88.5,23.428362 83,23.778219 75.454867,24.253121 71.733037,24.4837 c -3.721829,0.230578 -7.146563,0.653839 -7.61052,0.94058 -0.463956,0.286741 -1.090089,0.274815 -1.391405,-0.0265 z M 27.8125,12.316886 c 0.721875,-0.288871 1.584375,-0.253344 1.916667,0.07895 0.332291,0.332292 -0.258334,0.568641 -1.3125,0.52522 -1.164943,-0.04798 -1.4019,-0.284941 -0.604167,-0.604167 z m 263,0 c 0.72187,-0.288871 1.58438,-0.253344 1.91667,0.07895 0.33229,0.332292 -0.25834,0.568641 -1.3125,0.52522 -1.16495,-0.04798 -1.4019,-0.284941 -0.60417,-0.604167 z"
         style="fill:#fdecfd" />
      <path
         id="path863"
         d="m 58,22.785498 c -5.889732,-2.07946 -28.732983,-5.773288 -35.75,-5.780892 -7.647983,-0.0083 -4.455518,-1.693898 4.5,-2.375984 11.262337,-0.857783 25.328113,-3.295452 31.994148,-5.5447467 4.391622,-1.4818481 6.911414,-1.6444507 15.5,-1.0002177 C 111.67469,10.891337 258.10873,14.961704 323.5,15.012121 c 13.2,0.01018 24.58321,0.388473 25.29603,0.840657 0.71282,0.452184 -22.91218,1.128985 -52.5,1.504002 C 199.4185,18.584674 86.762782,22.027341 66.5,24.379159 64.85,24.570668 61.025,23.85352 58,22.785498 Z"
         style="fill:#edcfe8" />
      <path
         id="path861"
         d="M 57.5,22.44322 C 53.029217,20.696993 29.821028,17.011726 23.25,17.004606 15.534612,16.996245 18.831508,15.299679 27.89235,14.615675 38.823554,13.790479 51.792863,11.56168 58.36419,9.3790355 62.757753,7.9197281 65.44455,7.8640907 82.899029,8.8709755 131.34804,11.665821 206.07957,13.768707 288,14.642354 c 32.175,0.343132 59.175,0.990433 60,1.438445 0.825,0.448013 -12.675,0.838934 -30,0.868715 -51.99108,0.08937 -168.71168,2.874834 -213,5.083114 -41.344837,2.061512 -43.231472,2.07782 -47.5,0.410592 z"
         style="fill:#e2d1de" />
      <path
         id="path859"
         d="M 57.614948,22.437789 C 52.76536,20.597025 39.536415,18.258326 29.006108,17.380132 24.602749,17.012906 21,16.422951 21,16.069121 c 0,-0.35383 5.310583,-1.201852 11.801295,-1.884494 6.490712,-0.682641 15.378212,-2.214768 19.75,-3.404725 C 61.901957,8.2347446 68.5352,8.102526 101.5,9.804221 c 42.20867,2.178878 155.94853,5.114025 204,5.264381 12.65,0.03958 23.9,0.458712 25,0.931398 1.19511,0.513558 -7.65864,0.891059 -22,0.938024 -45.62656,0.149417 -164.35806,3.102662 -203.5,5.061717 -39.197527,1.961838 -43.271332,1.999498 -47.385052,0.438048 z"
         style="fill:#d3abca" />
      <path
         id="path857"
         d="M 58.5,22.391339 C 53.417718,20.526475 31.997923,17.000454 25.75,17.000196 23.1375,17.000088 21,16.55 21,16 c 0,-0.55 2.1375,-1.002653 4.75,-1.005895 7.014019,-0.0087 23.759137,-2.688454 31.651222,-5.0651969 6.501184,-1.9578658 7.834411,-2.0159077 23,-1.0013035 C 100.74098,10.28837 137.36679,11.776638 169,12.527763 c 13.475,0.319962 29,0.762176 34.5,0.982699 5.5,0.220524 35.875,0.712035 67.5,1.092248 31.625,0.380213 58.4,1.046621 59.5,1.480907 1.1,0.434286 -11.95,0.822746 -29,0.863245 C 244.53294,17.082176 136.4258,19.953303 91,22.537356 61.145895,24.235611 63.555672,24.246438 58.5,22.391339 Z"
         style="fill:#c7b3c4" />
      <path
         id="path855"
         d="M 56.903513,21.987371 C 50.86764,20.032111 32.243592,17 26.269726,17 c -7.009073,0 -1.74433,-1.691653 8.977338,-2.884575 5.910886,-0.65766 14.235886,-2.176334 18.5,-3.374831 C 62.703337,8.2232929 66.290544,8.1446429 97,9.7922676 c 41.17171,2.2089464 147.76216,5.1145724 193.5,5.2747564 11.55,0.04045 21.9,0.46029 23,0.932976 1.20055,0.515895 -6.99378,0.891621 -20.5,0.939963 C 242.59643,17.12037 132.68835,20.165909 91,22.537356 61.200585,24.2325 63.972223,24.277208 56.903513,21.987371 Z"
         style="fill:#c39aba" />
      <path
         id="path853"
         d="M 58.5,22.439447 C 53.73209,20.61041 33.421886,17 27.900627,17 20.020228,17 24.319716,15.399933 35.346381,14.229041 41.58689,13.566378 50.664498,11.873235 55.518841,10.466501 64.142938,7.9673358 64.689968,7.9322472 79.422461,8.9332297 113.02943,11.216617 189.94707,13.597732 263.5,14.631661 c 25.85,0.363371 47.9,1.016376 49,1.451121 1.1,0.434745 -8.125,0.820156 -20.5,0.856469 -57.3312,0.168232 -169.17844,3.474554 -221,6.532994 -6.237763,0.368144 -9.564582,0.09327 -12.5,-1.032798 z"
         style="fill:#b38eac" />
      <path
         id="path851"
         d="M 59.19044,22.441311 C 55.542634,20.792798 34.778017,17 29.400627,17 22.925685,17 26.033075,15.272905 33.75,14.582607 42.348383,13.813461 57.900193,10.658966 60.833677,9.0890136 62.126586,8.3970694 70.126317,8.5234719 86.112582,9.4884418 123.89363,11.768998 229.14687,14.891517 274,15.062447 c 11.275,0.04297 21.4,0.464867 22.5,0.937553 1.20432,0.517515 -6.55354,0.890702 -19.5,0.938035 -53.71379,0.196382 -167.38399,3.767451 -207.5,6.51883 -4.950484,0.339532 -7.968999,0.04219 -10.30956,-1.015554 z"
         style="fill:#ab71a1" />
      <path
         id="path849"
         d="m 55.724406,21.453688 c -4.276576,-1.306263 -12.826576,-2.999349 -19,-3.762414 C 30.550983,16.92821 26.175,16.070015 27,15.784175 28.65574,15.210506 51.174908,11.840676 54.75,11.63159 55.9875,11.559215 57,11.233729 57,10.908288 c 0,-0.325442 1.688535,-1.09761 3.752299,-1.715929 2.652009,-0.7945611 7.270398,-0.8522996 15.75,-0.1969044 C 104.18939,11.135411 180.06182,13.597825 249.5,14.610035 c 24.75,0.360784 45.675,1.032435 46.5,1.492559 0.84484,0.471187 -7.45389,0.851771 -19,0.871348 -50.99076,0.08646 -174.95427,3.922386 -208,6.436354 -3.910237,0.297473 -7.747518,-0.26808 -13.275594,-1.956608 z"
         style="fill:#a4689a" />
      <path
         id="path847"
         d="M 61.5,23.052611 C 60.4,22.550989 59.8926,22.108942 60.372445,22.070285 60.852289,22.031628 60.684689,21.325 60,20.5 c -1.467466,-1.768188 0.06049,-2.039508 1.783333,-0.316667 0.650834,0.650834 1.435048,0.931619 1.742699,0.623969 0.30765,-0.307651 -1.000342,-1.479614 -2.906649,-2.604363 -2.769837,-1.634244 -3.571616,-1.769802 -3.991771,-0.674896 -0.310929,0.810269 -0.02137,1.176549 0.708657,0.896413 0.711419,-0.272997 1.300587,0.404786 1.390602,1.599757 0.113948,1.512705 -0.301268,1.93725 -1.535342,1.569835 C 51.724717,19.966437 45.288355,18.754171 36,17.602699 c -5.775,-0.715923 -9.825,-1.534904 -9,-1.819956 1.447689,-0.500203 23.440591,-3.800381 27.482952,-4.123996 1.112272,-0.08904 1.990437,0.463286 2,1.25792 0.0094,0.779166 0.692048,1.600925 1.517048,1.826131 1.333333,0.363968 1.333333,0.283921 0,-0.720423 -1.262701,-0.951141 -1.183602,-1.075773 0.5,-0.787817 1.162776,0.198876 1.941859,1.058603 1.861111,2.053757 C 60.189762,17.400049 61.346115,17.492809 63,15.5 64.029902,14.259044 63.921525,13.986366 62.372445,13.921053 61.318802,13.876628 61.046613,13.621542 61.75,13.337719 62.4375,13.060307 62.986316,12.083333 62.969591,11.166667 62.94133,9.617692 62.870881,9.6170092 61.971948,11.156997 60.956157,12.897179 57,12.594324 57,10.77638 c 0,-0.544697 0.645927,-0.742492 1.435392,-0.439546 0.789466,0.302947 1.615661,0.01359 1.835989,-0.6430111 C 60.740274,8.2964674 64.68555,8.3185191 91.5,9.8683721 c 38.69683,2.2366439 129.01562,4.8254419 175,5.0160049 15.4,0.06382 28.58327,0.492835 29.29615,0.95337 0.71559,0.46228 -18.54479,1.158152 -43,1.553578 -57.44148,0.928795 -88.81374,1.67198 -117.71802,2.78865 -20.42818,0.78921 -23.61596,0.710764 -24.94047,-0.613745 -1.88704,-1.887036 -0.73773,-3.309133 1.30455,-1.61419 0.8198,0.680373 2.06818,1.005024 2.77417,0.721448 0.78467,-0.315182 0.58045,-0.54628 -0.5254,-0.594541 -1.1025,-0.04811 -1.53034,-0.529843 -1.09549,-1.233455 0.42587,-0.68907 0.27594,-0.884068 -0.37188,-0.483689 -0.59698,0.368952 -1.36807,0.21348 -1.71353,-0.345491 C 110.16462,15.45734 109.38352,15 108.77432,15 c -0.60921,0 -0.81156,0.296096 -0.44966,0.657991 0.36189,0.361895 0.12833,1.296192 -0.51903,2.076215 -0.91602,1.103737 -0.85866,1.622762 0.25867,2.340612 0.95229,0.611815 0.34141,0.712417 -1.8143,0.298785 -1.86875,-0.358572 -3.25,-0.209709 -3.25,0.350263 0,0.560805 -6.671572,1.271494 -15.729427,1.675577 -8.651185,0.385941 -17.538685,0.895998 -19.75,1.133459 C 65.309258,23.770364 62.6,23.554233 61.5,23.052611 Z m 12.275228,-3.326384 c 1.01355,-0.805124 0.910949,-1.423824 -0.5,-3.015082 -1.732311,-1.95369 -1.708746,-1.989839 0.974772,-1.49529 1.5125,0.278741 2.75,0.119204 2.75,-0.354527 0,-0.47373 -1.2375,-0.906184 -2.75,-0.961008 L 71.5,13.80064 74,13 c 2.009731,-0.643629 2.107785,-0.806404 0.5,-0.830035 -2.599697,-0.03821 -6.782214,1.656273 -4.34362,1.75975 1.152343,0.0489 1.497228,0.678887 1.133369,2.070285 -0.592092,2.264163 -1.838604,2.609596 -2.706416,0.75 -0.466666,-1 -0.7,-1 -1.166666,0 -0.320834,0.6875 -1.247391,1.25 -2.059017,1.25 -0.860806,0 -1.178377,-0.481053 -0.762158,-1.154508 0.445627,-0.72104 0.273932,-0.882825 -0.457295,-0.430902 -2.016963,1.246551 -0.174756,2.582224 3.67082,2.661488 L 71.5,19.152156 68,20.546397 l -3.5,1.394241 4,-0.600709 c 2.2,-0.33039 4.573853,-1.056556 5.275228,-1.613702 z m 16.356705,-0.098 L 93.5,19.944719 90.077075,19.063292 c -1.882609,-0.484785 -5.032609,-0.660079 -7,-0.389542 -2.406135,0.330869 -3.140447,0.182985 -2.243229,-0.451769 1.078805,-0.763221 1.021073,-1.063676 -0.301938,-1.571363 -0.956039,-0.366867 -1.381903,-0.216922 -1.024829,0.360836 0.336025,0.5437 -0.203103,1.040747 -1.198062,1.104547 -1.687414,0.108204 -1.690558,0.146902 -0.04677,0.575682 0.969234,0.252825 1.543894,0.812977 1.277023,1.244783 -0.266871,0.431807 1.249489,0.467889 3.36969,0.08018 2.1202,-0.387706 5.37054,-0.562498 7.222977,-0.388425 z M 101,19.924012 C 102.11102,19.149731 101.59239,19.039777 99,19.5 96.407613,19.960223 95.888977,19.850269 97,19.075988 98.674687,17.908885 97.990575,17.68265 95.581787,18.606989 94.711804,18.940833 94,19.615833 94,20.106989 c 0,1.231787 5.163619,1.096812 7,-0.182977 z M 55.425794,17.332783 c 0.867091,-2.259603 -0.692716,-3.597372 -3.560459,-3.05363 -2.171085,0.411652 -2.139495,0.459667 0.384665,0.584665 1.5125,0.0749 2.75,0.548828 2.75,1.053173 0,0.504346 -1.541639,0.79467 -3.425865,0.645166 -1.884226,-0.149505 -3.936237,0.0436 -4.560024,0.429122 -0.623787,0.385521 0.28907,0.741413 2.028569,0.790871 1.7395,0.04946 3.416511,0.343707 3.72669,0.653887 1.010137,1.010137 2.003801,0.597453 2.656424,-1.103254 z m 49.932166,-2.002562 c -1.30532,-1.004031 -1.19046,-1.232696 0.81062,-1.613818 2.1041,-0.400745 2.0639,-0.457317 -0.41231,-0.580221 -2.33102,-0.115698 -2.68063,0.202259 -2.32431,2.113818 0.23068,1.2375 0.45286,2.605242 0.49373,3.039427 0.0409,0.434184 0.72203,0.209184 1.51369,-0.5 1.25027,-1.12002 1.23957,-1.443114 -0.0814,-2.459206 z m 12.38185,1.266735 c -0.70154,-0.70154 -1.94249,-1.567206 -2.75767,-1.923703 -0.81518,-0.356496 0.54286,-0.376908 3.01786,-0.04536 5.34342,0.715797 6,1.03655 6,2.931125 0,0.79254 0.49814,1.440982 1.10699,1.440982 0.60884,0 0.84797,-0.675 0.53138,-1.5 -0.63915,-1.665613 0.88778,-2.07572 1.86163,-0.5 0.33992,0.55 1.1416,1 1.78152,1 1.50785,0 -2.1799,-2.582451 -4.78152,-3.348404 -1.1,-0.323855 -0.20354,-0.38856 1.99214,-0.143788 2.19568,0.244771 4.14568,0.905648 4.33333,1.468616 C 131.01313,16.539391 132.12929,17 133.30584,17 c 2.07918,0 2.07163,-0.04731 -0.26919,-1.686881 -1.82523,-1.278443 -4.78462,-1.716839 -12.2225,-1.810613 C 115.41637,13.434453 111,13.743549 111,14.189386 111,14.635224 111.60526,15 112.34501,15 c 0.73976,0 2.1499,0.889388 3.13365,1.976419 0.98375,1.08703 2.18194,1.733339 2.66266,1.436242 0.48071,-0.297097 0.30003,-1.114164 -0.40151,-1.815705 z M 137,17.986085 c 1.05532,-0.691794 0.46242,-0.792897 -2,-0.341047 -4.31279,0.791387 -5.12629,1.359986 -1.91667,1.339649 1.32917,-0.0084 3.09167,-0.457793 3.91667,-0.998602 z m 12.40343,-2.14234 c -0.28681,-0.46406 -1.50741,-0.836854 -2.71245,-0.828432 C 144.90975,15.027762 144.78052,15.211914 146,16 c 1.29269,0.835399 1.26629,0.971491 -0.19098,0.984687 -0.93004,0.0084 -1.94319,0.423392 -2.25145,0.922155 -0.30825,0.498763 0.9983,0.428448 2.90343,-0.156255 1.90514,-0.584704 3.22923,-1.442783 2.94243,-1.906842 z M 93.2,16.8 C 91.450619,15.050619 91.728652,14 93.940983,14 c 1.067541,0 2.201223,-0.421078 2.519295,-0.935728 0.359059,-0.580971 -0.658655,-0.580971 -2.684381,0 -4.719158,1.353437 -5.792888,1.183674 -5.15018,-0.814272 0.354541,-1.10214 0.249522,-1.321221 -0.283676,-0.591783 -0.465644,0.637019 -2.645593,1.429353 -4.844333,1.760742 -2.906654,0.438085 -3.451868,0.344561 -1.997708,-0.34268 1.770115,-0.836563 1.683908,-0.927671 -0.75,-0.792635 -1.5125,0.08391 -2.75,0.456278 -2.75,0.827475 0,1.304259 3.305528,1.922568 6.884243,1.287719 3.812929,-0.676398 3.486839,0.940707 -0.384243,1.905488 -1.135843,0.283084 -0.625638,0.451434 1.180815,0.389629 1.749448,-0.05985 2.96039,-0.465481 2.690983,-0.901391 C 87.487721,14.362098 89.72563,14.964478 91,16.5 91.684689,17.325 92.729789,18 93.322445,18 94.024494,18 93.981824,17.581824 93.2,16.8 Z m 5.93519,-0.339142 c -1.850645,-0.803472 -3.875645,-1.42431 -4.5,-1.379639 -1.577923,0.112895 4.516895,2.82719 6.36481,2.834535 0.825,0.0033 -0.0142,-0.651424 -1.86481,-1.454896 z m 60.76663,0.423522 c 4.78901,-1.669455 3.29657,-1.895303 -2.40182,-0.363464 -2.75,0.739253 -4.05465,1.374469 -2.89922,1.41159 1.15542,0.03712 3.54089,-0.434535 5.30104,-1.048126 z M 175.5,16.621462 l 3,-1.28833 -3.85218,-0.731049 c -2.1187,-0.402077 -4.1062,-0.477031 -4.41667,-0.166566 C 169.92068,14.745983 170.66822,15 171.89235,15 c 1.32694,0 1.95851,0.432298 1.56404,1.070559 -0.39049,0.63183 -2.36129,0.851164 -4.80902,0.535205 -3.09976,-0.400125 -3.51588,-0.316829 -1.64737,0.329761 3.51554,1.21654 5.06955,1.159122 8.5,-0.314063 z M 43.526461,15.193128 c -0.307887,-0.307887 -1.114794,-6.34e-4 -1.793128,0.682784 -0.980267,0.987616 -0.865403,1.10248 0.559795,0.559795 0.986221,-0.375531 1.541221,-0.934692 1.233333,-1.242579 z M 141.5,16 c -1.1,-0.472686 -2.9,-0.859429 -4,-0.859429 h -2 L 137.5,16 c 1.1,0.472686 2.9,0.859429 4,0.859429 h 2 z m 17,-1 c 2.54822,-1.09501 -0.0808,-1.09501 -3.5,0 -2.00973,0.643629 -2.10779,0.806404 -0.5,0.830035 1.1,0.01617 2.9,-0.357349 4,-0.830035 z m 25.22917,0.395833 c -0.3323,-0.332291 -1.1948,-0.367818 -1.91667,-0.07895 -0.79773,0.319226 -0.56078,0.556183 0.60417,0.604167 1.05416,0.04342 1.64479,-0.192928 1.3125,-0.52522 z m 11,0 c -0.3323,-0.332291 -1.1948,-0.367818 -1.91667,-0.07895 -0.79773,0.319226 -0.56078,0.556183 0.60417,0.604167 1.05416,0.04342 1.64479,-0.192928 1.3125,-0.52522 z M 67,14.122445 C 67,13.639789 66.325,12.684689 65.5,12 63.871791,10.648706 63.668263,10.971933 64.606989,13.418213 65.249542,15.09268 67,15.607817 67,14.122445 Z m 34.25,-0.784726 c -0.6875,-0.277412 -1.8125,-0.277412 -2.5,0 -0.6875,0.277413 -0.125,0.504386 1.25,0.504386 1.375,0 1.9375,-0.226973 1.25,-0.504386 z M 69,11 c 0,-0.55 -0.45,-1 -1,-1 -0.55,0 -1,0.45 -1,1 0,0.55 0.45,1 1,1 0.55,0 1,-0.45 1,-1 z m 25.729167,0.395833 c -0.332292,-0.332291 -1.194792,-0.367818 -1.916667,-0.07895 -0.797733,0.319226 -0.560776,0.556183 0.604167,0.604167 1.054166,0.04342 1.644791,-0.192928 1.3125,-0.52522 z"
         style="fill:#a36599" />
      <path
         id="path845"
         d="m 62,23.232325 c -0.825,-0.402779 -1.652504,-1.608125 -1.838897,-2.678548 -0.290404,-1.667735 -0.113362,-1.759045 1.237265,-0.638124 0.866889,0.719454 2.280265,1.037909 3.140835,0.707677 0.899967,-0.34535 1.305126,-0.180466 0.953718,0.388124 C 65.156896,21.555154 65.569401,22 66.409598,22 c 1.002678,0 1.334181,-0.601369 0.964685,-1.75 -0.36783,-1.143449 -0.2626,-1.337385 0.303606,-0.559536 C 68.66827,21.051039 77,21.22233 77,19.882116 c 0,-0.485164 0.7875,-0.875225 1.75,-0.866803 1.177344,0.0103 1.360169,0.263166 0.5587,0.772738 -0.655215,0.416584 0.8072,0.747193 3.24981,0.734687 2.44261,-0.01251 4.441194,-0.302141 4.441299,-0.643633 1.05e-4,-0.341492 2.137691,-0.210793 4.750191,0.290443 2.6125,0.501235 6.2125,0.647747 8,0.325582 1.7875,-0.322166 3.25,-0.183376 3.25,0.308423 0,0.491799 -7.078242,1.209949 -15.729427,1.59589 -8.651185,0.385941 -17.538685,0.895998 -19.75,1.133459 C 65.309258,23.770364 62.825,23.635104 62,23.232325 Z M 52.5,20.427368 C 49.75,19.66078 42.689818,18.488845 36.810707,17.823069 30.931595,17.157292 26.306592,16.312941 26.532921,15.946733 c 0.226329,-0.366209 3.686511,-0.966242 7.689293,-1.333408 4.002782,-0.367165 10.369174,-1.31814 14.147538,-2.113276 5.688842,-1.197186 7.191502,-1.220339 8.741486,-0.134688 1.663776,1.165353 1.344931,1.327476 -2.869752,1.459184 -6.377353,0.199291 -12.120692,1.170989 -12.727846,2.153385 -0.684191,1.107045 12.736012,2.983358 14.019898,1.960158 0.568447,-0.453026 1.693447,-0.356975 2.5,0.213447 1.161262,0.821282 1.050221,0.912926 -0.533538,0.440344 -1.860876,-0.555273 -1.878267,-0.501995 -0.25,0.76591 1.806594,1.406765 2.317034,2.709815 1,2.552794 -0.4125,-0.04918 -3,-0.716627 -5.75,-1.483215 z m 59.16262,-0.48766 c 0.63945,-0.640724 2.43945,-1.235062 4,-1.32075 1.56056,-0.08569 3.46941,-0.554537 4.24189,-1.041886 0.96461,-0.608561 1.18103,-0.52449 0.69098,0.26842 C 120.16844,18.536475 120.53159,19 121.5,19 c 0.88992,0 1.33992,-0.45 1,-1 -0.33992,-0.55 -0.14148,-1 0.44098,-1 0.58246,0 1.05902,0.377918 1.05902,0.839818 0,0.842736 5.14123,0.804344 38.5,-0.287498 22.41883,-0.733774 31.63052,-1.343007 32.40135,-2.142926 0.32926,-0.34168 -3.07176,-0.459647 -7.55782,-0.262148 -4.48605,0.197498 -8.01692,0.132662 -7.84636,-0.144079 0.51682,-0.838602 -9.90463,-0.548864 -11.24717,0.312694 -0.6875,0.441195 -1.25046,0.438115 -1.25102,-0.0068 -5.6e-4,-0.444959 -4.31198,-0.90275 -9.58092,-1.017312 -5.26894,-0.114562 -10.49984,-0.500273 -11.62421,-0.857134 -1.21327,-0.385077 -1.80113,-0.255368 -1.4461,0.319079 0.37669,0.609504 -0.94021,0.6866 -3.55636,0.208202 -2.28502,-0.417844 -4.63536,-0.618421 -5.22298,-0.445727 -2.62628,0.771825 -10.89172,1.287856 -9.06841,0.566162 1.24345,-0.492178 -0.7726,-0.767553 -5.32964,-0.72798 -4.63633,0.04026 -6.65733,0.361857 -5.5,0.875198 1.22648,0.544013 1.00549,0.596035 -0.67036,0.157807 -4.59834,-1.202446 -18.843109,-1.924827 -18.6682,-0.946702 0.09251,0.517335 -0.7318,1.053997 -1.8318,1.192582 -1.389989,0.17512 -1.483146,0.09787 -0.305426,-0.25326 0.97521,-0.290756 1.46043,-1.115402 1.143011,-1.942582 C 94.707533,10.795459 92,10.469212 92,12.035184 c 0,0.710803 -0.601433,0.713307 -1.91933,0.008 C 88.684899,11.296179 88.024479,11.354777 87.659618,12.25799 87.38367,12.941095 87.122651,13.05 87.079574,12.5 c -0.04383,-0.559659 -2.610558,-0.937322 -5.828947,-0.857661 -3.162845,0.07829 -6.399508,-0.371713 -7.192585,-1 -1.146524,-0.9082911 -1.266577,-0.8514152 -0.585956,0.2776 0.638457,1.059072 0.441239,1.260778 -0.776016,0.793674 -0.897611,-0.344446 -1.897989,-0.195918 -2.223062,0.330061 -0.325073,0.525979 -1.351984,0.9208 -2.282025,0.877379 -1.041168,-0.04861 -1.21063,-0.272774 -0.440983,-0.583334 2.406529,-0.971055 1.218986,-1.987103 -2.235591,-1.912745 -1.917076,0.04126 -3.689548,0.602596 -3.938829,1.247403 C 61.048025,13.036991 57,12.2443 57,10.77638 c 0,-0.544697 0.645927,-0.742492 1.435392,-0.439546 0.789466,0.302947 1.609704,0.02788 1.822751,-0.6112631 0.495864,-1.4875905 4.393324,-1.4803438 31.241857,0.058089 30.7888,1.7642121 66.89764,3.0342461 109.25736,3.8428431 19.94155,0.38066 36.04487,0.9046 35.78516,1.164312 -0.25971,0.259712 -3.18803,0.410812 -6.50736,0.335778 C 226.5682,15.048222 224,15.4178 224,15.995084 c 0,1.319904 14.68441,1.324562 15.5,0.0049 0.75418,-1.220287 54.38349,-1.360463 56.29615,-0.147146 0.71289,0.452226 -18.63711,1.144129 -43,1.537563 -72.04688,1.163478 -94.12082,1.636478 -97.29615,2.084859 -1.65,0.232992 -12.45,0.694919 -24,1.026504 -15.98169,0.458813 -20.72217,0.324497 -19.83738,-0.562072 z M 83,18.04569 c 0.825,-0.558286 2.3625,-1.021955 3.416667,-1.030377 C 88.975114,16.994873 88.176928,17.567229 84.5,18.3897 82.309084,18.879774 81.904542,18.786996 83,18.04569 Z M 61.557298,16.581761 c 1.066757,-0.780031 2.152233,-1.205564 2.412169,-0.945627 0.550359,0.550359 -2.02834,2.326063 -3.410597,2.348553 -0.517621,0.0084 -0.06833,-0.622895 0.998428,-1.402926 z m 18.176035,0.294151 c 0.678334,-0.683418 1.485241,-0.990671 1.793128,-0.682784 0.307888,0.307887 -0.247112,0.867048 -1.233333,1.242579 -1.425198,0.542685 -1.540062,0.427821 -0.559795,-0.559795 z M 171,16 c 0,-0.55 0.47656,-1 1.05902,-1 0.58246,0 0.7809,0.45 0.44098,1 -0.33992,0.55 -0.81648,1 -1.05902,1 C 171.19844,17 171,16.55 171,16 Z M 71,14 c 0.825,-0.533156 1.95,-0.969374 2.5,-0.969374 0.55,0 0.325,0.436218 -0.5,0.969374 -0.825,0.533156 -1.95,0.969374 -2.5,0.969374 -0.55,0 -0.325,-0.436218 0.5,-0.969374 z"
         style="fill:#a16994" />
      <path
         id="path843"
         d="m 63.605028,22.830061 c 0.478588,-0.774371 0.188414,-0.964775 -0.858224,-0.563142 -0.931414,0.357417 -1.820787,-0.01733 -2.164045,-0.911849 -0.927958,-2.418219 -0.729849,-2.497553 1.912828,-0.766004 1.78121,1.167093 3.570312,1.447208 6.25,0.978545 L 72.5,20.910984 69.635693,22.455492 c -3.430494,1.84981 -7.082606,2.076646 -6.030665,0.374569 z M 78,21.986085 C 76.924278,21.28092 77.489982,21.147454 80,21.514227 L 83.5,22.02566 80,20.521592 76.5,19.017524 80,19.659658 c 1.925,0.353174 4.055356,0.649231 4.734124,0.657905 0.914916,0.01169 0.947909,0.360638 0.127555,1.349104 C 83.565898,23.227987 80.137941,23.387562 78,21.986085 Z M 57,20.940983 C 57,20.358524 56.587331,20.137009 56.082959,20.448729 55.042424,21.091815 43.140739,18.506087 42.148295,17.421321 41.791733,17.03159 43.075,17.048106 45,17.458022 c 5.572654,1.186661 9.4182,1.360427 10.533538,0.475972 0.568447,-0.450774 1.693447,-0.402221 2.5,0.107896 1.172783,0.741743 1.191611,0.930551 0.09402,0.942797 C 57.021093,18.997032 56.996373,19.290703 58,20.5 58.860104,21.536363 58.897951,22 58.122445,22 57.5051,22 57,21.523442 57,20.940983 Z m 30.000951,-0.561878 c -6.78e-4,-0.798468 1.365391,-0.858747 4.749049,-0.209557 2.6125,0.501235 6.256796,0.639437 8.098435,0.307115 2.360855,-0.426014 3.141875,-0.270005 2.648095,0.528954 -0.93795,1.51764 -15.49426,0.929105 -15.495579,-0.626512 z M 114.5668,19.088814 c 1.2543,-1.191186 1.78898,-1.27598 2.13643,-0.338814 0.25489,0.6875 1.82408,1.25 3.48709,1.25 2.27685,0 2.88149,-0.370481 2.44805,-1.5 -0.31658,-0.825 -0.13972,-1.5 0.39301,-1.5 0.53274,0 0.96862,0.7301 0.96862,1.622445 0,1.396349 0.23169,1.431188 1.66262,0.25 1.42573,-1.176895 1.59159,-1.158721 1.16405,0.127555 -0.37303,1.122307 -2.18991,1.522363 -7.21572,1.588814 -6.1715,0.0816 -6.58125,-0.04025 -5.04415,-1.5 z m 15.13648,0.0048 c -0.9882,-0.35889 1.5993,-0.647019 5.75,-0.640287 4.1507,0.0067 7.54672,0.284921 7.54672,0.618197 0,0.820685 -11.04727,0.839037 -13.29672,0.02209 z m 15.48602,0.103645 c -1.6795,-1.140792 22.31396,-2.574592 24.31781,-1.453181 0.86537,0.484286 -1.03835,0.873797 -4.78498,0.979035 C 161.29996,18.8192 155.8,19.16552 152.5,19.492675 c -3.3,0.327156 -6.58981,0.194202 -7.3107,-0.295453 z M 83,18.04569 c 0.825,-0.558286 2.3625,-1.021955 3.416667,-1.030377 2.558447,-0.02044 1.760261,0.551916 -1.916667,1.374387 -2.190916,0.490074 -2.595458,0.397296 -1.5,-0.34401 z m 89.52187,0.09915 c 0.35469,-0.354663 4.93771,-0.485775 10.18448,-0.29136 6.12237,0.226859 9.32061,-8.41e-4 8.92828,-0.635651 -0.33623,-0.544022 0.62093,-1.283277 2.12702,-1.642788 3.37268,-0.805073 33.22535,-1.707753 31.48835,-0.952138 -1.96721,0.855756 -1.46397,2.197305 1,2.665848 1.2375,0.23532 -5.5125,0.262632 -15,0.06069 -11.51813,-0.24516 -17.25,-0.02136 -17.25,0.673524 0,0.666449 -3.97778,0.991424 -11.06151,0.903699 -6.08383,-0.07534 -10.77131,-0.427166 -10.41662,-0.781828 z M 31,17.041327 c -6.80154,-0.7824 -4.9101,-1.834009 4.5,-2.501925 3.85,-0.273267 8.35,-0.734845 10,-1.025729 l 3,-0.528879 -3.17823,1.257603 C 43.573743,14.934079 41.811243,15.8375 41.405103,16.25 40.311572,17.360655 38.783037,17.160071 39.5,16 39.839919,15.45 39.136376,15 37.936572,15 36.110878,15 35.958135,15.24463 37,16.5 c 0.684689,0.825 0.852289,1.426652 0.372445,1.337003 C 36.8926,17.747355 34.025,17.389301 31,17.041327 Z m 30.557298,-0.459566 c 1.066757,-0.780031 2.152233,-1.205564 2.412169,-0.945627 0.550359,0.550359 -2.02834,2.326063 -3.410597,2.348553 -0.517621,0.0084 -0.06833,-0.622895 0.998428,-1.402926 z m 18.176035,0.294151 c 0.678334,-0.683418 1.485241,-0.990671 1.793128,-0.682784 0.307888,0.307887 -0.247112,0.867048 -1.233333,1.242579 -1.425198,0.542685 -1.540062,0.427821 -0.559795,-0.559795 z M 229.5,17.500312 c 2.42738,-0.829662 11.38126,-1.117211 10.90728,-0.350281 -0.28892,0.467483 -3.08626,0.814443 -6.2163,0.771022 C 231.06094,17.877632 228.95,17.688298 229.5,17.500312 Z M 171,16 c 0,-0.55 0.47656,-1 1.05902,-1 0.58246,0 0.7809,0.45 0.44098,1 -0.33992,0.55 -0.81648,1 -1.05902,1 C 171.19844,17 171,16.55 171,16 Z m 14.75,0.337719 c 0.6875,-0.277412 1.8125,-0.277412 2.5,0 0.6875,0.277413 0.125,0.504386 -1.25,0.504386 -1.375,0 -1.9375,-0.226973 -1.25,-0.504386 z m 63.26429,-0.752005 c 0.64761,-0.647619 1.32381,-0.647619 1.97142,0 0.64762,0.647619 0.30953,0.985715 -0.98571,0.985715 -1.29524,0 -1.63333,-0.338096 -0.98571,-0.985715 z M 255,16 c -0.99511,-0.643089 5.40018,-0.969374 19,-0.969374 11.53663,0 21.15586,0.423846 22,0.969374 0.99511,0.643089 -5.40018,0.969374 -19,0.969374 -11.53663,0 -21.15586,-0.423846 -22,-0.969374 z m -88.33313,-1.425737 c -0.43744,-1.139941 1.7514,-1.393337 12.20269,-1.412672 7.00466,-0.01296 13.23196,0.282882 13.83846,0.657424 0.60649,0.374542 -4.1422,0.624571 -10.55265,0.555621 -6.41046,-0.06895 -12.39789,0.260309 -13.30541,0.731686 -1.11355,0.57839 -1.82335,0.405396 -2.18309,-0.532059 z M 230,14.946872 c -1.82914,-0.484297 -1.22536,-0.67779 2.25,-0.721062 2.6125,-0.03253 4.75,0.0759 4.75,0.240946 0,0.750659 -4.74818,1.076327 -7,0.480116 z M 71,14 c 0.825,-0.533156 1.95,-0.969374 2.5,-0.969374 0.55,0 0.325,0.436218 -0.5,0.969374 -0.825,0.533156 -1.95,0.969374 -2.5,0.969374 -0.55,0 -0.325,-0.436218 0.5,-0.969374 z m 23,0.241511 C 96.267481,13.120603 96.267481,11 94,11 c -1.1,0 -2,0.435877 -2,0.968615 0,0.532739 -0.675,0.709594 -1.5,0.393011 -3.456819,-1.326506 -1.052687,-2.353785 5.25,-2.243311 4.66836,0.08183 5.82483,0.316149 3.75,0.75982 -1.68911,0.361192 -3,1.286676 -3,2.117991 0,0.812066 -0.9,1.591327 -2,1.73169 -1.471377,0.187753 -1.603533,0.05922 -0.5,-0.486305 z M 113,14 c -1.82797,-1.181322 -0.24909,-1.181322 2.5,0 1.31874,0.566682 1.48906,0.878155 0.5,0.914402 -0.825,0.03023 -2.175,-0.381246 -3,-0.914402 z m 15.5,-0.624911 c 3.2276,-1.239539 6.60687,-1.412658 17.5,-0.89652 7.425,0.351811 14.7375,0.677639 16.25,0.724063 1.5125,0.04642 2.75,0.441508 2.75,0.877965 0,0.844428 -16.21426,0.238667 -19.37523,-0.723854 -1.2992,-0.395609 -1.6461,-0.200277 -1.12932,0.635891 0.55252,0.894005 0.26092,0.957001 -1.12477,0.242988 C 141.53519,13.289838 136.4409,13.34111 128.5,14.38529 l -4,0.525976 z M 49.5,13 c -0.339919,-0.55 0.110081,-1 1,-1 0.889919,0 1.339919,0.45 1,1 -0.339919,0.55 -0.789919,1 -1,1 -0.210081,0 -0.660081,-0.45 -1,-1 z m 4.041667,0.208333 C 52.488171,12.154837 53.020189,11 54.559017,11 c 0.923797,0 1.268292,0.470404 0.845491,1.154508 -0.392439,0.63498 -0.285011,0.889673 0.238729,0.565984 0.52374,-0.32369 1.541312,-0.224468 2.261271,0.220491 0.87693,0.541972 0.462317,0.809017 -1.256079,0.809017 -1.410802,0 -2.808846,-0.24375 -3.106762,-0.541667 z m 65.727363,0.09868 c 0.97297,-0.253543 2.32297,-0.236869 3,0.03705 0.67703,0.273923 -0.11903,0.481368 -1.76903,0.460988 -1.65,-0.02038 -2.20394,-0.244498 -1.23097,-0.498042 z m -58.995705,-2.2854 C 60.357081,9.9097259 60.779847,9 61.212804,9 c 1.105763,0 0.984375,2.760103 -0.152283,3.462596 -0.516714,0.319347 -0.870952,-0.329096 -0.787196,-1.440983 z M 67.75,12.337719 C 70.067099,11.40275 69.023062,10.047148 66.25,10.390084 64.7375,10.57713 64.4,10.497183 65.5,10.212425 67.322888,9.7405308 67.27861,9.6284717 65,8.9470208 L 62.5,8.1993601 65.190983,8.09968 c 1.480041,-0.054824 2.988058,0.3809981 3.351151,0.9684937 0.363092,0.5874955 1.366172,0.7972541 2.229067,0.4661303 0.862895,-0.3311238 1.935486,-0.024302 2.383537,0.681826 0.634205,0.999509 0.818028,1.007011 0.829949,0.03387 0.0084,-0.6875 0.491871,-1.25 1.07433,-1.25 0.582459,0 0.780902,0.45 0.440983,1 -0.339919,0.55 0.08352,1 0.940983,1 C 77.298442,11 78,10.55 78,10 c 0,-0.55 1.2375,-0.9477994 2.75,-0.8839986 2.095283,0.088384 2.273842,0.2330425 0.75,0.6076084 -1.1,0.2703839 -2.49499,0.8922552 -3.099979,1.3819362 -0.604988,0.489682 -2.526745,0.724208 -4.270571,0.521169 -1.743827,-0.203038 -3.412894,0.02289 -3.709039,0.502062 -0.296145,0.479173 -1.299387,0.835697 -2.229428,0.792276 -1.041168,-0.04861 -1.21063,-0.272774 -0.440983,-0.583334 z m 32.9777,-0.05945 c 1.77523,-0.220912 4.92523,-0.224542 7,-0.0081 2.07476,0.216475 0.6223,0.397221 -3.2277,0.401658 -3.85,0.0044 -5.547537,-0.17268 -3.7723,-0.393592 z m 11.93138,-0.512955 c -0.6375,-0.404078 1.76592,-0.734687 5.34092,-0.734687 3.575,0 7.03277,0.338795 7.68394,0.752877 0.65117,0.414083 -1.75225,0.744693 -5.34092,0.734688 -3.58868,-0.01 -7.04645,-0.3488 -7.68394,-0.752878 z M 57,11 c 0,-0.55 0.45,-1 1,-1 0.55,0 1,0.45 1,1 0,0.55 -0.45,1 -1,1 -0.55,0 -1,-0.45 -1,-1 z m 24.25,0.310674 c 0.9625,-0.251527 2.5375,-0.251527 3.5,0 0.9625,0.251528 0.175,0.457323 -1.75,0.457323 -1.925,0 -2.7125,-0.205795 -1.75,-0.457323 z"
         style="fill:#a26595" />
      <path
         id="path841"
         d="m 63.441979,23.09388 c 0.308007,-0.498366 1.459565,-0.670882 2.559017,-0.383369 C 68.752546,23.430058 68.505025,24 65.440983,24 64.033524,24 63.133972,23.592246 63.441979,23.09388 Z m 14.866739,-0.88192 c -0.657688,-0.418156 0.537601,-0.757415 2.668555,-0.757415 2.12291,0 3.644929,0.347728 3.382265,0.772728 -0.60918,0.985673 -4.491896,0.975848 -6.05082,-0.01531 z M 57,20.940983 C 57,20.358524 56.587331,20.137009 56.082959,20.448729 55.055939,21.083462 43.15917,18.515375 42.148295,17.440734 41.791733,17.06168 42.4,17.019761 43.5,17.347581 c 1.1,0.327821 3.8,0.836184 6,1.129697 6.712953,0.895608 7.477713,1.100435 8.710123,2.332845 C 59.129959,21.729959 59.127662,22 58.2,22 57.54,22 57,21.523442 57,20.940983 Z m 36.767909,0.334286 c 1.79735,-0.222562 4.49735,-0.217969 6,0.0102 C 101.27056,21.513648 99.8,21.695744 96.5,21.690131 93.2,21.684518 91.970559,21.49783 93.767909,21.275269 Z M 113.58476,20.08191 c 0.84701,-0.84701 13.27354,-0.661657 12.74711,0.190135 -0.26881,0.434943 -3.36152,0.684738 -6.8727,0.555101 -3.51117,-0.129638 -6.15466,-0.464994 -5.87441,-0.745236 z m 18.68427,-0.774901 c 0.97297,-0.253543 2.32297,-0.236869 3,0.03705 0.67703,0.273923 -0.11903,0.481368 -1.76903,0.460988 -1.65,-0.02038 -2.20394,-0.244498 -1.23097,-0.498042 z m 7.48097,0.03071 c 0.6875,-0.277412 1.8125,-0.277412 2.5,0 0.6875,0.277413 0.125,0.504386 -1.25,0.504386 -1.375,0 -1.9375,-0.226973 -1.25,-0.504386 z m 8.5,-0.05397 c 1.5125,-0.229125 3.9875,-0.229125 5.5,0 1.5125,0.229124 0.275,0.41659 -2.75,0.41659 -3.025,0 -4.2625,-0.187466 -2.75,-0.41659 z m 20.5625,-0.96686 c 0.72187,-0.288871 1.58437,-0.253344 1.91667,0.07895 0.33229,0.332292 -0.25834,0.568641 -1.3125,0.52522 -1.16495,-0.04798 -1.4019,-0.284941 -0.60417,-0.604167 z m 4,0 c 0.72187,-0.288871 1.58437,-0.253344 1.91667,0.07895 0.33229,0.332292 -0.25834,0.568641 -1.3125,0.52522 -1.16495,-0.04798 -1.4019,-0.284941 -0.60417,-0.604167 z m 4.6875,0.09259 c 4.82657,-0.767811 16.5,-0.903764 16.5,-0.192165 0,0.430479 -4.1625,0.721407 -9.25,0.646507 -5.0875,-0.0749 -8.35,-0.279354 -7.25,-0.454342 z M 31,17.041327 c -6.412944,-0.737699 -5.003205,-1.680125 3.5,-2.33979 3.3,-0.256008 4.961232,-0.258845 3.691626,-0.0063 -1.867497,0.371471 -2.082849,0.730908 -1.127555,1.881966 0.64945,0.78254 0.788218,1.349452 0.308374,1.259803 C 36.8926,17.747355 34.025,17.389301 31,17.041327 Z m 187.75,0.235277 c 1.7875,-0.221826 4.7125,-0.221826 6.5,0 1.7875,0.221827 0.325,0.403322 -3.25,0.403322 -3.575,0 -5.0375,-0.181495 -3.25,-0.403322 z M 230,17.432795 c 3.3592,-0.750674 10.77755,-0.881748 10.34553,-0.182795 -0.25496,0.4125 -3.02451,0.697799 -6.15455,0.633999 C 231.06094,17.820198 229.175,17.617156 230,17.432795 Z m 19.01429,-1.847081 c 0.64761,-0.647619 1.32381,-0.647619 1.97142,0 0.64762,0.647619 0.30953,0.985715 -0.98571,0.985715 -1.29524,0 -1.63333,-0.338096 -0.98571,-0.985715 z M 255,16 c -0.99511,-0.643089 5.40018,-0.969374 19,-0.969374 11.53663,0 21.15586,0.423846 22,0.969374 0.99511,0.643089 -5.40018,0.969374 -19,0.969374 -11.53663,0 -21.15586,-0.423846 -22,-0.969374 z M 43,14.04569 c 0.825,-0.558286 2.3625,-1.021955 3.416667,-1.030377 2.558447,-0.02044 1.760261,0.551916 -1.916667,1.374387 -2.190916,0.490074 -2.595458,0.397296 -1.5,-0.34401 z m 136,-0.132817 c -2.28825,-0.383854 -0.72589,-0.628177 4.51267,-0.705695 4.40697,-0.06521 8.5265,0.198995 9.15451,0.587127 1.38009,0.852942 -8.76476,0.940952 -13.66718,0.118568 z m 27.75,0.424846 c 0.6875,-0.277412 1.8125,-0.277412 2.5,0 0.6875,0.277413 0.125,0.504386 -1.25,0.504386 -1.375,0 -1.9375,-0.226973 -1.25,-0.504386 z m 8.02643,-0.07122 c 2.35204,-0.211245 5.95204,-0.208273 8,0.0066 2.04796,0.214878 0.12357,0.387715 -4.27643,0.384083 -4.4,-0.0036 -6.07561,-0.179441 -3.72357,-0.390687 z m 13.97357,0.07122 c 0.6875,-0.277412 1.8125,-0.277412 2.5,0 0.6875,0.277413 0.125,0.504386 -1.25,0.504386 -1.375,0 -1.9375,-0.226973 -1.25,-0.504386 z m 5,0 c 0.6875,-0.277412 1.8125,-0.277412 2.5,0 0.6875,0.277413 0.125,0.504386 -1.25,0.504386 -1.375,0 -1.9375,-0.226973 -1.25,-0.504386 z M 49.5,13 c -0.339919,-0.55 0.110081,-1 1,-1 0.889919,0 1.339919,0.45 1,1 -0.339919,0.55 -0.789919,1 -1,1 -0.210081,0 -0.660081,-0.45 -1,-1 z m 118.25,0.294267 c 1.2375,-0.238353 3.2625,-0.238353 4.5,0 1.2375,0.238353 0.225,0.433369 -2.25,0.433369 -2.475,0 -3.4875,-0.195016 -2.25,-0.433369 z M 53,11.902926 c 0,-0.634557 0.861839,-0.910813 1.952053,-0.625715 1.073629,0.28076 2.137022,-0.0043 2.363095,-0.633369 0.226073,-0.629113 0.77265,-0.806342 1.214614,-0.393842 1.102885,1.02936 0.196406,1.750762 -2.907067,2.313529 C 54.052267,12.848302 53,12.583258 53,11.902926 Z m 59.65908,-0.137613 c -0.6375,-0.404078 1.76592,-0.734687 5.34092,-0.734687 3.575,0 7.03277,0.338795 7.68394,0.752877 0.65117,0.414083 -1.75225,0.744693 -5.34092,0.734688 -3.58868,-0.01 -7.04645,-0.3488 -7.68394,-0.752878 z m 24.13011,0.493273 c 3.45905,-0.19583 8.85905,-0.194213 12,0.0036 3.14094,0.197808 0.31081,0.358032 -6.28919,0.356055 -6.6,-0.002 -9.16987,-0.16382 -5.71081,-0.35965 z M 60.333333,10.456011 C 60.333333,9.6552051 60.708333,9 61.166667,9 61.625,9 62,9.4234424 62,9.940983 c 0,0.517541 -0.375,1.172746 -0.833333,1.456011 -0.458334,0.283266 -0.833334,-0.140176 -0.833334,-0.940983 z M 92.5,10.894054 c -3.340688,-0.509658 -2.887411,-0.633633 2.75,-0.752149 3.7125,-0.07805 6.75,0.03202 6.75,0.244596 0,0.795005 -5.640521,1.096359 -9.5,0.507553 z M 65,9 62.5,8.1993601 65.190983,8.09968 C 66.671024,8.044856 68.160081,8.45 68.5,9 c 0.702545,1.136742 0.04948,1.136742 -3.5,0 z m 14.269032,0.3070093 c 0.972967,-0.2535434 2.322967,-0.2368691 3,0.037054 C 82.946064,9.6179864 82.15,9.825431 80.5,9.8050513 78.85,9.7846716 78.296064,9.5605527 79.269032,9.3070093 Z"
         style="fill:#9c6992" />
      <path
         id="path839"
         d="m 80.8125,22.316886 c 0.721875,-0.288871 1.584375,-0.253344 1.916667,0.07895 0.332291,0.332292 -0.258334,0.568641 -1.3125,0.52522 -1.164943,-0.04798 -1.4019,-0.284941 -0.604167,-0.604167 z M 185.25,18.283746 c 1.5125,-0.229125 3.9875,-0.229125 5.5,0 1.5125,0.229124 0.275,0.41659 -2.75,0.41659 -3.025,0 -4.2625,-0.187466 -2.75,-0.41659 z M 27,15.9 c 0,-0.495 1.575,-0.9 3.5,-0.9 1.925,0 3.5,0.405 3.5,0.9 0,0.495 -1.575,0.9 -3.5,0.9 -1.925,0 -3.5,-0.405 -3.5,-0.9 z m 230,0.11796 c 0,-1.133632 37.28494,-1.142183 39,-0.0089 1.01334,0.66957 -5.06994,0.949449 -18.75,0.862647 C 266.1125,16.800995 257,16.416828 257,16.01796 Z M 188,14 l -4.5,-0.699613 4.19098,-0.150193 C 189.99602,13.067587 192.16008,13.45 192.5,14 c 0.33992,0.55 0.47898,0.932413 0.30902,0.849806 C 192.63906,14.7672 190.475,14.384787 188,14 Z M 54.909316,11.813148 c -1.146632,-0.815083 -1.105844,-0.9056 0.218829,-0.485625 0.89548,0.283903 2.13298,0.01135 2.75,-0.605668 C 58.672099,9.9279008 59,9.9194702 59,10.693011 c 0,1.602861 -2.462878,2.277262 -4.090684,1.120137 z m 63.354434,-0.530729 c 1.52006,-0.229855 3.77006,-0.223712 5,0.01365 1.22994,0.237362 -0.0138,0.425424 -2.76375,0.417917 -2.75,-0.0075 -3.75631,-0.201713 -2.23625,-0.431567 z m -21.502091,-0.98968 c 1.243913,-0.239193 3.043913,-0.230112 4.000001,0.02018 0.95609,0.250292 -0.0617,0.445996 -2.26166,0.434897 -2.2,-0.0111 -2.982253,-0.215885 -1.738341,-0.455078 z M 80.8125,9.316886 c 0.721875,-0.2888706 1.584375,-0.2533443 1.916667,0.078947 0.332291,0.3322917 -0.258334,0.5686404 -1.3125,0.5252193 -1.164943,-0.047984 -1.4019,-0.28494 -0.604167,-0.6041663 z"
         style="fill:#986a8d" />
    </g>
  </g>
</svg>
