<?xml version="1.0" encoding="UTF-8" standalone="no"?>
<svg
   xmlns="http://www.w3.org/2000/svg"
   viewBox="0 0 332.51221 19.577677"
   height="19.577677"
   width="332.51221"
   id="svg2"
   version="1.1">
  <metadata
          id="metadata8">
  </metadata>
  <defs
     id="defs6" />
  <g
     transform="translate(-7.1417646,-4.1441838)"
     id="g10"
  >
    <g
       transform="translate(-1.3460295,-0.14373637)"
       id="g879">
      <path
         id="path907"
         d="m 276,22.911473 c -3.575,-0.382161 -9.5375,-0.578611 -13.25,-0.436555 -3.7125,0.142055 -6.75,-0.05114 -6.75,-0.429329 0,-0.378185 -5.40128,-0.742389 -12.00284,-0.80934 -6.60157,-0.06695 -12.50188,-0.430149 -13.11181,-0.807105 -0.60992,-0.376956 -1.50865,-0.06522 -1.99715,0.692741 -0.59716,0.92654 -1.13396,1.031128 -1.6382,0.319179 -0.4171,-0.588911 -4.52285,-1.102593 -9.25,-1.157294 -4.675,-0.0541 -10.075,-0.136867 -12,-0.183933 -1.925,-0.04707 -4.175,-0.0681 -5,-0.04674 -0.825,0.02136 -6,-0.207317 -11.5,-0.508167 -5.5,-0.300851 -23.42963,-0.754583 -39.84363,-1.008292 -16.41399,-0.25371 -30.75784,-0.751454 -31.87523,-1.106097 -1.49141,-0.473357 -1.82174,-0.305242 -1.24232,0.632267 0.58358,0.944251 0.29045,1.080306 -1.12478,0.522057 -3.68551,-1.453789 -8.15973,-1.805354 -8.84593,-0.695074 -0.37738,0.610617 -1.22209,1.103321 -1.87713,1.094899 C 103.97537,18.975486 104.09871,18.58246 105,18 106.00541,17.350253 101.22439,17.001589 90.5,16.942564 81.7,16.894131 72.475,16.760422 70,16.645435 67.525,16.530448 52.535942,16.338184 36.690983,16.218183 17.79373,16.075066 8.0946011,15.655949 8.5,15 8.8688475,14.403192 15.343718,14 24.559017,14 34.760003,14 40,13.640616 40,12.940983 c 0,-0.582459 0.500165,-0.749898 1.111478,-0.372086 1.425097,0.880758 17.707702,0.86703 55.888522,-0.04712 16.775,-0.401639 39.275,-0.854628 50,-1.006642 36.14964,-0.51238 43.4969,-0.71504 44.32706,-1.22268 0.45489,-0.278159 11.25489,-0.6707274 24,-0.8723749 C 228.07218,9.2184315 240.075,8.8326472 242,8.5627807 c 1.925,-0.2698666 10.925,-0.719726 20,-0.9996876 9.075,-0.2799616 16.725,-0.5721672 17,-0.6493457 0.275,-0.077179 2.02885,-0.122448 3.89745,-0.1005989 1.8686,0.021849 4.5512,-0.7146709 5.96133,-1.6367114 1.41013,-0.9220404 2.24979,-1.1666529 1.86593,-0.5435833 -0.4895,0.7945296 0.64489,1.042323 3.79842,0.8297182 2.55973,-0.1725714 4.25139,0.093241 3.9276,0.6171462 -0.52143,0.8437004 1.14989,1.3058905 4.29927,1.1889272 0.6875,-0.025533 1.25,0.4017218 1.25,0.9494545 0,0.5477327 0.69837,0.7278872 1.55194,0.4003433 0.92287,-0.3541391 1.29425,-0.1785881 0.91621,0.4330929 -0.41226,0.6670423 0.32496,0.7875097 2.09721,0.3427026 1.85428,-0.4653949 2.51729,-0.3369857 2.06218,0.3993974 -0.38727,0.6266099 0.078,1.0750929 1.10085,1.0611189 2.79088,-0.03813 10.56129,1.206245 11.62064,1.860959 0.52799,0.326317 0.6389,0.07377 0.24646,-0.561206 C 323.20305,11.519529 323.32102,11 323.85765,11 c 0.53663,0 1.12568,0.380044 1.30902,0.844543 0.18333,0.464499 2.13333,1.126745 4.33333,1.471659 2.95954,0.463993 3.60983,0.351809 2.5,-0.43129 -1.15224,-0.813024 -0.9204,-0.900699 1,-0.378169 1.375,0.37413 3.7375,0.914241 5.25,1.200246 1.5125,0.286005 2.75,0.918935 2.75,1.40651 0,0.777973 -5.38153,1.38499 -8.67459,0.978463 -0.64603,-0.07975 -1.45098,0.302192 -1.78878,0.848763 -0.3378,0.546571 -1.86546,0.743509 -3.3948,0.43764 -1.54638,-0.309275 -4.46856,0.14914 -6.58335,1.032755 -4.37428,1.82769 -5.71717,2.01942 -3.55848,0.508061 1.13692,-0.795989 0.89486,-0.872884 -1,-0.317674 -1.375,0.402886 -3.4,0.844864 -4.5,0.982173 -1.1,0.13731 -2,0.324653 -2,0.41632 0,0.267917 -4.83798,1.041763 -6.77161,1.083136 C 301.754,21.103984 301.20123,21.516573 301.5,22 c 0.29877,0.483427 -0.254,0.945836 -1.22839,1.027576 C 293.9289,23.559653 281.50771,23.500237 276,22.911473 Z m 48.8125,-4.594587 c 0.72187,-0.288871 1.58438,-0.253344 1.91667,0.07895 0.33229,0.332292 -0.25834,0.568641 -1.3125,0.52522 -1.16495,-0.04798 -1.4019,-0.284941 -0.60417,-0.604167 z"
         style="fill:#fdedfd" />
      <path
         id="path905"
         d="M 283,22.96609 C 251.23053,20.252361 99.092811,16.011844 33.190983,16.003191 17.240408,16.001097 9.0944716,15.656159 9.5,15 9.8858873,14.375621 19.768113,13.997372 35.809017,13.993004 100.87125,13.975288 247.02071,9.9152174 284.88441,7.0736238 c 8.75272,-0.6568733 11.10966,-0.5054228 15,0.9638579 5.76872,2.1786943 20.86704,4.8064583 32.36559,5.6330193 4.8125,0.345941 8.75,0.915254 8.75,1.265139 0,0.349885 -5.81551,1.190576 -12.92336,1.868203 -7.10785,0.677626 -17.12035,2.362425 -22.25,3.743997 C 293.22928,23.940696 293.75618,23.884876 283,22.96609 Z"
         style="fill:#e8d3e5" />
      <path
         id="path903"
         d="M 284,22.969958 C 256.84111,20.569829 107.5221,16.194427 43.5,15.922736 32.123049,15.874455 25.503033,15.512865 27,15.021494 28.375,14.570158 59.65,13.693331 96.5,13.07299 190.0148,11.498741 290.35851,8.1325286 293.03244,6.4799514 c 0.4031,-0.2491289 3.32165,0.4376967 6.48567,1.5262791 6.83269,2.3507915 19.7884,4.6762525 31.26335,5.6115595 4.55481,0.371255 8.52576,1.070279 8.82433,1.553387 0.29858,0.483107 0.17192,0.778106 -0.28146,0.655553 -3.65157,-0.98705 -29.80233,3.071264 -40.17967,6.235447 -3.49543,1.065803 -6.42043,1.875078 -6.5,1.79839 C 292.5651,23.783878 288.675,23.383104 284,22.969958 Z M 10.8125,15.316886 c 0.721875,-0.288871 1.584375,-0.253344 1.916667,0.07895 0.332291,0.332292 -0.258334,0.568641 -1.3125,0.52522 -1.164943,-0.04798 -1.4019,-0.284941 -0.604167,-0.604167 z M 14.5,15 C 14.160081,14.45 14.358524,14 14.940983,14 15.523442,14 16,14.45 16,15 16,15.55 15.801558,16 15.559017,16 15.316476,16 14.839919,15.55 14.5,15 Z"
         style="fill:#ebcbe6" />
      <path
         id="path901"
         d="m 285.5,22.876991 c -29.42394,-2.586787 -172.05461,-6.762612 -237,-6.938694 -13.2,-0.03579 -23.1,-0.420649 -22,-0.855246 1.1,-0.434597 24.725,-1.088775 52.5,-1.45373 77.75404,-1.021662 154.1567,-3.256451 197,-5.7622777 17.38798,-1.0169915 20.01889,-0.9630295 24.29086,0.4982243 6.1563,2.1058064 19.76489,4.4736164 30.41731,5.2924264 9.33477,0.717527 11.6603,1.856426 4.48711,2.197505 -2.5824,0.122792 -9.42028,0.906082 -15.19528,1.740645 -9.45863,1.366896 -14.03641,2.362852 -23.5,5.112737 -1.65,0.479449 -6.6,0.555234 -11,0.16841 z M 10.8125,15.316886 c 0.721875,-0.288871 1.584375,-0.253344 1.916667,0.07895 0.332291,0.332292 -0.258334,0.568641 -1.3125,0.52522 -1.164943,-0.04798 -1.4019,-0.284941 -0.604167,-0.604167 z M 14.5,15 C 14.160081,14.45 14.358524,14 14.940983,14 15.523442,14 16,14.45 16,15 16,15.55 15.801558,16 15.559017,16 15.316476,16 14.839919,15.55 14.5,15 Z"
         style="fill:#e3ccde" />
      <path
         id="path899"
         d="M 271,21.934973 C 239.97539,19.855279 154.09067,17.3766 77.545599,16.351775 c -28.02492,-0.375212 -50.07492,-1.026229 -49,-1.446704 C 29.62052,14.484596 40.625,14.108456 53,14.069205 99.876793,13.92052 216.11911,10.933723 257,8.8275116 c 32.69657,-1.6845499 39.52635,-1.6172685 46.5,0.4580801 6.78482,2.0191543 23.85069,4.6685033 30.25,4.6960883 7.59762,0.03275 4.48366,1.724548 -4.5,2.444824 -9.45948,0.758426 -26.02298,3.731338 -30.5651,5.485998 -3.08651,1.192346 -10.14735,1.198077 -27.6849,0.02247 z"
         style="fill:#d2accb" />
      <path
         id="path897"
         d="m 274,21.979945 c -18.22186,-1.267889 -37.6102,-2.06871 -84.5,-3.490206 -28.86631,-0.875103 -115.771344,-2.473874 -140,-2.575547 -12.65,-0.05308 -22.1,-0.455616 -21,-0.894514 1.1,-0.438898 15.725,-0.85182 32.5,-0.917604 16.775,-0.06578 37.7,-0.329962 46.5,-0.58706 8.8,-0.257099 28.6,-0.719471 44,-1.027494 15.4,-0.308023 33.175,-0.756848 39.5,-0.997389 6.325,-0.240541 19.825,-0.679122 30,-0.974623 21.89163,-0.6357753 33.58003,-1.1851574 56.50559,-2.6558952 16.08426,-1.0318496 17.36811,-0.9789822 23.697,0.9758115 6.659,2.0567567 23.38727,4.8754677 31.61156,5.3265447 5.90847,0.32406 6.4218,1.838031 0.6232,1.838031 -6.90523,0 -24.69545,2.822476 -31.7691,5.040273 -6.44129,2.01953 -10.27668,2.149788 -27.66825,0.939672 z"
         style="fill:#ccabc6" />
      <path
         id="path895"
         d="M 275,21.991494 C 247.79546,19.936706 165.72417,17.41413 91.666167,16.356472 65.35756,15.980746 44.43256,15.35664 45.166167,14.969568 45.899775,14.582497 67.875,13.971021 94,13.610732 c 75.05619,-1.035097 147.88631,-3.283366 184.75733,-5.7034686 14.15884,-0.929344 16.80497,-0.8624333 20.5,0.5183699 C 304.22982,10.283812 325.45752,14 331.09937,14 c 7.71429,0 3.68359,1.623199 -6.97323,2.808182 -5.98062,0.665014 -14.41812,2.181822 -18.75,3.370684 -9.15148,2.511577 -15.83896,2.910637 -30.37614,1.812628 z"
         style="fill:#c39cbb" />
      <path
         id="path893"
         d="M 275.66877,21.972523 C 249.03351,19.971051 164.49574,17.376576 92.545195,16.352439 44.618704,15.670258 29.843199,14.205356 69.5,14.067648 c 44.62468,-0.154959 153.61322,-3.101843 193,-5.2184247 29.74562,-1.5984815 33.9097,-1.5053486 42.28388,0.9457115 4.00613,1.1725652 12.10613,2.6684052 18,3.3240872 5.89387,0.655683 11.04673,1.475245 11.4508,1.821249 0.40408,0.346004 -4.32092,1.16682 -10.5,1.824035 -6.17907,0.657215 -14.60968,2.148572 -18.73468,3.314127 -9.09062,2.568635 -15.14854,2.959831 -29.33123,1.89409 z"
         style="fill:#b88cb0" />
      <path
         id="path891"
         d="M 286.99655,22.688675 C 286.72345,22.429572 279.975,21.916781 272,21.549138 c -7.975,-0.367643 -16.75,-0.837479 -19.5,-1.044079 -2.75,-0.206601 -14.225,-0.639777 -25.5,-0.962613 -11.275,-0.322837 -23.2,-0.7916 -26.5,-1.041697 -3.3,-0.250097 -23.1,-0.720437 -44,-1.0452 -20.9,-0.324763 -42.05,-0.760233 -47,-0.967712 -4.95,-0.207478 -21.6,-0.444428 -37,-0.526555 -15.502428,-0.08267 -27.107316,-0.512061 -26,-0.962015 1.1,-0.446982 14.6,-0.864265 30,-0.927296 15.4,-0.06303 34.75,-0.314024 43,-0.55776 8.25,-0.243737 26.025,-0.688548 39.5,-0.988469 58.72768,-1.307138 97.88619,-2.7972927 121.68484,-4.6306465 12.16035,-0.9367851 13.70205,-0.855958 19.84115,1.0402174 3.66097,1.1307591 12.12779,2.7920541 18.81516,3.6917681 6.68737,0.899714 12.83385,1.869228 13.65885,2.154476 0.825,0.285249 -3.45,1.128998 -9.5,1.874998 -6.05,0.746 -14.6,2.320672 -19,3.499271 -8.08996,2.167005 -16.59225,3.397334 -17.50345,2.532849 z"
         style="fill:#b48bab" />
      <path
         id="path889"
         d="M 279.5,21.947797 C 252.66769,19.905077 175.31525,17.414061 106.04295,16.36188 60.841942,15.67532 46.759022,14.208474 84,14.065935 c 41.94472,-0.160542 143.72575,-3.045616 182.5,-5.1731253 27.44178,-1.5057063 28.99798,-1.4662248 37.35976,0.9478323 4.04787,1.168625 12.03537,2.680111 17.75,3.358857 C 331.44014,14.367087 335.67304,16 328.86933,16 c -5.4343,0 -22.80657,3.08613 -28.60804,5.082127 -3.06591,1.05483 -6.74144,1.852418 -8.16784,1.772417 C 290.66705,22.774543 285,22.366507 279.5,21.947797 Z"
         style="fill:#a46599" />
      <path
         id="path887"
         d="m 280,21.946509 c -5.225,-0.413682 -18.40331,-1.089431 -29.28513,-1.501665 -11.50014,-0.435658 -20.04849,-1.175637 -20.41405,-1.76712 -0.38335,-0.620276 0.0411,-0.760494 1.08707,-0.359117 1.07594,0.412877 1.4734,0.265978 1.06561,-0.393841 -0.43083,-0.697094 0.47995,-0.85265 2.69807,-0.460812 1.84163,0.325332 10.83116,0.743626 19.97672,0.929542 9.14556,0.185916 17.04155,0.593436 17.54664,0.905601 0.5051,0.312165 3.12684,0.41868 5.82611,0.236701 2.69927,-0.181979 5.85196,0.02811 7.00599,0.466874 1.18846,0.451853 2.89366,0.352597 3.93277,-0.228918 1.30659,-0.731204 1.63933,-0.710804 1.15622,0.07089 -0.44796,0.724805 0.51066,1.052852 2.82264,0.965936 1.92553,-0.07239 3.24889,-0.539478 2.9408,-1.037978 -0.30809,-0.498499 0.0475,-0.822948 0.79019,-0.720998 C 299.55167,19.381329 301,19.020978 301,18.09362 c 0,-0.49851 -0.84921,-0.684306 -1.88714,-0.412882 -1.03793,0.271424 -2.13469,0.09296 -2.43724,-0.396584 -0.30256,-0.489546 0.65915,-0.740595 2.13714,-0.557888 1.47798,0.182707 4.095,0.495425 5.8156,0.694929 1.7206,0.199504 5.9956,-0.474211 9.5,-1.497146 l 6.37164,-1.85988 -7.35962,0.344683 c -4.88132,0.228612 -6.90178,0.0222 -6,-0.612968 0.9412,-0.662934 0.51331,-0.773021 -1.39038,-0.357716 -1.5125,0.329965 -2.75,0.175198 -2.75,-0.343927 0,-0.519125 -1.60337,-0.794846 -3.56304,-0.612714 -2.9608,0.275178 -3.28749,0.129666 -1.93281,-0.860903 1.48383,-1.085 1.46704,-1.202702 -0.18696,-1.310634 -7.56202,-0.4934641 -16.42047,-0.3641924 -17.42109,0.254226 -0.80124,0.49519 -0.9438,0.321976 -0.42538,-0.516841 0.57364,-0.9281725 0.21752,-1.0832014 -1.34735,-0.5865326 -3.17435,1.0074996 -18.31556,2.4026366 -19.81807,1.8260696 -0.71792,-0.275489 -1.3053,0.05236 -1.3053,0.728544 0,0.870087 -0.36536,0.926256 -1.25,0.19217 -1.32297,-1.097811 -14.03379,-0.768303 -15.94577,0.413368 -0.61557,0.380445 -0.83578,0.239067 -0.49257,-0.316248 0.66772,-1.080397 -7.75289,-0.907813 -14.81166,0.303572 -2.2,0.377551 -10.525,0.704155 -18.5,0.725786 -8.72076,0.02365 -13.50358,0.358084 -12,0.83908 1.80153,0.57631 1.52214,0.633355 -1,0.204177 -1.925,-0.327567 -7.1,-0.507452 -11.5,-0.399746 -4.4,0.107706 -10.99733,0.269305 -14.66074,0.359107 -5.60815,0.137475 -6.47731,0.386566 -5.5,1.576226 0.99775,1.214549 -3.53098,1.31986 -32.2525,0.75 -18.37729,-0.364621 -41.327286,-0.691472 -51.000002,-0.726334 -10.511841,-0.03789 -16.753261,-0.400706 -15.514859,-0.901892 1.139545,-0.461179 24.87569,-0.995155 52.746991,-1.186614 27.8713,-0.191459 50.67644,-0.685608 50.6781,-1.098108 0.002,-0.4125 6.19051,-0.756021 13.75301,-0.76338 16.17084,-0.01573 55.72284,-1.44878 86.75,-3.1431202 27.94338,-1.5259399 28.54934,-1.5094939 37.35976,1.0139567 4.04787,1.1593765 12.03537,2.6632965 17.75,3.3420425 C 331.44014,14.367087 335.67304,16 328.86933,16 c -5.4343,0 -22.80657,3.08613 -28.60804,5.082127 -3.06591,1.05483 -6.74144,1.850071 -8.16784,1.767201 C 290.66705,22.766459 285.225,22.36019 280,21.946509 Z M 200.9999,17.75 c -1e-4,-1.249456 7.62502,-1.491646 10.63215,-0.3377 0.75237,0.288712 1.36795,0.149477 1.36795,-0.309411 0,-0.458887 1.78364,-0.508179 3.96364,-0.109538 2.60576,0.476497 4.10457,0.344851 4.375,-0.384274 0.29959,-0.807726 0.73103,-0.809788 1.58785,-0.0076 C 224.1216,17.720408 229,17.318831 229,16.101531 c 0,-0.365924 1.2375,-0.73005 2.75,-0.80917 l 2.75,-0.143855 -2.75,1.00908 C 230.2375,16.71258 229,17.579167 229,18.083333 229,18.595238 222.81818,19 215,19 204.46672,19 200.99997,18.690471 200.9999,17.75 Z m -36.62515,-0.547347 c 0.49228,-0.796527 34.72047,-0.440766 35.53053,0.369297 C 200.14071,17.807377 192.13178,18 182.10765,18 c -10.02413,0 -18.00393,-0.358806 -17.7329,-0.797347 z m 72.7042,-1.785986 c 0.048,-1.164943 0.28494,-1.4019 0.60416,-0.604167 0.28887,0.721875 0.25335,1.584375 -0.0789,1.916667 -0.3323,0.332291 -0.56864,-0.258334 -0.52522,-1.3125 z M 287,15.401023 c 0,-1.765937 3.71272,-1.831164 5.44816,-0.09572 1.07374,1.073741 0.70627,1.322286 -2.07143,1.401023 C 288.10234,16.770799 287,16.344681 287,15.401023 Z m -33.12092,-0.680107 c 0.4825,-0.482499 2.1696,-0.716091 3.7491,-0.519093 2.64362,0.329717 2.5739,0.399428 -0.87727,0.877271 -2.14974,0.297648 -3.37485,0.14485 -2.87183,-0.358178 z m 9.8019,-0.163427 c -1.73593,-1.315922 -1.72106,-1.409991 0.32537,-2.059503 1.1794,-0.374329 2.41046,-0.414511 2.73568,-0.08929 C 267.06725,12.733912 266.49732,13 265.47554,13 c -1.77256,0 -1.76874,0.06737 0.0833,1.468197 1.06762,0.807508 1.49113,1.468196 0.94113,1.468196 -0.55,0 -1.81856,-0.620507 -2.81902,-1.378904 z M 269,14 c 0,-0.55 0.47656,-1 1.05902,-1 0.58246,0 0.7809,0.45 0.44098,1 -0.33992,0.55 -0.81648,1 -1.05902,1 C 269.19844,15 269,14.55 269,14 Z m 3.8125,0.316886 c 0.72187,-0.288871 1.58438,-0.253344 1.91667,0.07895 0.33229,0.332292 -0.25834,0.568641 -1.3125,0.52522 -1.16495,-0.04798 -1.4019,-0.284941 -0.60417,-0.604167 z m -43.05084,-1.024147 c 1.24391,-0.239193 3.04391,-0.230112 4,0.02018 0.95609,0.250292 -0.0617,0.445996 -2.26166,0.434897 -2.2,-0.0111 -2.98225,-0.215885 -1.73834,-0.455078 z M 251,13 c 0,-0.55 0.70156,-1 1.55902,-1 0.85746,0 1.2809,0.45 0.94098,1 -0.33992,0.55 -1.04148,1 -1.55902,1 C 251.42344,14 251,13.55 251,13 Z"
         style="fill:#a16994" />
      <path
         id="path885"
         d="m 289.00062,22.25 c 3.4e-4,-0.4125 -2.23908,-0.594782 -4.9765,-0.405072 -3.77871,0.261876 -5.40415,-0.08583 -6.75062,-1.444046 -1.69835,-1.713166 -1.69541,-1.759383 0.0694,-1.090664 1.0136,0.384071 3.0386,0.928308 4.5,1.209415 2.24477,0.431789 2.34674,0.364443 0.6571,-0.43398 -2.49987,-1.181291 0.10765,-1.303844 3,-0.140999 1.1,0.442246 2.79392,0.391347 3.76427,-0.113108 0.97036,-0.504456 1.70457,-0.560422 1.63158,-0.124369 -0.32835,1.96184 0.25369,2.283161 2.22483,1.228239 1.63347,-0.874207 1.94931,-0.857677 1.37477,0.07195 -0.53961,0.873107 -0.089,1.020869 1.62932,0.534261 1.83155,-0.518675 2.03188,-0.432254 0.87523,0.377554 -1.71591,1.201359 -8.00032,1.461255 -7.99938,0.330819 z m -35.33906,-2.13599 c -1.01114,-0.386226 -6.13434,-0.581488 -11.38489,-0.433916 -10.71656,0.301199 -14.5018,-0.708758 -9.36621,-2.499037 1.81552,-0.632893 2.90583,-0.692823 2.56477,-0.140975 -0.63642,1.029753 2.84593,1.28641 16.52477,1.217908 5.9149,-0.02962 7.58761,0.195507 5.5,0.740236 -2.27541,0.593731 -1.37459,0.778218 3.72962,0.763822 4.0947,-0.01155 6.49458,-0.399284 6.12932,-0.990282 -0.33016,-0.534216 0.32443,-0.476407 1.45464,0.128466 2.64,1.412885 3.48691,1.394992 2.59093,-0.05474 -0.44208,-0.7153 -0.27432,-0.883063 0.44098,-0.440984 2.82332,1.744905 0.53283,2.483383 -7.59549,2.448876 -4.8125,-0.02043 -9.5773,-0.353149 -10.58844,-0.739374 z m 47.7608,-1.455739 c -0.30998,-0.807784 -1.34975,-1.228515 -2.37408,-0.960645 -1.00241,0.262136 -2.07011,0.07607 -2.37266,-0.413472 -0.30256,-0.489546 0.87152,-0.791661 2.60905,-0.671369 1.73754,0.120293 3.32274,0.709431 3.52266,1.309195 0.19992,0.599765 0.78769,0.828309 1.30616,0.507877 0.51848,-0.320433 2.3586,-0.761801 4.08918,-0.980818 4.32727,-0.547648 2.21677,1.144907 -2.46573,1.977432 -2.81035,0.499668 -3.90268,0.30518 -4.31458,-0.7682 z m -99.82411,-1.262844 c -0.43839,-1.142408 -0.15636,-1.229302 1.35851,-0.418566 2.44659,1.309371 5.3485,1.326075 4.54511,0.02616 -0.40953,-0.662636 0.26322,-0.662636 2.00608,0 3.45553,1.313791 4.77297,1.26053 3.89656,-0.157531 -0.47122,-0.762453 -0.2708,-0.880891 0.59018,-0.348773 0.71704,0.443155 3.11805,0.969163 5.33557,1.168907 7.90136,0.711715 4.84041,1.345476 -6.08161,1.259183 -8.68316,-0.0686 -11.21752,-0.401298 -11.6504,-1.529382 z m 23.47564,0.193601 c -0.89667,-1.080419 -0.88916,-1.585163 0.0321,-2.154509 0.76271,-0.471383 0.9419,-0.320957 0.48954,0.410973 C 225.14439,16.575388 225.63924,17 226.94098,17 228.07344,17 229,16.648149 229,16.218108 c 0,-0.430041 1.2375,-0.846627 2.75,-0.925747 l 2.75,-0.143855 -2.75,1.00908 c -1.5125,0.554994 -2.75,1.421581 -2.75,1.925747 0,1.413797 -2.61586,1.084456 -3.92611,-0.494305 z M 165,17.198933 c 0,-0.919556 17.79141,-0.740859 18.72029,0.188027 C 184.05747,17.724132 179.98333,18 174.66667,18 169.35,18 165,17.63952 165,17.198933 Z m 31.26903,0.108076 c 0.97297,-0.253543 2.32297,-0.236869 3,0.03705 0.67703,0.273923 -0.11903,0.481368 -1.76903,0.460988 -1.65,-0.02038 -2.20394,-0.244498 -1.23097,-0.498042 z M 312,17.031385 c 0,-0.532739 0.675,-0.709594 1.5,-0.393011 0.825,0.316582 1.5,0.752459 1.5,0.968615 C 315,17.823145 314.325,18 313.5,18 312.675,18 312,17.564123 312,17.031385 Z M 119.20918,16.457483 c 0.31282,-0.312818 7.93123,-0.599855 16.92979,-0.637859 12.9778,-0.05481 15.22371,-0.248328 10.86103,-0.93584 -3.025,-0.476707 -9.88157,-0.789644 -15.23682,-0.695415 -5.35525,0.09423 -10.04275,-0.134605 -10.41667,-0.508521 C 120.9726,13.305931 128.15254,13 137.30195,13 c 13.45189,0 16.53737,0.255152 16.12363,1.333333 -0.2814,0.733334 0.13982,1.333334 0.93605,1.333334 0.79623,0 1.2356,-0.552705 0.97637,-1.228233 -0.34588,-0.90136 0.91274,-1.129464 4.7293,-0.857106 2.86034,0.20412 5.68689,0.07059 6.28123,-0.296729 1.73002,-1.069215 22.18381,-1.413759 21.09998,-0.35543 -0.52168,0.509406 -6.87138,1.071237 -14.11043,1.248512 -10.06537,0.246488 -12.92925,0.603543 -12.17292,1.517664 0.76158,0.920462 -4.01421,1.210931 -20.76786,1.263122 -11.96628,0.03728 -21.50094,-0.188165 -21.18812,-0.500984 z m 117.86977,-1.040816 c 0.048,-1.164943 0.28494,-1.4019 0.60416,-0.604167 0.28887,0.721875 0.25335,1.584375 -0.0789,1.916667 -0.3323,0.332291 -0.56864,-0.258334 -0.52522,-1.3125 z M 287,15.3 c 0,-0.715 0.93214,-1.3 2.07143,-1.3 1.13928,0 2.65643,0.585 3.37143,1.3 1.06666,1.066667 0.69487,1.3 -2.07143,1.3 C 288.27179,16.6 287,16.109605 287,15.3 Z m 30.5,0.7 -2,-0.859429 2,-0.05497 c 1.1,-0.03023 2.675,0.381246 3.5,0.914402 1.33333,0.861666 1.33333,0.963266 0,0.914402 C 320.175,16.884167 318.6,16.472686 317.5,16 Z M 63.308111,14.887381 c 2.006168,-1.167015 47.136209,-0.776396 48.330929,0.418324 0.38186,0.381862 -10.74321,0.680611 -24.722373,0.663886 C 68.64548,15.947732 62.008321,15.643486 63.308111,14.887381 Z M 253.87908,14.720916 c 0.4825,-0.482499 2.1696,-0.716091 3.7491,-0.519093 2.64362,0.329717 2.5739,0.399428 -0.87727,0.877271 -2.14974,0.297648 -3.37485,0.14485 -2.87183,-0.358178 z m 9.8019,-0.163427 c -1.73593,-1.315922 -1.72106,-1.409991 0.32537,-2.059503 1.1794,-0.374329 2.41046,-0.414511 2.73568,-0.08929 C 267.06725,12.733912 266.49732,13 265.47554,13 c -1.77256,0 -1.76874,0.06737 0.0833,1.468197 1.06762,0.807508 1.49113,1.468196 0.94113,1.468196 -0.55,0 -1.81856,-0.620507 -2.81902,-1.378904 z m 58.94826,0.651627 C 321.72519,13.746337 310.7253,13.169589 307.5,14.415857 c -1.6566,0.640117 -1.74245,0.571023 -0.5,-0.402408 1.21366,-0.950873 0.92731,-1.071904 -1.5,-0.634017 -1.65,0.297659 -2.4347,0.295622 -1.74377,-0.0045 C 305.34635,12.684135 304.3718,11 302.38197,11 c -0.825,0 -1.29268,0.3375 -1.03929,0.75 0.25339,0.4125 -0.88269,0.799821 -2.52463,0.860713 -1.79121,0.06643 -2.48316,-0.19965 -1.7299,-0.665195 1.63442,-1.010128 -6.26697,-3.1978652 -8.48106,-2.3482377 C 287.72319,9.9364638 287,9.7362235 287,9.1523019 c 0,-2.0485304 6.72417,-2.418632 11.69981,-0.6439636 7.54128,2.6897577 7.68835,2.7347837 9.80019,3.0004107 1.1,0.138357 4.8125,0.594595 8.25,1.013861 3.4375,0.419267 6.25,1.160835 6.25,1.64793 0,0.487094 2.025,0.611002 4.5,0.27535 2.93713,-0.398325 4.5,-0.234426 4.5,0.471917 0,1.239065 -8.61941,1.507017 -9.37076,0.291309 z M 299.5,10 c -2.74909,-1.1813224 -4.32797,-1.1813224 -2.5,0 0.825,0.533156 2.175,0.944637 3,0.914402 0.98906,-0.03625 0.81874,-0.34772 -0.5,-0.914402 z M 190.75,14.310674 C 188.61214,13.751993 188.42259,12 190.5,12 c 0.825,0 1.5,0.418702 1.5,0.930449 0,0.511747 1.0125,1.125465 2.25,1.363818 1.84303,0.354983 1.88825,0.437019 0.25,0.45355 -1.1,0.0111 -2.7875,-0.185615 -3.75,-0.437143 z M 269,14 c 0,-0.55 0.47656,-1 1.05902,-1 0.58246,0 0.7809,0.45 0.44098,1 -0.33992,0.55 -0.81648,1 -1.05902,1 C 269.19844,15 269,14.55 269,14 Z m 3.8125,0.316886 c 0.72187,-0.288871 1.58438,-0.253344 1.91667,0.07895 0.33229,0.332292 -0.25834,0.568641 -1.3125,0.52522 -1.16495,-0.04798 -1.4019,-0.284941 -0.60417,-0.604167 z M 195,12.973115 c -2.10038,-0.695248 -1.90099,-0.786287 1.24744,-0.569545 2.06109,0.141888 4.04859,0.55913 4.41667,0.927204 0.89275,0.892748 -2.54173,0.675879 -5.66411,-0.357659 z m 8.56638,0.129102 c -3.60648,-1.412307 0.12253,-2.126349 11.10766,-2.126926 5.95428,-3.12e-4 16.45096,-0.249652 23.32596,-0.554088 6.875,-0.304436 17.86257,-0.7422503 24.41682,-0.9729215 6.55426,-0.2306711 12.74176,-0.6812244 13.75,-1.0012294 C 277.17507,8.127047 278,8.2880354 278,8.8048041 278,10.074404 271.47405,10.999248 266.25,10.469989 263.84747,10.226583 262,10.465545 262,11.019706 262,11.558868 261.29844,12 260.44098,12 c -0.85746,0 -1.2809,-0.45 -0.94098,-1 0.33992,-0.55 -0.2944,-1 -1.4096,-1 -1.51426,0 -1.86158,0.443081 -1.37178,1.75 0.53215,1.419945 0.38478,1.532043 -0.78139,0.594359 -1.55228,-1.248152 -13.92619,-1.087252 -16.0225,0.208344 -0.7187,0.444181 -0.96701,0.340912 -0.60167,-0.250226 0.3997,-0.646735 -1.6005,-0.888605 -5.59549,-0.676624 -5.77815,0.3066 -8.04502,0.647403 -13.21757,1.987141 -1.44991,0.375541 -1.62933,0.260886 -0.65235,-0.416857 0.88542,-0.614221 -1.51553,-0.951479 -7,-0.983279 -5.4303,-0.03149 -7.64869,0.247779 -6.34765,0.799085 2.53155,1.072726 -0.20944,1.157073 -2.93362,0.09027 z m 26.19528,0.190522 c 1.24391,-0.239193 3.04391,-0.230112 4,0.02018 0.95609,0.250292 -0.0617,0.445996 -2.26166,0.434897 -2.2,-0.0111 -2.98225,-0.215885 -1.73834,-0.455078 z M 251,13 c 0,-0.55 0.70156,-1 1.55902,-1 0.85746,0 1.2809,0.45 0.94098,1 -0.33992,0.55 -1.04148,1 -1.55902,1 C 251.42344,14 251,13.55 251,13 Z m 28.33333,-3.7202581 c 0,-1.3957904 0.86281,-1.4607121 4.66667,-0.3511408 2.32473,0.6781168 2.24879,0.7608463 -1.08333,1.1800619 -2.47927,0.311917 -3.58334,0.05652 -3.58334,-0.8289211 z"
         style="fill:#a26595" />
      <path
         id="path883"
         d="m 289,22.158428 c 0,-0.462865 2.01899,-0.823205 4.48663,-0.800757 2.57121,0.02339 3.9587,0.376137 3.25,0.826259 C 295.07713,23.23796 289,23.217928 289,22.158428 Z m -11,-1.035591 c 0,-0.801495 8.9501,-0.341008 9.91667,0.510218 C 288.14583,21.834875 286.00833,22 283.16667,22 280.325,22 278,21.605277 278,21.122837 Z M 253.64722,20.10898 c -1.01903,-0.388992 2.79373,-0.547384 8.4728,-0.351983 5.67907,0.195401 10.50061,0.530303 10.71454,0.744226 0.70083,0.700837 -17.28715,0.333112 -19.18734,-0.392243 z m -22.05794,-0.964523 c -0.29082,-0.470549 0.58263,-0.643089 1.94098,-0.383423 C 234.88862,19.0207 236,19.405695 236,19.616577 c 0,0.77375 -3.89864,0.356443 -4.41072,-0.47212 z m 6.67975,0.162552 c 0.97297,-0.253543 2.32297,-0.236869 3,0.03705 0.67703,0.273923 -0.11903,0.481368 -1.76903,0.460988 -1.65,-0.02038 -2.20394,-0.244498 -1.23097,-0.498042 z m 5.98097,0.0037 c 0.9625,-0.251527 2.5375,-0.251527 3.5,0 0.9625,0.251528 0.175,0.457323 -1.75,0.457323 -1.925,0 -2.7125,-0.205795 -1.75,-0.457323 z m 57.96036,0.151485 c 0.3907,-0.393915 2.56439,-1.055243 4.83043,-1.469618 2.26604,-0.414375 3.74638,-0.411795 3.28964,0.0057 -1.06656,0.975 -9.06543,2.417035 -8.12007,1.463884 z M 202,18.118546 c 0,-0.736064 21.16107,-0.276458 21.92291,0.476153 0.2326,0.229783 -4.6049,0.378063 -10.75,0.329511 C 207.02781,18.875659 202,18.51311 202,18.118546 Z m -32.21648,-0.85695 c 2.90594,-0.202642 7.40594,-0.200512 10,0.0047 2.59406,0.205245 0.21648,0.371043 -5.28352,0.368439 -5.5,-0.0026 -7.62242,-0.170532 -4.71648,-0.373173 z m 143.02898,0.05529 c 0.72187,-0.288871 1.58438,-0.253344 1.91667,0.07895 0.33229,0.332292 -0.25834,0.568641 -1.3125,0.52522 -1.16495,-0.04798 -1.4019,-0.284941 -0.60417,-0.604167 z m -185.5134,-1.06217 c 4.83951,-0.183708 12.48951,-0.182767 17,0.0021 4.5105,0.184857 0.5509,0.335163 -8.7991,0.334013 -9.35,-0.0011 -13.0404,-0.152396 -8.2009,-0.336103 z m 27.46256,0.03802 c 1.24391,-0.239193 3.04391,-0.230112 4,0.02018 0.95609,0.250292 -0.0617,0.445996 -2.26166,0.434897 -2.2,-0.0111 -2.98225,-0.215885 -1.73834,-0.455078 z m 165.05084,0.02415 c 0.72187,-0.288871 1.58438,-0.253344 1.91667,0.07895 0.33229,0.332292 -0.25834,0.568641 -1.3125,0.52522 -1.16495,-0.04798 -1.4019,-0.284941 -0.60417,-0.604167 z M 63.308111,14.887381 c 2.006168,-1.167015 47.136209,-0.776396 48.330929,0.418324 0.38186,0.381862 -10.74321,0.680611 -24.722373,0.663886 C 68.64548,15.947732 62.008321,15.643486 63.308111,14.887381 Z M 322.57345,15.11884 c -0.29953,-0.484638 -4.03858,-1.18743 -8.30902,-1.561759 C 309.99399,13.182752 304.925,12.148696 303,11.259179 301.075,10.369663 296.575,9.3579081 293,9.0108355 286.7794,8.40692 286.65904,8.3457599 290.19981,7.588022 c 2.64049,-0.5650734 5.07419,-0.3015698 8.5,0.9203163 7.54128,2.6897577 7.68835,2.7347837 9.80019,3.0004107 1.1,0.138357 4.8125,0.594595 8.25,1.013861 3.4375,0.419267 6.25,1.160835 6.25,1.64793 0,0.487094 2.025,0.611002 4.5,0.27535 2.93713,-0.398325 4.5,-0.234426 4.5,0.471917 0,1.295132 -8.63653,1.479317 -9.42655,0.201033 z M 121.64702,13.765313 C 121.01616,13.361235 128.15,13.106977 137.5,13.200295 c 17.25717,0.172236 15.81442,0.560479 -3.85298,1.036838 -5.96914,0.144577 -11.36914,-0.06774 -12,-0.47182 z m 54.12089,-1.490044 c 1.79735,-0.222562 4.49735,-0.217969 6,0.01021 1.50265,0.228174 0.0321,0.41027 -3.26791,0.404657 -3.3,-0.0056 -4.52944,-0.192301 -2.73209,-0.414862 z m 10.04459,0.04162 c 0.72187,-0.288871 1.58437,-0.253344 1.91667,0.07895 0.33229,0.332292 -0.25834,0.568641 -1.3125,0.52522 -1.16495,-0.04798 -1.4019,-0.284941 -0.60417,-0.604167 z m 4,0 c 0.72187,-0.288871 1.58437,-0.253344 1.91667,0.07895 0.33229,0.332292 -0.25834,0.568641 -1.3125,0.52522 -1.16495,-0.04798 -1.4019,-0.284941 -0.60417,-0.604167 z m 3.9375,0.02083 c 0.6875,-0.277412 1.8125,-0.277412 2.5,0 0.6875,0.277413 0.125,0.504386 -1.25,0.504386 -1.375,0 -1.9375,-0.226973 -1.25,-0.504386 z m 8.89184,-0.567795 c 0.57236,-0.925376 21.35832,-0.883534 21.3577,0.04299 C 223.99929,12.190812 219.0921,12.5 213.09468,12.5 c -5.99742,0 -10.7012,-0.328534 -10.45284,-0.730076 z M 235.75,10.267795 c 2.3375,-0.210535 6.1625,-0.210535 8.5,0 2.3375,0.210535 0.425,0.382791 -4.25,0.382791 -4.675,0 -6.5875,-0.172256 -4.25,-0.382791 z M 253.5,9.8883636 C 258.72113,8.879244 268.75373,8.7916279 269.34352,9.75 c 0.25385,0.4125 -4.10709,0.78633 -9.69098,0.830734 -7.38092,0.05869 -9.06055,-0.130322 -6.15254,-0.6923704 z M 279.8125,8.316886 c 0.72187,-0.2888706 1.58438,-0.2533443 1.91667,0.078947 0.33229,0.3322917 -0.25834,0.5686404 -1.3125,0.5252193 -1.16495,-0.047984 -1.4019,-0.2849403 -0.60417,-0.6041663 z"
         style="fill:#9c6992" />
      <path
         id="path881"
         d="m 290.8125,22.316886 c 0.72187,-0.288871 1.58438,-0.253344 1.91667,0.07895 0.33229,0.332292 -0.25834,0.568641 -1.3125,0.52522 -1.16495,-0.04798 -1.4019,-0.284941 -0.60417,-0.604167 z m 4.92083,-0.440974 c 0.67834,-0.683418 1.48524,-0.990671 1.79313,-0.682784 0.30789,0.307887 -0.24711,0.867048 -1.23333,1.242579 -1.4252,0.542685 -1.54006,0.427821 -0.5598,-0.559795 z M 256.75,20.294267 c 1.2375,-0.238353 3.2625,-0.238353 4.5,0 1.2375,0.238353 0.225,0.433369 -2.25,0.433369 -2.475,0 -3.4875,-0.195016 -2.25,-0.433369 z m -11.9375,-0.977381 c 0.72187,-0.288871 1.58437,-0.253344 1.91667,0.07895 0.33229,0.332292 -0.25834,0.568641 -1.3125,0.52522 -1.16495,-0.04798 -1.4019,-0.284941 -0.60417,-0.604167 z m -39,-1 c 0.72187,-0.288871 1.58437,-0.253344 1.91667,0.07895 0.33229,0.332292 -0.25834,0.568641 -1.3125,0.52522 -1.16495,-0.04798 -1.4019,-0.284941 -0.60417,-0.604167 z M 121.25,16.283746 c 1.5125,-0.229125 3.9875,-0.229125 5.5,0 1.5125,0.229124 0.275,0.41659 -2.75,0.41659 -3.025,0 -4.2625,-0.187466 -2.75,-0.41659 z m 15.01903,0.02326 c 0.97297,-0.253543 2.32297,-0.236869 3,0.03705 0.67703,0.273923 -0.11903,0.481368 -1.76903,0.460988 -1.65,-0.02038 -2.20394,-0.244498 -1.23097,-0.498042 z m 190.33398,-1.140342 c -0.28327,-0.458334 0.14017,-0.833334 0.94098,-0.833334 0.8008,0 1.45601,0.375 1.45601,0.833334 C 329,15.625 328.57656,16 328.05902,16 c -0.51754,0 -1.17275,-0.375 -1.45601,-0.833333 z M 330,15 c 0,-0.55 0.45,-1 1,-1 0.55,0 1,0.45 1,1 0,0.55 -0.45,1 -1,1 -0.55,0 -1,-0.45 -1,-1 z M 124.75,13.294267 c 1.2375,-0.238353 3.2625,-0.238353 4.5,0 1.2375,0.238353 0.225,0.433369 -2.25,0.433369 -2.475,0 -3.4875,-0.195016 -2.25,-0.433369 z m 81.51375,-2.011848 c 1.52006,-0.229855 3.77006,-0.223712 5,0.01365 1.22994,0.237362 -0.0137,0.425424 -2.76375,0.417917 -2.75,-0.0075 -3.75631,-0.201713 -2.23625,-0.431567 z m 11.54875,0.03447 c 0.72187,-0.288871 1.58437,-0.253344 1.91667,0.07895 0.33229,0.332292 -0.25834,0.568641 -1.3125,0.52522 -1.16495,-0.04798 -1.4019,-0.284941 -0.60417,-0.604167 z m 21,-1 c 0.72187,-0.288871 1.58437,-0.253344 1.91667,0.07895 0.33229,0.332292 -0.25834,0.568641 -1.3125,0.52522 -1.16495,-0.04798 -1.4019,-0.284941 -0.60417,-0.604167 z m 18,-1 c 0.72187,-0.2888706 1.58438,-0.2533443 1.91667,0.078947 0.33229,0.3322917 -0.25834,0.5686404 -1.3125,0.5252193 -1.16495,-0.047984 -1.4019,-0.2849403 -0.60417,-0.6041663 z M 291.25,7.3106745 c 0.9625,-0.2515276 2.5375,-0.2515276 3.5,0 0.9625,0.2515275 0.175,0.4573228 -1.75,0.4573228 -1.925,0 -2.7125,-0.2057953 -1.75,-0.4573228 z"
         style="fill:#986a8d" />
    </g>
  </g>
</svg>
