<?xml version="1.0" encoding="UTF-8" standalone="no"?>
<svg
        xmlns="http://www.w3.org/2000/svg"
        viewBox="0 0 169 167"
        height="167"
        width="169"
        id="svg833" version="1.1"
>
  <metadata
          id="metadata839">
    image/svg+xml
  </metadata>
  <defs
          id="defs837"/>
  <g
          id="g841"
  >
    <g
            id="g1406">
      <path
              id="path1420"
              d="M 22.684977,161.04187 C 15.851595,158.84821 10,151.65953 10,145.4584 c 0,-1.50663 1.00072,-4.74309 2.223822,-7.19211 C 16.513936,129.67617 26.972781,124 38.510727,124 H 45 V 79.122445 C 45,44.433674 45.283794,34.012204 46.25,33.220002 49.620028,30.456881 83.238947,18.985365 100,14.879316 c 22.66298,-5.5518763 53.61143,-10.66789 55.16081,-9.1185024 0.50938,0.5093758 0.87777,27.9894864 0.85423,63.7206894 -0.0396,60.132517 -0.12354,62.957787 -1.95817,65.921787 -9.89196,15.9813 -37.02078,18.1699 -44.55792,3.59468 -6.4053,-12.38648 6.23244,-26.48827 25.00105,-27.89736 l 8,-0.60061 v -32 -32 L 131,46.76004 c -18.18199,0.411136 -46.992427,5.233445 -65.5,10.963433 l -6,1.857614 -0.5,42.959453 c -0.546794,46.97995 -0.390525,45.76936 -6.660724,51.59944 -5.200798,4.83574 -11.209664,7.16558 -19.339276,7.49847 -4.125,0.16891 -8.76676,-0.0995 -10.315023,-0.59658 z M 96.856362,39.416317 c 6.245998,-1.410407 18.747898,-3.638403 27.781998,-4.951105 9.0341,-1.312701 16.86124,-2.655946 17.39364,-2.984988 0.5324,-0.329042 0.968,-2.661967 0.968,-5.184278 v -4.58602 l -6.75244,0.5661 C 119.95828,23.641661 72.990971,35.846772 61.75,41.63526 c -2.546071,1.311088 -3.775541,5.005866 -2.192512,6.588894 0.306618,0.306618 6.269118,-0.972726 13.25,-2.842987 6.980881,-1.870262 17.802875,-4.554444 24.048874,-5.96485 z"
              style="fill:#f7c3b5"/>
      <path
              id="path1418"
              d="M 25.340243,161.08411 C 9.157972,157.01466 6.1117295,140.46966 19.725708,130.58998 25.669274,126.27673 30.822117,124.66858 39,124.57465 L 45.5,124.5 45.683649,79.602065 c 0.145865,-35.66064 0.454475,-45.147306 1.5,-46.110005 C 50.855017,30.111536 89.296692,17.811371 111,13.072772 c 17.65157,-3.8539602 42.10304,-7.3697318 43.25353,-6.219238 0.50558,0.5055794 0.8454,27.630829 0.78457,62.626828 -0.10354,59.571318 -0.17713,61.871838 -2.09986,65.640698 -4.00493,7.85032 -16.20392,13.64737 -26.48566,12.5862 -14.05513,-1.45062 -21.05592,-11.7238 -15.46181,-22.68917 3.8802,-7.60582 12.25636,-12.11673 24.00923,-12.92995 l 8.5,-0.58814 0.27977,-31 c 0.15387,-17.05 0.0166,-32.077173 -0.30513,-33.393719 l -0.58489,-2.393718 -10.69487,0.687349 c -21.81015,1.401717 -48.605214,6.068004 -66.299061,11.545799 l -6.604182,2.044572 -0.515631,43.008937 -0.51563,43.00894 -2.590834,3.91501 c -2.951889,4.4606 -7.69808,8.35814 -12.723369,10.44833 -4.434216,1.84435 -13.554294,2.7315 -17.60593,1.71261 z M 72.733322,46.080867 C 90.850559,41.168803 105.67294,38.096917 124.75,35.300596 L 143,32.625505 v -5.956352 -5.956352 l -7.06816,0.656917 C 119.7075,22.877611 80.200122,33.193893 63.75,40.218051 59.421509,42.066305 59,42.545946 59,45.623144 c 0,4.169067 0.03983,4.170394 13.733322,0.457723 z"
              style="fill:#f5b5b0"/>
      <path
              id="path1416"
              d="M 23.211408,159.93097 C 18.819012,158.58443 12.23605,151.88468 11.806299,148.32352 10.837471,140.29524 15.391917,133.19944 24.530037,128.5 c 5.040207,-2.59201 6.896778,-2.99628 13.651751,-2.97261 L 46,125.55477 V 80.399832 C 46,45.489151 46.283586,35.012374 47.25,34.220002 50.135111,31.85447 74.761403,23.189911 93,18.12324 111.55142,12.969666 150.26287,6.1194236 153.59942,7.3997784 c 1.17925,0.4525185 1.3997,9.9846976 1.395,60.3188366 -0.004,39.472245 -0.37001,61.093885 -1.07832,63.644805 C 151.54999,139.88484 140.13068,147 128.82055,147 c -18.77198,0 -25.86588,-17.93579 -11.19743,-28.31091 6.35475,-4.49477 9.77737,-5.52614 18.62688,-5.61301 L 144,113 V 78.968615 c 0,-29.732562 -0.19469,-34.106095 -1.54126,-34.622823 -1.82828,-0.701577 -22.57808,1.078947 -37.66115,3.231676 C 94.519124,49.04446 66.463102,55.593741 60.75,57.859754 L 58,58.950498 v 41.556872 c 0,45.28167 -0.05539,45.77644 -5.803048,51.83588 -6.392248,6.73899 -20.072401,10.32012 -28.985544,7.58772 z M 71.733322,47.078894 C 90.125152,42.089008 105.78364,38.842078 125,36.033568 l 18.5,-2.703814 0.29805,-6.177822 c 0.23493,-4.869451 -0.033,-6.304866 -1.26519,-6.777696 C 138.0895,18.669159 104.51976,25.88593 80.5,33.709963 58.099661,41.006498 58,41.061049 58,46.02568 c 0,4.849276 -0.201366,4.833833 13.733322,1.053214 z"
              style="fill:#ef9291"/>
      <path
              id="path1414"
              d="M 21.421401,158.10367 C 8.0661315,152.03801 9.6130537,136.94115 24.380261,129.22731 28.681935,126.98028 30.858184,126.53558 38,126.44425 l 8.5,-0.1087 0.260011,-45.553639 c 0.198808,-34.831044 0.551884,-45.771955 1.5,-46.481131 C 53.056427,30.713134 89.888433,19.165993 111,14.631271 125.36989,11.544649 150.89063,7.7440537 152.66782,8.4260251 153.75677,8.8438952 154,19.818192 154,68.533234 c 0,58.254086 -0.0471,59.705506 -2.09209,64.459206 -6.83238,15.8823 -36.64885,17.61056 -40.80178,2.36501 -1.6946,-6.22092 3.13469,-14.34637 10.89387,-18.32934 4.12176,-2.11579 12.85795,-3.84368 18.5,-3.65902 l 4,0.13091 v -35 -35 L 135,43.751292 C 109.05356,44.437623 59.528532,54.574325 57.602749,59.592835 57.271237,60.456742 57,79.366224 57,101.61391 c 0,34.24801 -0.237316,41.0183 -1.547728,44.15456 -2.229204,5.33524 -5.148318,8.11024 -11.952272,11.36222 -7.289336,3.48398 -15.730851,3.85598 -22.078599,0.97298 z M 72.676848,47.586822 C 90.028983,42.968151 112.67302,38.477037 129,36.415947 c 7.425,-0.937319 14.0625,-2.144456 14.75,-2.682526 1.95611,-1.530944 1.67458,-13.633265 -0.33508,-14.404443 -4.60856,-1.768471 -40.3354,5.944583 -63.169973,13.637742 C 59.409994,39.986191 58.146156,40.569488 57.409113,43.506099 56.68173,46.404225 57.624193,51 58.9459,51 c 0.499288,0 6.678214,-1.53593 13.730948,-3.413178 z"
              style="fill:#f38e6a"/>
      <path
              id="path1412"
              d="M 21.421401,158.10367 C 8.0661315,152.03801 9.6130537,136.94115 24.380261,129.22731 28.681935,126.98028 30.858184,126.53558 38,126.44425 l 8.5,-0.1087 0.260011,-45.553639 c 0.198808,-34.831044 0.551884,-45.771955 1.5,-46.481131 C 55.648086,28.774612 116.21256,11.863693 132,10.918754 c 6.55318,-0.392233 9.65043,0.01677 8.00487,1.057074 -1.28867,0.814681 -1.23305,1.136837 0.40278,2.332983 2.76219,2.019768 1.3284,3.335887 -4.47246,4.105398 -2.81033,0.372805 -5.85793,1.070086 -6.77244,1.549515 -0.91451,0.479429 -7.51275,2.093246 -14.66275,3.58626 -20.441326,4.268418 -53.772839,15.074775 -56.25,18.236724 -1.439218,1.837077 -1.621801,6.077969 -0.348238,8.088581 0.717518,1.132766 3.315879,0.732682 14.734688,-2.268781 21.18675,-5.568992 41.48211,-9.463773 50.09281,-9.613059 C 132.86031,37.817804 133,37.831311 133,38.98658 c 0,1.531523 -6.25335,3.778612 -12.67854,4.555928 -3.2018,0.387352 -6.27146,1.037418 -6.82146,1.444591 -0.55,0.407173 -3.7,1.041717 -7,1.410099 C 90.849067,48.144325 58.662855,56.830244 57.602749,59.592835 57.271237,60.456742 57,79.366224 57,101.61391 c 0,34.24801 -0.237316,41.0183 -1.547728,44.15456 -2.229204,5.33524 -5.148318,8.11024 -11.952272,11.36222 -7.289336,3.48398 -15.730851,3.85598 -22.078599,0.97298 z"
              style="fill:#eb7982"/>
      <path
              id="path1410"
              d="M 20.984398,157.14839 C 12.907193,152.85616 10.769404,144.37932 15.957837,137.2169 21.223369,129.94805 29.11827,126.65074 41.5,126.5492 l 6,-0.0492 0.5,-45.940313 0.5,-45.940313 6,-2.355171 C 72.53206,25.186106 95.532467,18.461059 115,14.574718 c 14.61903,-2.918425 27.2915,-4.28342 25.00487,-2.693361 -1.29133,0.897955 -1.22317,1.240343 0.5,2.511837 2.95735,2.182171 1.2371,3.048913 -10.00487,5.040896 C 113.95898,22.365022 96.4334,26.884099 79,32.713679 56.151613,40.353984 56.83126,39.930364 57.199536,46.301776 57.564812,52.621282 56.766327,52.557906 75,47.714618 90.467666,43.606046 111.99841,39.34727 123.11486,38.197507 131.04239,37.377571 133,37.550339 133,39.069913 c 0,1.82197 -6.86283,3.660487 -22,5.893692 -25.192419,3.716666 -52.646699,10.907077 -53.826895,14.097529 -0.370208,1.000791 -0.833265,20.39251 -1.029016,43.092706 -0.195751,22.7002 -0.713985,42.2149 -1.151631,43.366 -1.523242,4.00643 -6.443275,8.78111 -11.451593,11.11329 -6.518898,3.03559 -17.348138,3.28297 -22.556467,0.51526 z"
              style="fill:#ed6d69"/>
      <path
              id="path1408"
              d="m 19.951949,155.7466 c -4.753425,-3.20333 -7.318962,-7.97672 -6.534542,-12.15803 0.895041,-4.77098 7.671071,-12.07504 13.139559,-14.16348 4.901026,-1.87171 12.397146,-2.36241 16.549278,-1.08331 1.858921,0.57266 3.047883,0.36124 4.146436,-0.73732 1.358078,-1.35808 1.475577,-6.90684 0.99372,-46.927495 L 47.699928,35.28966 55.599964,32.273108 C 76.27132,24.379953 101.72541,17.968673 103.19702,20.284543 104.55848,22.42708 104.13441,22.74916 96.25,25.560756 91.9875,27.080772 84,29.992998 78.5,32.03237 73,34.071741 66.840617,36.274365 64.812483,36.92709 58.89206,38.832489 56,41.642905 56,45.490793 56,50.073791 56.887587,52 58.999408,52 59.981394,52 66.513544,50.630932 73.515297,48.957626 80.51705,47.28432 86.752961,46.10032 87.372878,46.326514 88.845768,46.86394 86.234856,47.88727 70,53.135699 L 56.5,57.5 l -0.260264,12 c -1.027752,47.38649 -1.882008,63.30509 -3.532372,65.82387 -3.904559,5.95911 -5.784323,10.03319 -5.259866,11.39991 0.354391,0.92353 -0.209831,1.66281 -1.533165,2.00887 -1.568761,0.41024 -1.980599,1.14037 -1.642089,2.91117 C 45.02412,155.577 39.880775,158 30.779849,158 c -6.108681,0 -8.098599,-0.41412 -10.8279,-2.2534 z"
              style="fill:#ed5761"/>
    </g>
  </g>
</svg>
